<?xml version="1.0" standalone="no"?>
<!DOCTYPE svg PUBLIC "-//W3C//DTD SVG 1.1//EN" "http://www.w3.org/Graphics/SVG/1.1/DTD/svg11.dtd" >
<svg xmlns="http://www.w3.org/2000/svg" xmlns:xlink="http://www.w3.org/1999/xlink" version="1.1">
<metadata>
Created by FontForge 20161003 at Wed Apr 12 13:11:29 2017
 By www-data
Copyright (c) BPG InfoTech, 2010. All rights reserved.
</metadata>
<defs>
<font id="bpg_nateli_mtavruli" horiz-adv-x="488" >
  <font-face 
    font-family="bpg_nateli_mtavruli"
    font-weight="300"
    font-style="italic"
    font-stretch="normal"
    units-per-em="1000"
    panose-1="2 0 5 3 0 0 0 2 0 2"
    ascent="800"
    descent="-200"
    x-height="453"
    cap-height="672"
    bbox="-25 -231 949 760"
    underline-thickness="24"
    underline-position="-73"
    slope="-12"
    unicode-range="U+0020-F450"
  />
<missing-glyph horiz-adv-x="473" 
d="M76 11h323v650h-323v-650zM61 -10v692h353v-692h-353z" />
    <glyph glyph-name=".notdef" horiz-adv-x="473" 
d="M76 11h323v650h-323v-650zM61 -10v692h353v-692h-353z" />
    <glyph glyph-name=".null" horiz-adv-x="0" 
 />
    <glyph glyph-name="nonmarkingreturn" horiz-adv-x="345" 
 />
    <glyph glyph-name="space" unicode=" " horiz-adv-x="242" 
 />
    <glyph glyph-name="space" unicode="&#xa0;" horiz-adv-x="242" 
 />
    <glyph glyph-name="exclam" unicode="!" horiz-adv-x="237" 
d="M111 169l-22 502h62l-22 -502h-18zM119 0q-19 0 -32 14t-13 31q0 23 12 37.5t35 14.5q20 0 33 -13.5t13 -35.5q0 -17 -13 -32.5t-34 -15.5h-1z" />
    <glyph glyph-name="quotedbl" unicode="&#x22;" horiz-adv-x="332" 
d="M117 679v-231h-51v231h51zM251 679v-231h-51v231h51z" />
    <glyph glyph-name="numbersign" unicode="#" horiz-adv-x="697" 
d="M631 443l-10 -37h-139l-32 -144h152l-8 -38h-152l-48 -224h-55l49 224h-121l-50 -224h-54l49 224h-146l11 38h142l33 144h-157l7 37h158l49 226h55l-47 -226h119l50 226h54l-49 -226h140zM426 406h-120l-29 -144h119z" />
    <glyph glyph-name="dollar" unicode="$" horiz-adv-x="583" 
d="M252 -100v100q-47 0 -93 11.5t-77 33.5l25 35q28 -17 68 -29.5t87 -12.5q35 0 64.5 9t50 24t32 36t11.5 45q0 46 -37 77.5t-101 50.5q-48 19 -83 35.5t-58 36t-34 42t-11 50.5q0 59 45 98t122 49v102h46v-102q51 -3 85 -14t58 -24l-24 -36q-18 9 -51 22.5t-89 13.5
q-38 0 -65 -10t-43.5 -24t-24.5 -32t-8 -35q0 -43 34.5 -70.5t114.5 -54.5q84 -29 130.5 -68.5t46.5 -103.5q0 -23 -10 -49t-32 -47.5t-54.5 -37.5t-78.5 -21v-100h-46z" />
    <glyph glyph-name="percent" unicode="%" horiz-adv-x="847" 
d="M196 669q69 0 112 -46.5t43 -145.5q0 -52 -12.5 -90.5t-35.5 -64t-52.5 -38t-63.5 -12.5q-31 0 -59.5 11.5t-50 35t-34.5 60t-14 86.5q0 52 14 91t37 63t53.5 37t61.5 13h1zM189 636q-53 0 -83 -48.5t-30 -129.5q0 -72 32 -112.5t81 -40.5q56 0 84.5 44t28.5 124
q0 73 -26 118t-86 45h-1zM175 0l445 669h45l-445 -669h-45zM659 404q70 0 112.5 -46.5t42.5 -145.5q0 -53 -12.5 -90.5t-34.5 -63.5t-52.5 -38t-64.5 -12q-31 0 -59 11t-49.5 34.5t-35 60t-14.5 86.5q0 52 14.5 90.5t38 64t53 37.5t60.5 12h1zM652 370q-53 0 -82.5 -46.5
t-29.5 -130.5q0 -72 31.5 -112t80.5 -40q58 0 86.5 43.5t28.5 123.5q0 75 -27 118.5t-87 43.5h-1z" />
    <glyph glyph-name="ampersand" unicode="&#x26;" horiz-adv-x="605" 
d="M541 12l-81 74q-29 -24 -57 -40.5t-56 -27t-56 -14.5t-57 -4q-43 0 -79 14t-63.5 37.5t-43.5 57t-16 71.5q0 39 11.5 68t32 52t46 41t55.5 31v3q-33 39 -48 73t-15 66q0 28 10.5 55.5t32 49.5t52 36t69.5 14q30 0 56.5 -9.5t44.5 -26.5t28.5 -41t10.5 -54
q0 -50 -38 -92.5t-135 -82.5v-4q31 -35 63 -66t60 -59.5t51.5 -52.5t40.5 -39q12 15 23 34t21 43t18 56t16 75h46q-16 -87 -39.5 -143t-56.5 -89q33 -32 61 -57.5t56 -48.5h-64zM248 38q57 0 104.5 21t79.5 54q-10 9 -33 31.5t-55 53.5t-69 68.5t-75 77.5
q-17 -7 -37.5 -20.5t-38.5 -32.5t-31 -45t-13 -58q0 -34 13.5 -62t36 -47.5t52.5 -30t64 -10.5h2zM271 632q-28 0 -48.5 -9t-34 -25t-20.5 -37t-7 -43q0 -43 19.5 -73.5t39.5 -56.5q33 15 60.5 30t48.5 33t32 38t11 46q0 17 -5.5 34t-17.5 32t-32 23t-45 8h-1z" />
    <glyph glyph-name="quotesingle" unicode="'" horiz-adv-x="198" 
d="M128 679l-17 -229h-40l-16 229h73z" />
    <glyph glyph-name="parenleft" unicode="(" horiz-adv-x="297" 
d="M295 682q-42 -43 -74.5 -91.5t-56 -105t-35.5 -121t-12 -140.5q0 -74 13 -137t37 -117t56.5 -101.5t71.5 -92.5h-44q-33 35 -65.5 79t-58 100t-41 123.5t-15.5 147.5q0 81 15.5 148t41 123t58 102t65.5 83h44z" />
    <glyph glyph-name="parenright" unicode=")" horiz-adv-x="297" 
d="M19 -223q38 44 70 91.5t56 102t37 119t13 141.5q0 74 -12.5 137t-36.5 118t-56 103t-71 93h44q31 -37 63 -82.5t56.5 -99.5t40 -121.5t15.5 -148.5q0 -83 -15.5 -149.5t-40 -121.5t-56.5 -99.5t-63 -82.5h-44z" />
    <glyph glyph-name="asterisk" unicode="*" horiz-adv-x="601" 
d="M316 507l93 107q6 5 11.5 11t15.5 6t17 -7t7 -16q0 -10 -6 -15l-12 -10l-113 -89l2 -7l160 16q15 0 20 -8.5t5 -14.5q0 -14 -8.5 -19.5t-20.5 -5.5q-7 0 -10 2l-146 14l-2 -6l113 -89q7 -5 12.5 -10.5t5.5 -14.5t-6 -16t-16 -7q-8 0 -15.5 5t-13.5 11l-93 108l-7 -2
l15 -153q0 -15 -7.5 -18.5t-16.5 -3.5t-17 4.5t-8 24.5l16 146l-6 2l-94 -108q-6 -6 -13.5 -11t-14.5 -5q-9 0 -15.5 6t-6.5 15q0 7 5 14t12 13l114 89l-3 6l-153 -16q-20 0 -25.5 7.5t-5.5 17.5q0 6 4.5 14.5t19.5 8.5l160 -16l3 7l-114 89q-7 5 -12 12.5t-5 14.5
q0 9 7.5 15t16.5 6q10 0 15.5 -5.5t10.5 -11.5l94 -107l6 1l-16 145q0 20 8 25.5t17 5.5t16.5 -4.5t7.5 -18.5l-15 -153zM271 479q0 -13 8 -20.5t19 -7.5q12 0 21.5 7.5t9.5 20.5q0 11 -9.5 19.5t-21.5 8.5q-11 0 -19 -8.5t-8 -19.5z" />
    <glyph glyph-name="plus" unicode="+" horiz-adv-x="656" 
d="M321 418v-192h205v-31h-205v-195h-37v195h-205v31h205v192h37z" />
    <glyph glyph-name="comma" unicode="," horiz-adv-x="206" 
d="M45 -140q36 40 51 67.5t15 52.5q0 6 -0.5 11.5t-1.5 11.5q-1 -1 -9 -1h-3q-18 0 -31 9.5t-13 25.5q0 22 15.5 32.5t29.5 10.5q24 0 39 -14.5t15 -50.5q0 -45 -24.5 -89t-65.5 -81z" />
    <glyph glyph-name="hyphen" unicode="-" horiz-adv-x="398" 
d="M344 277v-39h-290v39h290z" />
    <glyph glyph-name="period" unicode="." horiz-adv-x="199" 
d="M48 50q0 17 14.5 31.5t36.5 14.5q21 0 35 -13.5t14 -32.5q0 -22 -14.5 -36t-34.5 -14q-21 0 -36 15t-15 35z" />
    <glyph glyph-name="slash" unicode="/" horiz-adv-x="254" 
d="M1 -150l196 819h51l-200 -819h-47z" />
    <glyph glyph-name="zero" unicode="0" horiz-adv-x="446" 
d="M98 215q0 -64 12 -100.5t31.5 -54.5t41.5 -22.5t41 -4.5t40.5 4.5t39.5 22.5t31 54.5t13 100.5v235q0 64 -13 100t-31 53t-39.5 22.5t-40.5 5.5t-41 -5.5t-41.5 -22.5t-31.5 -53t-12 -100v-235zM224 665q63 0 96 -25.5t49 -66t19 -88.5t3 -97v-112q0 -47 -3 -96.5
t-19 -89.5t-49 -65.5t-96 -25.5t-98 25.5t-51 65.5t-18 89.5t-2 96.5v112q0 49 2 97t18 88.5t51 66t98 25.5z" />
    <glyph glyph-name="one" unicode="1" horiz-adv-x="299" 
d="M44 550q31 21 63.5 48t58.5 56h40v-647h-39v609q-32 -28 -64 -59t-59 -53v46z" />
    <glyph glyph-name="two" unicode="2" horiz-adv-x="446" 
d="M391 13h-336v42q54 81 106 151.5t93.5 131t66.5 107t25 81.5t-11 57.5t-28.5 33.5t-40 14.5t-45.5 3.5q-62 0 -92.5 -32.5t-32.5 -87.5h-39q4 40 19 69t39 48t51.5 27.5t54.5 8.5q29 0 58.5 -5.5t54 -19.5t40 -40t15.5 -65q0 -31 -8 -58t-29 -62t-57.5 -88.5
t-92.5 -133.5l-107 -152h296v-31z" />
    <glyph glyph-name="three" unicode="3" horiz-adv-x="454" 
d="M195 360q2 0 6 -1t9 -1q140 0 140 148q0 60 -28.5 94t-95.5 34q-32 0 -54 -10t-36 -25.5t-20 -37t-6 -48.5h-45q0 66 38.5 109t114.5 43q87 0 131.5 -34.5t44.5 -117.5q0 -28 -4.5 -54.5t-16 -48t-33 -39t-53.5 -22.5v-10q35 -6 56.5 -20t34.5 -36t17 -49t4 -51
q0 -89 -41 -136.5t-123 -47.5q-87 0 -133 37.5t-47 116.5h43q2 -54 32.5 -87.5t92.5 -33.5q40 0 65 10.5t40 28.5t21 43t6 53q0 42 -6 72t-22.5 50.5t-43 30.5t-67.5 10h-21v30z" />
    <glyph glyph-name="four" unicode="4" horiz-adv-x="454" 
d="M297 213v435h-7l-211 -435h218zM339 213h82v-31h-82v-172h-42v172h-253v44l213 443h82v-456z" />
    <glyph glyph-name="five" unicode="5" horiz-adv-x="453" 
d="M240 420q58 0 89.5 -19.5t47 -50t18.5 -65t3 -61.5q0 -41 -5 -82.5t-23.5 -73.5t-52 -50.5t-89.5 -18.5q-85 0 -128.5 37.5t-44.5 114.5h45q1 -57 29 -88t97 -31q43 0 69 16.5t38.5 42.5t16 57.5t3.5 62.5q0 33 -2.5 65t-15.5 56t-39.5 40t-72.5 16q-17 0 -36 -5
t-35.5 -13t-29 -21.5t-19.5 -30.5h-39v345h306v-31h-267v-277q30 41 63 53t74 12z" />
    <glyph glyph-name="six" unicode="6" horiz-adv-x="447" 
d="M349 216q0 82 -26 122t-93 40t-102.5 -44t-35.5 -145q0 -15 4 -42.5t17.5 -52.5t40 -43.5t72.5 -18.5q42 0 67.5 17t37.5 43.5t15 59t3 64.5zM342 529q-5 51 -30.5 79t-82.5 28q-50 0 -78 -21t-40 -54t-14.5 -74t-2.5 -81v-73q9 21 26 37t38 25t43 12t44 3
q51 0 80.5 -19.5t44.5 -47.5t18.5 -55.5t3.5 -44.5q0 -49 -4 -93t-20 -78t-48 -53.5t-88 -19.5q-60 0 -96 16t-54 45t-22.5 70.5t-4.5 88.5v218q0 58 6.5 101.5t26 72.5t54.5 43.5t90 14.5q77 0 113.5 -35.5t39.5 -104.5h-43z" />
    <glyph glyph-name="seven" unicode="7" horiz-adv-x="402" 
d="M33 660h336v-50l-215 -600h-46l223 620h-298v30z" />
    <glyph glyph-name="eight" unicode="8" horiz-adv-x="454" 
d="M230 362q34 0 57 10.5t37 28.5t20 44t6 57t-5.5 57.5t-19 44t-37 27.5t-58.5 10q-39 0 -62.5 -10t-37.5 -27.5t-19.5 -44t-5.5 -57.5t6 -57t20.5 -44t38.5 -28.5t60 -10.5zM293 350q35 -10 56.5 -27t32.5 -38.5t14 -48t3 -53.5q0 -33 -5.5 -65.5t-23.5 -58.5t-51.5 -43
t-88.5 -17q-58 0 -91.5 17t-52.5 43t-25 58.5t-6 65.5q0 27 4 53t15 48t32 38.5t55 26.5q-32 5 -51.5 22t-30 39t-13.5 48.5t-3 53.5q0 20 2.5 48t19 51.5t49.5 40t96 16.5q59 0 92 -16.5t49 -40t19.5 -51.5t3.5 -48q0 -28 -5 -55t-16.5 -48.5t-31 -37.5t-48.5 -21zM230 26
q37 0 61.5 10.5t39 30.5t20 47.5t5.5 60.5q0 26 -2.5 55.5t-16 52.5t-39 37t-68.5 14q-47 0 -73 -14t-39 -37t-16.5 -52.5t-3.5 -55.5q0 -33 6 -60.5t21.5 -47.5t40 -30.5t64.5 -10.5z" />
    <glyph glyph-name="nine" unicode="9" horiz-adv-x="448" 
d="M218 306q48 0 74.5 18.5t39 44t15.5 52.5t3 43q0 34 -2.5 65t-14.5 54.5t-37 38t-73 14.5q-40 0 -65.5 -14.5t-38.5 -37t-17 -51.5t-4 -59q0 -31 3.5 -60.5t16 -54t36 -39t64.5 -14.5zM211 273q-88 0 -122 50t-34 151q0 41 6.5 77t25.5 62t50.5 41t82.5 15q64 0 98 -17
t50.5 -49.5t20.5 -78t4 -105.5v-84q0 -86 -3.5 -150.5t-19.5 -105.5t-49 -60.5t-94 -19.5q-83 0 -121.5 32t-43.5 106h44q2 -49 27 -77t84 -28q50 0 77.5 15.5t41 48.5t15.5 87.5t2 131.5v37q-32 -43 -68 -61t-74 -18z" />
    <glyph glyph-name="colon" unicode=":" horiz-adv-x="285" 
d="M92 361q0 19 14.5 32.5t36.5 13.5q21 0 35.5 -13t14.5 -33q0 -21 -15.5 -35t-34.5 -14q-21 0 -36 14.5t-15 34.5zM92 50q0 19 14.5 32.5t36.5 13.5q21 0 35.5 -13.5t14.5 -32.5q0 -21 -15 -35t-35 -14q-21 0 -36 14.5t-15 34.5z" />
    <glyph glyph-name="semicolon" unicode=";" horiz-adv-x="269" 
d="M85 361q-1 19 12 32.5t38 13.5q21 0 35.5 -13t14.5 -33q0 -21 -15 -35t-35 -14q-21 0 -35.5 14.5t-14.5 34.5zM77 -160q39 44 55 75t16 60q0 5 -0.5 11t-1.5 13q-1 -1 -9 -1h-5q-19 0 -33 10.5t-14 28.5q0 27 16.5 38.5t33.5 11.5q26 0 42 -17t16 -57q0 -49 -26 -99
t-72 -91z" />
    <glyph glyph-name="less" unicode="&#x3c;" horiz-adv-x="544" 
d="M71 205v44l428 157v-29l-404 -150l404 -150v-29z" />
    <glyph glyph-name="equal" unicode="=" horiz-adv-x="544" 
d="M499 155h-425v28h425v-28zM499 346h-425v28h425v-28z" />
    <glyph glyph-name="greater" unicode="&#x3e;" horiz-adv-x="544" 
d="M506 215l-435 -165v29l410 153l-410 146v29l435 -156v-36z" />
    <glyph glyph-name="question" unicode="?" horiz-adv-x="444" 
d="M210 76q18 0 28 -11.5t10 -27.5t-10 -26.5t-28 -10.5q-19 0 -30.5 10t-11.5 27q0 16 11.5 27.5t30.5 11.5zM232 156h-43v72q0 32 20.5 59.5t52.5 57.5q40 36 61 69.5t21 70.5q0 31 -6.5 59t-21 47t-38 30t-57.5 11q-23 0 -45 -8t-39 -23t-27.5 -36t-10.5 -45
q0 -13 4 -29.5t12 -29t20.5 -22.5t29.5 -10q28 0 40 14t12 49q0 5 -0.5 14t-3.5 25h20q8 -18 11.5 -33t3.5 -26q0 -35 -20.5 -56t-62.5 -21q-26 0 -46.5 10.5t-34.5 28.5t-21.5 40t-7.5 46q0 34 13.5 61.5t36.5 47.5t53 30t63 10q83 0 124.5 -51.5t41.5 -132.5
q0 -26 -7.5 -47.5t-21.5 -41t-33 -40.5t-43 -44q-22 -24 -36.5 -41t-14.5 -38q0 -4 1 -5v-72z" />
    <glyph glyph-name="at" unicode="@" horiz-adv-x="843" 
d="M520 464q-10 4 -29 8t-45 4q-40 0 -75.5 -14t-63 -39t-43 -60t-15.5 -77q0 -15 6 -31t16.5 -28t27 -19.5t40.5 -7.5q30 0 56 16t47 39.5t35.5 50.5t19.5 50zM555 41q-43 -22 -89.5 -31.5t-99.5 -9.5q-66 0 -124.5 22.5t-102.5 63.5t-70.5 97.5t-26.5 123.5q0 73 26 138
t74.5 114t119.5 79t162 30q73 0 132 -23.5t100 -63t64 -94t23 -114.5q0 -50 -16 -89t-41.5 -66t-57.5 -40.5t-64 -13.5q-27 0 -51.5 19t-24.5 65v12h-3q-30 -45 -67.5 -70.5t-98.5 -25.5q-21 0 -42 9t-37.5 25.5t-26 39t-9.5 49.5q0 48 19.5 89.5t54 72t79.5 47.5t95 17
q38 0 66 -6t51 -15l-34 -161q-6 -19 -7.5 -34t-1.5 -30q0 -33 12.5 -49.5t34.5 -16.5h3q21 0 42.5 11.5t38 33t27.5 52t11 68.5q0 59 -18.5 107t-55 84.5t-88 56.5t-117.5 20q-67 0 -126.5 -23t-104 -64.5t-70.5 -101t-26 -132.5q0 -61 22 -111.5t60 -87.5t89.5 -57
t109.5 -20q49 0 93 9.5t76 29.5z" />
    <glyph glyph-name="A" unicode="A" horiz-adv-x="612" 
d="M315 674l226 -674h-46l-59 180h-309l-60 -180h-42l228 674h62zM424 216l-141 436l-146 -436h287z" />
    <glyph glyph-name="B" unicode="B" horiz-adv-x="550" 
d="M258 365q40 0 66.5 11t42.5 31.5t22.5 48t6.5 59.5q0 47 -12.5 73t-32.5 38t-43.5 13.5t-44.5 1.5h-141v-276h136zM79 0v674h196q81 0 123 -35.5t42 -120.5q0 -30 -4 -55t-15 -45t-32.5 -34t-64.5 -31q47 -19 70 -33t36.5 -34.5t18.5 -46.5t5 -57q0 -88 -43.5 -135
t-133.5 -47h-198zM122 31h117q87 0 128.5 32.5t41.5 113.5q0 24 -5 52t-19.5 50.5t-43 38t-74.5 15.5h-145v-302z" />
    <glyph glyph-name="C" unicode="C" horiz-adv-x="550" 
d="M280 -13q-79 0 -122.5 29t-63.5 77t-24 111.5t-4 130.5q0 48 1 91.5t7 82t19.5 71.5t37 56t60.5 36.5t89 13.5q61 0 95 -19.5t51 -47t21.5 -58t4.5 -54.5h-44q-1 29 -7.5 55t-21 47t-38.5 34t-61 13q-62 0 -96 -23.5t-50 -65t-19.5 -101t-3.5 -131.5q0 -70 3.5 -128.5
t19.5 -99.5t50 -64t96 -23q33 0 57 11.5t39.5 32.5t23 50t8.5 64h51q-1 -22 -7 -54.5t-25 -62.5t-53.5 -52t-93.5 -22z" />
    <glyph glyph-name="D" unicode="D" horiz-adv-x="612" 
d="M130 31h90q77 0 122.5 12.5t70 50t31 105t6.5 177.5q0 76 -7.5 127t-32 82t-68 43.5t-115.5 12.5h-97v-610zM82 674h189q74 0 118 -20t67.5 -63t30.5 -107t7 -151q0 -83 -9 -145.5t-36 -104t-76.5 -62.5t-129.5 -21h-161v674z" />
    <glyph glyph-name="E" unicode="E" 
d="M400 674v-33h-270v-278h258v-33h-258v-299h278v-31h-324v674h316z" />
    <glyph glyph-name="F" unicode="F" horiz-adv-x="428" 
d="M79 674h292v-33h-249v-278h230v-33h-230v-330h-43v674z" />
    <glyph glyph-name="G" unicode="G" horiz-adv-x="612" 
d="M433 311h-149v31h193v-329q-49 -13 -97 -19.5t-96 -6.5q-76 0 -119.5 28t-64.5 71t-26 95t-5 101v109q0 49 5 101t26 95.5t64.5 71t119.5 27.5q98 0 149.5 -39.5t51.5 -130.5h-44q-2 70 -38.5 105t-118.5 35q-63 0 -97.5 -23.5t-51 -64t-19.5 -97t-3 -122.5v-42
q0 -63 4 -115.5t20.5 -90.5t50.5 -59.5t96 -21.5q44 0 81 5t68 16v270z" />
    <glyph glyph-name="H" unicode="H" horiz-adv-x="612" 
d="M80 0v674h47v-311h314v311h44v-674h-44v330h-314v-330h-47z" />
    <glyph glyph-name="I" unicode="I" horiz-adv-x="244" 
d="M135 674v-674h-45v674h45z" />
    <glyph glyph-name="J" unicode="J" 
d="M76 177q0 -31 4 -59t16.5 -50t36.5 -35t65 -13q24 0 47 6t41 21t28 40t10 61v526h43v-535q0 -38 -11 -63.5t-28 -43t-38 -26.5t-39.5 -13.5t-33.5 -5t-20 -0.5q-55 0 -88 16.5t-50.5 43t-23 60t-5.5 70.5h46z" />
    <glyph glyph-name="K" unicode="K" horiz-adv-x="550" 
d="M148 358l266 316h51l-275 -313l285 -361h-56zM133 377l15 -19l-15 -20v-338h-46v674h46v-297z" />
    <glyph glyph-name="L" unicode="L" horiz-adv-x="428" 
d="M78 0v674h43v-643h246v-31h-289z" />
    <glyph glyph-name="M" unicode="M" horiz-adv-x="856" 
d="M82 0v674h90l227 -650l228 650h83v-674h-41v628l-20 2l-220 -630h-60l-225 630l-21 -2v-628h-41z" />
    <glyph glyph-name="N" unicode="N" horiz-adv-x="672" 
d="M88 0v674h70l335 -643v643h39v-674h-66l-335 659v-659h-43z" />
    <glyph glyph-name="O" unicode="O" horiz-adv-x="612" 
d="M113 335q0 -70 3 -128.5t19.5 -99.5t51 -64t97.5 -23q62 0 97 23t50.5 64t18 99.5t2.5 128.5q0 72 -2.5 131.5t-18 101t-50.5 65t-97 23.5q-63 0 -97.5 -23.5t-51 -65t-19.5 -101t-3 -131.5zM69 335q0 48 1 91.5t7.5 82t19.5 71.5t36.5 56t60.5 36.5t90 13.5
q79 0 122.5 -29t63.5 -77t23.5 -111.5t3.5 -133.5q0 -67 -3.5 -130.5t-23.5 -111.5t-63.5 -77t-122.5 -29t-122.5 29t-64 77t-24.5 111.5t-4 130.5z" />
    <glyph glyph-name="P" unicode="P" 
d="M75 674h192q21 0 48 -3.5t50 -18.5t39 -47t16 -89q0 -100 -37.5 -146.5t-128.5 -46.5h-135v-323h-44v674zM119 354h132q28 0 51.5 7.5t40 24.5t25 45.5t8.5 72.5q0 47 -10.5 74.5t-28 42.5t-40.5 17.5t-47 2.5h-131v-287z" />
    <glyph glyph-name="Q" unicode="Q" horiz-adv-x="612" 
d="M283 26q56 0 89.5 23.5t51 64.5t23 97.5t5.5 123.5q0 70 -2 128t-17.5 101t-50 67.5t-99.5 24.5q-63 0 -97 -23.5t-50 -64t-19.5 -97t-3.5 -122.5q0 -81 4.5 -141.5t21.5 -100.5t50.5 -60.5t93.5 -20.5zM69 391q0 49 5 101t26 95.5t64 71t119 27.5q50 0 86 -13t59.5 -35
t37.5 -51t21 -62t8.5 -66.5t1.5 -67.5v-56q0 -66 -4.5 -113.5t-16.5 -83t-33.5 -60.5t-54.5 -46q32 0 77 -0.5t79 -0.5v-31h-131q-26 0 -48 -2t-50 -2q-92 0 -142 23t-73 67t-27 107t-4 142v56z" />
    <glyph glyph-name="R" unicode="R" horiz-adv-x="550" 
d="M122 334v-334h-43v674h194q49 0 82 -8t52 -27t26.5 -48.5t7.5 -72.5q0 -31 -4 -56.5t-15.5 -45.5t-33.5 -33.5t-64 -31.5l64.5 -25.5t32 -35.5t13 -77.5t2.5 -139.5q0 -15 1 -28.5t3 -23.5l2 -21h-43q-2 12 -3.5 34t-2 46.5t-1 47.5t-0.5 36v31q0 20 -4 44t-18 45.5
t-41 35.5t-73 14h-134zM122 369h118q39 0 69 6.5t49.5 22.5t29 45t9.5 75q0 39 -8 63t-24.5 38.5t-41 18t-55.5 3.5h-146v-272z" />
    <glyph glyph-name="S" unicode="S" horiz-adv-x="550" 
d="M397 518q-2 32 -8 57.5t-21.5 43.5t-41.5 27.5t-65 9.5q-66 0 -103.5 -25.5t-37.5 -93.5q0 -33 6 -54t18 -36t29.5 -26.5t39.5 -23.5v1l51 -31q33 -22 66 -39t58.5 -38.5t41.5 -51.5t16 -76q0 -175 -190 -175q-99 0 -145.5 49t-46.5 140h47q0 -31 4.5 -59t19.5 -49.5
t44.5 -34.5t81.5 -13q70 0 104.5 33.5t34.5 98.5q0 33 -9.5 57t-29 43t-47 34.5t-61.5 36.5l-33 20q-46 28 -74.5 51.5t-44 45.5t-20.5 43t-5 44q0 85 51 122t139 37q53 0 86.5 -13.5t53.5 -36t28 -53.5t9 -65h-46z" />
    <glyph glyph-name="T" unicode="T" 
d="M202 641h-179v33h407v-33h-182v-641h-46v641z" />
    <glyph glyph-name="U" unicode="U" horiz-adv-x="612" 
d="M120 248q0 -36 2.5 -76t18 -73.5t48.5 -56t95 -22.5q60 0 93.5 22.5t48.5 56t18 73.5t3 76v426h44v-472q0 -65 -17 -106.5t-45.5 -65t-66.5 -33.5t-78 -10q-42 0 -79.5 10t-65.5 33.5t-45 65t-17 106.5v472h43v-426z" />
    <glyph glyph-name="V" unicode="V" horiz-adv-x="550" 
d="M448 674h42l-208 -674h-55l-206 674h46l185 -650z" />
    <glyph glyph-name="W" unicode="W" horiz-adv-x="916" 
d="M388 674h71l158 -645l170 645h42l-178 -674h-70l-157 660l-167 -660h-64l-174 674h47l160 -648z" />
    <glyph glyph-name="X" unicode="X" horiz-adv-x="550" 
d="M85 674l166 -302l170 302h44l-185 -326l204 -348h-53l-183 329l-178 -329h-46l195 348l-181 326h47z" />
    <glyph glyph-name="Y" unicode="Y" horiz-adv-x="550" 
d="M232 280l-204 394h51l175 -357l186 357h42l-206 -394v-280h-44v280z" />
    <glyph glyph-name="Z" unicode="Z" 
d="M416 674v-57l-345 -586h348v-31h-387v55l349 586h-328v33h363z" />
    <glyph glyph-name="bracketleft" unicode="[" horiz-adv-x="297" 
d="M99 -224v906h203v-30h-165v-848h165v-28h-203z" />
    <glyph glyph-name="backslash" unicode="\" horiz-adv-x="254" 
d="M200 -139l-199 808h51l196 -808h-48z" />
    <glyph glyph-name="bracketright" unicode="]" horiz-adv-x="297" 
d="M198 682v-908h-204v29h165v849h-165v30h204z" />
    <glyph glyph-name="asciicircum" unicode="^" horiz-adv-x="656" 
d="M527 219l-198 427h-2l-198 -427h-52l225 474h51l226 -474h-52z" />
    <glyph glyph-name="underscore" unicode="_" horiz-adv-x="550" 
d="M550 -77v-41h-550v41h550z" />
    <glyph glyph-name="grave" unicode="`" horiz-adv-x="330" 
d="M113 682l100 -146h-41l-140 146h81z" />
    <glyph glyph-name="a" unicode="a" 
d="M346 78q-25 -46 -71 -67.5t-92 -21.5q-69 0 -103.5 36.5t-34.5 94.5q0 50 23 79t58.5 43t78.5 18t82 5l55 2v49q0 56 -24.5 89t-94.5 33q-46 0 -78.5 -21.5t-37.5 -61.5h-44q3 30 17.5 50t37 32.5t51 18.5t60.5 6q19 0 45 -2.5t50.5 -13.5t41.5 -35t17 -65v-262
q0 -11 0.5 -23.5t1.5 -27t4 -33.5h-43v78zM342 239h-52q-35 0 -70 -3.5t-64 -15t-47.5 -34t-18.5 -64.5q0 -21 6.5 -39.5t20 -34t33.5 -24t47 -8.5q31 0 57 15.5t46 36t31 42t11 36.5v93z" />
    <glyph glyph-name="b" unicode="b" 
d="M118 233q0 -28 2.5 -66t14 -71t36.5 -56.5t68 -23.5q47 0 73 17t38.5 45t15.5 65t3 80q0 44 -3 83t-15.5 69t-38.5 46.5t-73 16.5q-39 0 -62.5 -21.5t-36.5 -53t-17.5 -66.5t-4.5 -64zM69 0q4 18 4 35v622h40v-296q12 36 29 56.5t36.5 30.5t40.5 12t42 2q51 0 81 -19
t45 -48.5t18.5 -64.5t3.5 -67v-37q0 -38 -3 -79t-18.5 -77t-46.5 -58.5t-85 -22.5q-21 0 -43.5 4.5t-42 14.5t-35.5 26t-24 37q0 -14 -1 -35.5t-1 -35.5h-40z" />
    <glyph glyph-name="c" unicode="c" horiz-adv-x="428" 
d="M308 337q0 47 -22.5 74t-83.5 27q-38 0 -60 -16t-33.5 -43t-15 -59t-3.5 -59v-52q0 -34 3 -67.5t14.5 -61.5t33 -46t59.5 -18q34 0 54.5 8t32 23t16 33.5t6.5 39.5h42q-1 -41 -16.5 -65.5t-36.5 -39.5t-43.5 -20.5t-37.5 -5.5q-64 0 -98.5 21t-50.5 54.5t-19 75.5t-3 83
q0 43 2.5 85t17.5 76t48.5 56t97.5 22q63 0 100.5 -28.5t37.5 -96.5h-42z" />
    <glyph glyph-name="d" unicode="d" 
d="M218 20q25 0 48 7.5t40 27t27.5 51t10.5 78.5q0 44 -1.5 88.5t-13.5 80t-38 59t-75 23.5q-47 0 -72.5 -16t-37 -45t-14 -68t-2.5 -83q0 -68 9.5 -109t26.5 -62t40.5 -26.5t51.5 -5.5zM350 78q-9 -25 -25 -41.5t-36.5 -27.5t-43.5 -15.5t-44 -4.5q-54 0 -84 21.5t-45 56.5
t-18.5 77t-3.5 82q0 34 2.5 74.5t17 76.5t45 60.5t87.5 24.5q18 0 38.5 -3.5t40 -11.5t36 -22.5t26.5 -38.5q0 31 0.5 65.5t0.5 69t0.5 69.5t0.5 67h42v-573q0 -31 1 -51t4 -33h-40z" />
    <glyph glyph-name="e" unicode="e" 
d="M97 223v-46q0 -25 5.5 -54t19.5 -52t40 -39t68 -16q63 0 93.5 29.5t32.5 77.5h44q-3 -36 -16 -62.5t-35.5 -42t-52.5 -22.5t-66 -7q-33 0 -64.5 7.5t-55.5 26.5t-39 52t-15 82v115q0 100 44 145t130 45q63 0 97.5 -18.5t51 -50.5t20 -76t3.5 -94h-305zM360 251
q0 43 -5 78t-19.5 58.5t-39.5 37t-66 13.5q-42 0 -68 -13.5t-40 -37t-19.5 -58.5t-5.5 -78h263z" />
    <glyph glyph-name="f" unicode="f" horiz-adv-x="306" 
d="M113 428h-85v25h85v89q0 16 3 36t15.5 38.5t37.5 30.5t70 12l24 -1v-30h-35q-28 0 -43 -9.5t-22 -22t-8 -27.5t-1 -26v-90h108v-25h-108v-428h-41v428z" />
    <glyph glyph-name="g" unicode="g" 
d="M350 453h39q-2 -11 -2 -20v-458q0 -39 -7.5 -68t-27.5 -49t-54.5 -30t-88.5 -10q-43 0 -71 10.5t-44.5 27t-22.5 36t-6 36.5h41q1 -41 31.5 -63.5t79.5 -22.5q48 0 74.5 11t38.5 33.5t13.5 57.5t1.5 86v55q-10 -27 -26.5 -42t-36.5 -24t-41 -10.5t-39 -1.5
q-54 0 -84 18.5t-45.5 49t-19 67.5t-3.5 76q0 40 0.5 63t2 37.5t5 27t8.5 30.5q2 8 10 21.5t24 28t41.5 25.5t63.5 11q19 0 40.5 -5t41.5 -14.5t36.5 -23.5t26.5 -35v69zM215 436q-47 0 -71.5 -21t-36.5 -51.5t-14.5 -64.5t-2.5 -61q0 -40 2.5 -77t14 -65t37 -46t73.5 -18
q21 0 38.5 6t31.5 15t23.5 18t13.5 18q7 14 11 27.5t6 35t2.5 54.5t0.5 84q0 40 -11 68t-29 45t-41.5 25t-47.5 8z" />
    <glyph glyph-name="h" unicode="h" 
d="M70 0v657h41v-284q8 27 24 43.5t35.5 26.5t41 14.5t41.5 4.5q46 0 73 -14.5t41 -34.5t17.5 -44.5t3.5 -45.5v-323h-42v320q0 23 -5.5 44t-18.5 36.5t-33.5 25t-49.5 9.5q-24 0 -47 -9t-41 -28.5t-29 -50t-11 -74.5v-273h-41z" />
    <glyph glyph-name="i" unicode="i" horiz-adv-x="244" 
d="M91 0v466h45v-466h-45zM85 605v52h56l1 -52h-57z" />
    <glyph glyph-name="j" unicode="j" horiz-adv-x="244" 
d="M142 468v-564q0 -13 -3.5 -27.5t-13 -28t-28.5 -22t-50 -8.5h-20.5t-13.5 2v27q6 -1 9.5 -1h8.5q24 0 37 5t20 16t8 27t1 38v536h45zM91 605v52h55v-52h-55z" />
    <glyph glyph-name="k" unicode="k" horiz-adv-x="428" 
d="M73 657h40v-433l3 3l-3 -227h-40v657zM135 252l181 201h45l-178 -200l193 -253h-54zM116 278l19 -26l-19 -25v51z" />
    <glyph glyph-name="l" unicode="l" horiz-adv-x="244" 
d="M94 0v657h41v-657h-41z" />
    <glyph glyph-name="m" unicode="m" horiz-adv-x="734" 
d="M107 0h-41v453h34v-82q8 22 23.5 39.5t34.5 28.5t40.5 17t42.5 6q38 0 70 -22t48 -68q6 28 20.5 44.5t33 26.5t40 14.5t41.5 4.5q60 0 92 -33.5t34 -85.5v-343h-40v327q0 19 -5 39t-15.5 35t-28.5 24.5t-45 9.5q-33 0 -56.5 -13.5t-38 -34.5t-21 -46t-6.5 -51v-290h-41
v327q-1 19 -6 39t-15.5 35t-28 24.5t-43.5 9.5q-33 0 -56.5 -13.5t-38.5 -34.5t-21.5 -46t-6.5 -51v-290z" />
    <glyph glyph-name="n" unicode="n" 
d="M111 0h-41v453h41v-80q8 27 24 43t35.5 26.5t41 15t41.5 4.5q46 0 73 -14.5t41 -34.5t17.5 -44.5t3.5 -45.5v-323h-42v320q0 23 -5.5 44t-18.5 36.5t-33.5 25.5t-49.5 10q-24 0 -47 -10.5t-41 -31.5t-29 -52.5t-11 -74.5v-267z" />
    <glyph glyph-name="o" unicode="o" 
d="M230 -11q-90 0 -132 49.5t-42 136.5v102q0 88 42 136.5t132 48.5q89 0 130.5 -48.5t41.5 -136.5v-102q0 -87 -41.5 -136.5t-130.5 -49.5zM230 436q-43 0 -69.5 -14.5t-40.5 -42t-18.5 -66.5t-4.5 -87q0 -49 4.5 -87t18.5 -65t40.5 -41t69.5 -14t68.5 14t39 41t18 65
t4.5 87q0 48 -4.5 87t-18 66.5t-39 42t-68.5 14.5z" />
    <glyph glyph-name="p" unicode="p" 
d="M117 185q0 -43 9.5 -74.5t26 -52t38.5 -29.5t48 -9q41 0 67 14t40 40.5t18.5 64.5t4.5 87q0 48 -4.5 87t-18.5 66.5t-40 41.5t-67 14q-19 0 -40 -8.5t-39.5 -27.5t-30.5 -51t-12 -81v-82zM111 373q10 29 28 45.5t38.5 26t41 13.5t34.5 4q58 0 89.5 -20.5t46.5 -48.5
t17.5 -59.5t2.5 -53.5v-105q0 -44 -8.5 -77.5t-29 -58.5t-53 -37.5t-79.5 -12.5q-16 0 -34 2.5t-35 12t-32 26.5t-22 43q0 -27 -1 -59t-1 -65t-0.5 -66t-0.5 -61h-40v631h38v-80z" />
    <glyph glyph-name="q" unicode="q" 
d="M216 19q48 0 74 16.5t38 45.5t14 66t2 76q0 42 -2 80.5t-14 67.5t-38 47t-74 18q-43 0 -68.5 -21t-38.5 -52.5t-17 -66t-4 -63.5q0 -28 2 -65.5t14 -70.5t37.5 -55.5t74.5 -22.5zM391 453q-4 -17 -4 -38v-593h-42v251q-6 -27 -22.5 -44t-38 -26t-45 -11.5t-44.5 -2.5
q-52 0 -81 20t-44 49t-19 63.5t-4 65.5v37q0 39 4 80.5t19.5 76t46 58t84.5 23.5q21 0 43 -4t42 -12t36 -22t26 -36q0 15 1 33.5t1 31.5h41z" />
    <glyph glyph-name="r" unicode="r" horiz-adv-x="306" 
d="M118 375q10 21 26.5 37t36.5 26.5t42 16.5t43 7v-36q-69 0 -108.5 -33t-39.5 -98v-295h-41v453h41v-78z" />
    <glyph glyph-name="s" unicode="s" horiz-adv-x="428" 
d="M348 116q0 -64 -38 -95.5t-110 -31.5q-79 0 -113 31.5t-34 99.5h42q1 -24 6 -43.5t17 -33t33 -22t53 -8.5q54 0 78 24.5t24 70.5q0 32 -17.5 53t-44.5 36t-58 28t-58 28.5t-44.5 39.5t-17.5 61q0 31 11.5 51.5t32 32.5t48 18t59.5 6q34 0 58 -9.5t39 -26t22 -37t8 -43.5
h-40q-4 45 -25.5 68.5t-79.5 23.5q-41 0 -66.5 -22t-25.5 -57q0 -32 17.5 -51.5t44.5 -33.5t58 -27.5t58 -30.5t45 -40.5t18 -59.5z" />
    <glyph glyph-name="t" unicode="t" horiz-adv-x="306" 
d="M25 428v25h85v101l41 15v-116h107v-25h-107v-312q0 -32 2.5 -50t12.5 -26.5t28.5 -11.5t50.5 -3q9 0 13 3v-28q-5 -2 -10 -2h-8q-39 0 -63.5 4.5t-39.5 13.5t-21 24t-6 38v350h-85z" />
    <glyph glyph-name="u" unicode="u" 
d="M384 453v-453h-33v70q-25 -46 -66.5 -63.5t-82.5 -17.5q-38 0 -62 11.5t-39 31.5t-20.5 45t-5.5 52v324h41v-316q0 -1 0.5 -19.5t8.5 -40.5t29 -39.5t62 -17.5q34 0 58.5 13.5t39.5 32.5t22 39t7 34v314h41z" />
    <glyph glyph-name="v" unicode="v" horiz-adv-x="428" 
d="M201 25l143 428h37l-152 -453h-55l-153 453h44z" />
    <glyph glyph-name="w" unicode="w" horiz-adv-x="734" 
d="M16 453h45l127 -428l124 428h61l128 -428l129 428h41l-141 -453h-61l-126 416l-123 -416h-62z" />
    <glyph glyph-name="x" unicode="x" horiz-adv-x="428" 
d="M177 242l-127 211h50l104 -191l114 191h43l-138 -211l152 -242h-51l-125 217l-129 -217h-42z" />
    <glyph glyph-name="y" unicode="y" horiz-adv-x="428" 
d="M186 -11l-165 464h44l139 -416l138 416h39l-216 -631h-38z" />
    <glyph glyph-name="z" unicode="z" horiz-adv-x="366" 
d="M36 32l230 396h-218v25h252v-35l-223 -393h229v-25h-270v32z" />
    <glyph glyph-name="braceleft" unicode="{" horiz-adv-x="297" 
d="M22 256h7q29 0 48 8t28 20.5t12.5 28.5t3.5 33q0 50 -11.5 98.5t-11.5 97.5q0 82 47.5 118.5t120.5 36.5h14v-44h-20q-64 0 -88.5 -30t-24.5 -87q0 -44 11 -90t11 -94q0 -44 -19.5 -74t-50.5 -40v-4q31 -8 50.5 -42t19.5 -75q0 -47 -11 -92t-11 -93q0 -119 113 -119h20
v-44h-14q-35 0 -66.5 9t-54 28.5t-35 51.5t-12.5 79q0 48 11.5 94t11.5 91q0 15 -3.5 31t-13 29.5t-29 22t-50.5 8.5h-3v43z" />
    <glyph glyph-name="bar" unicode="|" horiz-adv-x="47" 
d="M47 692v-923h-47v923h47z" />
    <glyph glyph-name="braceright" unicode="}" horiz-adv-x="297" 
d="M271 213h-5q-31 0 -48.5 -8.5t-27.5 -22t-13 -29.5t-3 -31q0 -44 11.5 -90.5t11.5 -94.5q0 -47 -12.5 -78.5t-35 -51.5t-53 -29t-65.5 -9h-15v44h21q110 0 110 119q0 48 -11 93t-11 92q0 41 19.5 75t51.5 42v4q-31 10 -51 40t-20 74q0 48 11 94t11 90q0 57 -24 87t-86 30
h-21v44h15q71 0 118.5 -36.5t47.5 -118.5q0 -50 -11.5 -98.5t-11.5 -97.5q0 -17 2.5 -33t12.5 -28.5t27.5 -20.5t47.5 -8h7v-43z" />
    <glyph glyph-name="asciitilde" unicode="~" horiz-adv-x="656" 
d="M46 164v11q0 31 10 55t27 40t39 25t46 9q16 0 30.5 -2.5t33 -8.5t42 -15t57.5 -22q46 -17 85 -32t78 -15q74 0 74 93h41q0 -2 0.5 -5t0.5 -7q0 -34 -11 -58.5t-28 -39.5t-38 -22t-42 -7q-15 0 -29.5 2t-34.5 7t-46 14.5t-60 23.5q-43 18 -79 33t-74 15q-79 0 -79 -94h-43
z" />
    <glyph glyph-name="currency" unicode="&#xa4;" horiz-adv-x="583" 
d="M291 436q42 0 77 -13t57 -32l78 71l34 -32l-82 -67q19 -21 31.5 -55t12.5 -69q0 -45 -12.5 -80.5t-28.5 -51.5l74 -72l-34 -33l-73 74q-28 -24 -65 -34.5t-73 -10.5q-38 0 -73 10.5t-59 28.5l-71 -68l-32 33l70 66q-20 17 -33 53t-13 74q0 44 14.5 78t36.5 57l-75 66
l34 33l71 -71q26 19 60.5 32t72.5 13h1zM286 394q-40 0 -69.5 -14.5t-49.5 -37t-30 -51.5t-10 -60q0 -45 15.5 -76t40 -49.5t52.5 -27t51 -8.5q26 0 55.5 8t53 27t39 51t15.5 82q0 24 -9.5 52t-29 51t-50 38t-73.5 15h-1z" />
    <glyph glyph-name="brokenbar" unicode="&#xa6;" horiz-adv-x="242" 
d="M148 682v-380h-40v380h40zM148 174v-398h-40v398h40z" />
    <glyph glyph-name="section" unicode="&#xa7;" horiz-adv-x="473" 
d="M326 519q0 36 -7.5 59.5t-20 37t-30.5 19t-40 5.5q-6 0 -21.5 -1.5t-32 -10t-29.5 -26t-13 -50.5q0 -26 8 -42t26 -29t46 -26.5t70 -33.5q31 -14 57.5 -30t45.5 -37t29 -48.5t10 -63.5q0 -42 -12.5 -70.5t-29.5 -48.5t-38 -31.5t-37 -17.5q39 -20 51 -51t12 -60
q0 -27 -8.5 -52t-26 -44t-43.5 -30t-62 -11q-46 0 -74.5 16t-44.5 41.5t-21.5 55t-5.5 58.5h38q0 -16 3.5 -37.5t15 -42t32.5 -35t57 -14.5q19 0 36.5 5t31 16t22.5 29t9 42q0 27 -10.5 45t-28.5 29.5t-43 22t-53 25.5q-80 36 -119 80.5t-39 115.5q0 41 11.5 69.5t29.5 47.5
t39 29.5t40 16.5q-38 22 -51.5 50t-13.5 67q0 35 13 59.5t33 39t44.5 20t47.5 5.5q27 0 52 -8.5t43 -26.5t28.5 -48.5t10.5 -74.5v-5h-37zM263 98q41 12 64.5 32t35 40t14.5 39t3 30q0 34 -10 57.5t-33.5 42.5t-58.5 36.5t-85 39.5q-19 -4 -39 -12t-37 -24t-27.5 -39.5
t-10.5 -59.5q0 -34 9.5 -58t31.5 -44.5t56.5 -38.5t86.5 -41z" />
    <glyph glyph-name="copyright" unicode="&#xa9;" horiz-adv-x="880" 
d="M55 344q0 67 26.5 126t72 103t107 70t133.5 26q70 0 131.5 -26t108.5 -69.5t73.5 -102t26.5 -127.5q0 -66 -26.5 -124.5t-73.5 -102.5t-108.5 -69.5t-131.5 -25.5q-72 0 -133.5 25.5t-107 70t-72 103t-26.5 123.5zM94 344q0 -60 23.5 -113.5t63.5 -94t94.5 -63
t118.5 -22.5q61 0 116 22.5t96.5 63t65 94t23.5 113.5q0 63 -24 117t-65.5 94t-96.5 62.5t-115 22.5q-63 0 -117.5 -22.5t-95 -63t-64 -94t-23.5 -116.5zM538 297q-3 -13 -10 -32.5t-21.5 -38t-40.5 -32.5t-68 -14q-76 0 -118 42.5t-42 122.5q0 83 38.5 129t117.5 46
q27 0 52 -7.5t44 -20.5t30.5 -33t12.5 -45h-42q-3 27 -24 50.5t-73 23.5q-41 0 -63.5 -18t-33.5 -41t-13 -46.5t-2 -37.5q0 -47 15 -74t34.5 -39.5t39.5 -15.5t28 -3q29 0 47 10t28.5 23.5t15 27t5.5 23.5h43z" />
    <glyph glyph-name="guillemotleft" unicode="&#xab;" horiz-adv-x="537" 
d="M343 194l128 -192h-42l-153 192l154 191h41zM144 194l128 -192h-41l-154 192l155 191h40z" />
    <glyph glyph-name="logicalnot" unicode="&#xac;" horiz-adv-x="656" 
d="M612 326v-265h-49v223h-519v42h568z" />
    <glyph glyph-name="uni00AD" unicode="&#xad;" horiz-adv-x="396" 
d="M24 218v44h368v-44h-368z" />
    <glyph glyph-name="registered" unicode="&#xae;" horiz-adv-x="880" 
d="M55 345q0 68 27.5 126.5t75 102.5t111.5 69.5t136 25.5t136.5 -25.5t111.5 -69.5t74.5 -102.5t27.5 -126.5q0 -66 -27.5 -125t-74.5 -103t-111.5 -69t-136.5 -25t-136 25t-111.5 69t-75 103t-27.5 125zM95 345q0 -60 24.5 -114t66.5 -94t98.5 -63t120.5 -23
q65 0 121.5 23t98.5 63t66 93.5t24 114.5q0 63 -24 116.5t-66 93.5t-98.5 62.5t-121.5 22.5q-63 0 -119.5 -22.5t-99 -62.5t-67 -94t-24.5 -116zM277 509h151q41 0 65 -10.5t36 -24.5t15 -30t3 -28q0 -18 -6 -31t-15 -22.5t-19 -14.5t-20 -9v-1q31 -8 40 -29t11 -45
q1 -19 1.5 -31t1 -19.5t3.5 -13.5t8 -12h-47q-4 5 -6.5 9t-4 12t-2 20t-0.5 32q-1 11 -3 22t-9 19t-22 14t-43 6h-94v-134h-44v321zM321 353h96q15 0 30.5 4t27.5 11.5t19 19.5t7 28q0 20 -8 32t-21 18.5t-29.5 9.5t-32.5 3h-89v-126z" />
    <glyph glyph-name="macron" unicode="&#xaf;" horiz-adv-x="658" 
d="M-12 646v44h714v-44h-714z" />
    <glyph glyph-name="degree" unicode="&#xb0;" horiz-adv-x="477" 
d="M118 554q0 -24 10.5 -43.5t28 -34t41 -22t48.5 -7.5q27 0 50.5 7.5t41 22t28 34t10.5 43.5q0 21 -10.5 41t-28 34t-41 22.5t-50.5 8.5q-25 0 -48.5 -8.5t-41 -22.5t-28 -34t-10.5 -41zM90 554q0 28 13 52.5t34 43t49.5 29.5t59.5 11q32 0 60.5 -11t50 -29.5t34.5 -43
t13 -52.5q0 -29 -13 -54.5t-34.5 -44t-50 -29t-60.5 -10.5q-29 0 -57 10.5t-50 28.5t-35.5 44t-13.5 55z" />
    <glyph glyph-name="plusminus" unicode="&#xb1;" horiz-adv-x="656" 
d="M352 516v-216h260v-42h-260v-225h-48v225h-260v42h260v216h48zM612 -34v-42h-568v42h568z" />
    <glyph glyph-name="acute" unicode="&#xb4;" horiz-adv-x="396" 
d="M161 565l70 125h96l-114 -125h-52z" />
    <glyph glyph-name="paragraph" unicode="&#xb6;" horiz-adv-x="583" 
d="M290 -66v323h-10q-41 0 -84 12.5t-78.5 37.5t-57.5 63t-22 92q0 39 13.5 79t48 73.5t94 54.5t152.5 21q50 0 77.5 -2.5t44.5 -5.5v-748h-48v714h-82v-714h-48z" />
    <glyph glyph-name="periodcentered" unicode="&#xb7;" horiz-adv-x="220" 
d="M74 169v68h71v-68h-71z" />
    <glyph glyph-name="ordmasculine" unicode="&#xba;" horiz-adv-x="330" 
d="M167 640q33 0 57.5 -10.5t40 -27.5t24 -38.5t8.5 -44.5q0 -31 -12 -54.5t-31.5 -40.5t-43 -25t-47.5 -8q-30 0 -54 9.5t-41 26t-26 38t-9 45.5q0 28 10.5 52t28.5 41t42.5 27t51.5 10h1zM163 606q-26 0 -42 -9t-26.5 -23t-15 -30.5t-4.5 -31.5q0 -38 25 -62t64 -24
q38 0 64.5 25t26.5 66q0 12 -3.5 27t-13.5 29t-28.5 23.5t-45.5 9.5h-1z" />
    <glyph glyph-name="guillemotright" unicode="&#xbb;" horiz-adv-x="537" 
d="M216 193l-128 191h42l153 -193l-153 -190h-42zM415 193l-127 191h40l152 -191l-152 -192h-40z" />
    <glyph glyph-name="Agrave" unicode="&#xc0;" horiz-adv-x="612" 
d="M223 722l92 -124h-43l-128 124h79zM285 577l203 -577h-47l-54 155h-273l-51 -155h-44l205 577h61zM375 187l-124 360l-122 -360h246z" />
    <glyph glyph-name="Aacute" unicode="&#xc1;" horiz-adv-x="612" 
d="M258 616l64 106h62l-74 -106h-52zM286 577l202 -577h-47l-54 155h-269l-52 -155h-44l205 577h59zM375 187l-122 360l-121 -360h243z" />
    <glyph glyph-name="Acircumflex" unicode="&#xc2;" horiz-adv-x="612" 
d="M177 619h-42l94 103h54l92 -103h-40l-81 88zM286 577l202 -577h-47l-54 155h-269l-52 -155h-44l205 577h59zM375 187l-122 360l-121 -360h243z" />
    <glyph glyph-name="Atilde" unicode="&#xc3;" horiz-adv-x="612" 
d="M98 638q18 49 40.5 66.5t56.5 17.5q15 0 32 -5t39 -14l16 -6q36 -14 59 -14q21 0 33 8.5t19 30.5h40q-7 -43 -31.5 -63t-57.5 -20q-12 0 -32.5 6.5t-41.5 14.5t-41 14t-30 6q-46 0 -58 -42h-43zM286 579l202 -579h-47l-54 156h-269l-52 -156h-44l205 579h59zM375 187
l-122 361l-121 -361h243z" />
    <glyph glyph-name="Adieresis" unicode="&#xc4;" horiz-adv-x="612" 
d="M285 584l203 -584h-47l-54 156h-271l-52 -156h-44l206 584h59zM375 189l-122 364l-123 -364h245zM158 722h44v-71h-44v71zM304 722h46v-71h-46v71z" />
    <glyph glyph-name="Aring" unicode="&#xc5;" horiz-adv-x="612" 
d="M213 680q0 16 8 30.5t21 25t31 17.5t39 7q20 0 37.5 -7t31 -17.5t21.5 -25.5t8 -31q0 -37 -29 -60.5t-68 -23.5q-45 0 -72.5 24t-27.5 61zM254 680q0 -16 14.5 -32.5t48.5 -16.5q27 0 40 15.5t13 32.5q0 16 -14 30.5t-43 14.5q-28 0 -43.5 -13t-15.5 -31zM285 563
l203 -563h-47l-54 152h-271l-52 -152h-44l206 563h59zM375 183l-123 350l-122 -350h245z" />
    <glyph glyph-name="AE" unicode="&#xc6;" horiz-adv-x="856" 
d="M20 0l297 607h345v-33h-263l25 -246h228v-33h-225l25 -262h222v-33h-263l-16 163h-250l-80 -163h-45zM163 197h229l-39 380z" />
    <glyph glyph-name="Ccedilla" unicode="&#xc7;" horiz-adv-x="550" 
d="M362 451q-1 26 -6.5 50.5t-17.5 42.5t-33.5 29t-54.5 11q-55 0 -85 -20.5t-43.5 -56.5t-16.5 -88.5t-3 -116.5q0 -62 3 -114t16.5 -88t43.5 -56t85 -20q57 0 83.5 39.5t28.5 103.5h52q-1 -22 -7.5 -52.5t-24 -58.5t-50.5 -48t-89 -20q-2 0 -3 1l-42 -48l45 2q25 0 45 -14
t20 -45q0 -17 -8.5 -29t-21.5 -20t-30.5 -10.5t-37.5 -2.5q-36 0 -75 12l10 17q31 -11 54 -11t45 9.5t22 34.5q0 22 -16.5 31.5t-36.5 9.5q-8 0 -16.5 -1t-16.5 -5l-8 6l50 64q-63 10 -96.5 39t-48.5 71.5t-18 94.5t-3 108q0 63 3.5 120.5t21.5 100.5t57.5 69t111.5 26
q55 0 86 -17.5t47 -43t20 -54.5t4 -52h-45z" />
    <glyph glyph-name="Egrave" unicode="&#xc8;" 
d="M197 722l91 -124h-45l-123 124h77zM361 577v-30h-238v-235h227v-32h-227v-248h246v-32h-292v577h284z" />
    <glyph glyph-name="Eacute" unicode="&#xc9;" 
d="M196 616l65 106h93l-105 -106h-53zM361 577v-30h-241v-235h230v-32h-230v-248h249v-32h-295v577h287z" />
    <glyph glyph-name="Ecircumflex" unicode="&#xca;" 
d="M124 619h-44l96 103h54l93 -103h-39l-82 88zM361 577v-30h-241v-235h230v-32h-230v-248h249v-32h-295v577h287z" />
    <glyph glyph-name="Edieresis" unicode="&#xcb;" 
d="M361 577v-30h-242v-235h231v-32h-231v-248h250v-32h-296v577h288zM105 722h46v-72h-46v72zM252 722h45v-72h-45v72z" />
    <glyph glyph-name="Igrave" unicode="&#xcc;" horiz-adv-x="244" 
d="M75 722l89 -124h-43l-127 124h81zM124 577v-577h-45v577h45z" />
    <glyph glyph-name="Iacute" unicode="&#xcd;" horiz-adv-x="244" 
d="M107 616l65 106h90l-105 -106h-50zM123 577v-577h-45v577h45z" />
    <glyph glyph-name="Icircumflex" unicode="&#xce;" horiz-adv-x="244" 
d="M122 577v-577h-45v577h45zM20 619h-45l99 103h53l97 -103h-42l-84 88z" />
    <glyph glyph-name="Idieresis" unicode="&#xcf;" horiz-adv-x="244" 
d="M127 584v-584h-46v584h46zM10 722h45v-71h-45v71zM152 722h44v-71h-44v71z" />
    <glyph glyph-name="Eth" unicode="&#xd0;" horiz-adv-x="612" 
d="M74 318h-56v34h56v255h169q67 0 107.5 -18t61.5 -57t27.5 -96.5t6.5 -135.5q0 -76 -8.5 -131.5t-32.5 -94t-69 -56.5t-117 -18h-145v318zM120 352h138v-34h-138v-285h76q69 0 109.5 11.5t61 44.5t26.5 92.5t6 156.5q0 69 -6.5 114t-27.5 72.5t-60 38.5t-103 11h-82v-222z
" />
    <glyph glyph-name="Ntilde" unicode="&#xd1;" horiz-adv-x="672" 
d="M78 7v565h69l296 -547l1 547h31v-565h-68l-294 553l-1 -553h-34zM136 638q14 46 38.5 65t63.5 19q14 0 33 -6t39.5 -13.5t39.5 -13.5t32 -6q21 0 33.5 8.5t19.5 30.5h39q-8 -43 -31 -63t-58 -20q-14 0 -34.5 6.5t-42 14t-40 13.5t-28.5 6q-47 0 -55 -41h-49z" />
    <glyph glyph-name="Ograve" unicode="&#xd2;" horiz-adv-x="612" 
d="M226 722l89 -124h-43l-126 124h80zM106 288q0 -60 2.5 -109.5t16.5 -83.5t44 -53.5t85 -19.5q54 0 84.5 19.5t44 53.5t16.5 83.5t3 109.5q0 61 -3 110.5t-16.5 84t-44 53.5t-84.5 19q-55 0 -85 -19t-44 -53.5t-16.5 -84t-2.5 -110.5zM61 288q0 58 3 113.5t21 96.5
t58 65.5t111 24.5q72 0 111 -24.5t57.5 -65.5t22 -96.5t3.5 -113.5q0 -59 -3.5 -113t-22 -96t-57.5 -66.5t-111 -24.5q-71 0 -111 24.5t-58 66.5t-21 96t-3 113z" />
    <glyph glyph-name="Oacute" unicode="&#xd3;" horiz-adv-x="612" 
d="M257 616l64 106h90l-102 -106h-52zM106 288q0 -60 2.5 -109.5t16.5 -83.5t44 -53.5t85 -19.5q54 0 84.5 19.5t44 53.5t16.5 83.5t3 109.5q0 61 -3 110.5t-16.5 84t-44 53.5t-84.5 19q-55 0 -85 -19t-44 -53.5t-16.5 -84t-2.5 -110.5zM61 288q0 58 3 113.5t21 96.5
t58 65.5t111 24.5q72 0 111 -24.5t57.5 -65.5t22 -96.5t3.5 -113.5q0 -59 -3.5 -113t-22 -96t-57.5 -66.5t-111 -24.5q-71 0 -111 24.5t-58 66.5t-21 96t-3 113z" />
    <glyph glyph-name="Ocircumflex" unicode="&#xd4;" horiz-adv-x="612" 
d="M106 288q0 -60 2.5 -109.5t16.5 -83.5t44 -53.5t85 -19.5q54 0 84.5 19.5t44 53.5t16.5 83.5t3 109.5q0 61 -3 110.5t-16.5 84t-44 53.5t-84.5 19q-55 0 -85 -19t-44 -53.5t-16.5 -84t-2.5 -110.5zM61 288q0 58 3 113.5t21 96.5t58 65.5t111 24.5q72 0 111 -24.5
t57.5 -65.5t22 -96.5t3.5 -113.5q0 -59 -3.5 -113t-22 -96t-57.5 -66.5t-111 -24.5q-71 0 -111 24.5t-58 66.5t-21 96t-3 113zM177 619h-43l95 103h53l93 -103h-41l-80 88z" />
    <glyph glyph-name="Otilde" unicode="&#xd5;" horiz-adv-x="612" 
d="M135 638q17 49 40.5 66.5t58.5 17.5q15 0 30.5 -5t37.5 -14l16 -6q16 -6 28 -10t24 -4q26 0 39 7t21 32h40q-8 -43 -31.5 -63t-57.5 -20q-12 0 -32.5 6.5t-42 14t-39.5 13.5t-28 6q-49 0 -59 -41h-45zM106 288q0 -60 2.5 -109.5t16.5 -83.5t44 -53.5t85 -19.5
q54 0 84.5 19.5t44 53.5t16.5 83.5t3 109.5q0 61 -3 110.5t-16.5 84t-44 53.5t-84.5 19q-55 0 -85 -19t-44 -53.5t-16.5 -84t-2.5 -110.5zM61 288q0 58 3 113.5t21 96.5t58 65.5t111 24.5q72 0 111 -24.5t57.5 -65.5t22 -96.5t3.5 -113.5q0 -59 -3.5 -113t-22 -96
t-57.5 -66.5t-111 -24.5q-71 0 -111 24.5t-58 66.5t-21 96t-3 113z" />
    <glyph glyph-name="Odieresis" unicode="&#xd6;" horiz-adv-x="612" 
d="M106 291q0 -61 2.5 -110.5t16.5 -84.5t44 -54t85 -19q54 0 84.5 19t44 54t16.5 84.5t3 110.5q0 62 -3 111.5t-16.5 84.5t-44 55t-84.5 20q-55 0 -85 -20t-44 -55t-16.5 -84.5t-2.5 -111.5zM61 291q0 60 3 115.5t21 97.5t58 66.5t111 24.5q72 0 111 -24.5t57.5 -66.5
t22 -97.5t3.5 -115.5q0 -59 -3.5 -114t-22 -97.5t-57.5 -67t-111 -24.5q-71 0 -111 24.5t-58 67t-21 97.5t-3 114zM159 722h45v-71h-45v71zM304 722h45v-71h-45v71z" />
    <glyph glyph-name="multiply" unicode="&#xd7;" 
d="M50 46l-25 27l155 143l-155 143l25 23l155 -145l154 145l26 -23l-155 -143l153 -143v-4q-3 -4 -7 -7t-6 -5l-11 -11l-154 144z" />
    <glyph glyph-name="Oslash" unicode="&#xd8;" horiz-adv-x="612" 
d="M373 526q-17 27 -44.5 42.5t-75.5 15.5q-56 0 -86.5 -21.5t-44 -59t-15.5 -88.5t-2 -113v-13q0 -48 1.5 -90.5t14.5 -91.5zM133 81q17 -28 44.5 -42.5t75.5 -14.5q55 0 85.5 20t44 55t16.5 84t3 106t-2 106t-14 103zM68 -26l-20 11l47 80q-25 43 -30.5 91.5t-5.5 93.5
v102q0 44 4.5 91.5t23.5 86.5t58 63.5t108 24.5q49 0 82.5 -13.5t61.5 -39.5l45 72l17 -12l-48 -83q24 -41 30.5 -89.5t6.5 -93.5v-104q0 -44 -4.5 -91t-24 -87t-58.5 -64.5t-108 -24.5q-48 0 -82 15t-61 40z" />
    <glyph glyph-name="Ugrave" unicode="&#xd9;" horiz-adv-x="612" 
d="M224 722l91 -124h-43l-127 124h79zM111 213q0 -30 2.5 -63.5t15.5 -62t42 -47t82 -18.5q54 0 83 18.5t43 47t16 62t2 63.5v364h46v-404q0 -54 -15 -90.5t-41.5 -57.5t-61.5 -29t-72 -8t-71.5 8t-59.5 29t-40.5 57.5t-15.5 90.5v404h45v-364z" />
    <glyph glyph-name="Uacute" unicode="&#xda;" horiz-adv-x="612" 
d="M257 616l64 106h90l-102 -106h-52zM111 213q0 -30 2.5 -63.5t15.5 -62t42 -47t82 -18.5q54 0 83 18.5t43 47t16 62t2 63.5v364h46v-404q0 -54 -15 -90.5t-41.5 -57.5t-61.5 -29t-72 -8t-71.5 8t-59.5 29t-40.5 57.5t-15.5 90.5v404h45v-364z" />
    <glyph glyph-name="Ucircumflex" unicode="&#xdb;" horiz-adv-x="612" 
d="M176 619h-43l95 103h54l93 -103h-41l-81 88zM111 213q0 -30 2.5 -63.5t15.5 -62t42 -47t82 -18.5q54 0 83 18.5t43 47t16 62t2 63.5v364h46v-404q0 -54 -15 -90.5t-41.5 -57.5t-61.5 -29t-72 -8t-71.5 8t-59.5 29t-40.5 57.5t-15.5 90.5v404h45v-364z" />
    <glyph glyph-name="Udieresis" unicode="&#xdc;" horiz-adv-x="612" 
d="M111 217q0 -32 2.5 -66t15.5 -63t42 -47t82 -18q54 0 83 18t43 47t16 63t2 66v367h46v-409q0 -55 -15 -91.5t-41.5 -58t-61.5 -29.5t-72 -8t-71.5 8t-59.5 29.5t-40.5 58t-15.5 91.5v409h45v-367zM158 722h44v-71h-44v71zM304 722h45v-71h-45v71z" />
    <glyph glyph-name="Yacute" unicode="&#xdd;" horiz-adv-x="550" 
d="M209 241l-181 331h40l161 -297l167 297h30l-183 -331v-234h-34v234zM187 616l64 106h92l-103 -106h-53z" />
    <glyph glyph-name="Thorn" unicode="&#xde;" 
d="M71 674h51v-156h144q21 0 48 -3t50.5 -19t40 -48.5t16.5 -88.5q0 -101 -38.5 -147.5t-129.5 -46.5h-131v-165h-51v674zM122 201h128q26 0 48.5 7.5t38.5 22.5t25 43t9 71q0 47 -10 74t-27 40.5t-39 17.5t-46 4h-127v-280z" />
    <glyph glyph-name="germandbls" unicode="&#xdf;" horiz-adv-x="550" 
d="M462 123q0 -70 -40 -102t-111 -32q-62 0 -93.5 30.5t-32.5 87.5h47q3 -38 23 -60.5t68 -22.5q49 0 71 24.5t22 67.5q0 25 -13.5 46.5t-33 41t-42 37t-42.5 35t-33 36.5t-13 40q0 34 17.5 62.5t38.5 55t38.5 54t17.5 60.5q0 20 -10 36.5t-26 27t-35.5 15.5t-38.5 5
q-22 0 -43.5 -5.5t-39 -21.5t-28 -43.5t-10.5 -71.5v-526h-46v544q0 24 6.5 50t25 50t53.5 40t90 16q27 0 54 -8t48 -23.5t33.5 -37.5t12.5 -50q0 -35 -17.5 -63t-38 -53.5t-38 -49t-17.5 -49.5q0 -31 27.5 -57t60.5 -53t60.5 -59.5t27.5 -73.5z" />
    <glyph glyph-name="agrave" unicode="&#xe0;" 
d="M346 82q-25 -49 -71 -71t-92 -22q-69 0 -103.5 38t-34.5 100q0 52 23 82.5t59 45t79 19t81 5.5l55 3v50q0 60 -24.5 94.5t-94.5 34.5q-46 0 -78.5 -22.5t-37.5 -64.5h-44q3 31 17.5 52t37 34t51 19.5t60.5 6.5q19 0 45 -2.5t50.5 -14t41.5 -36.5t17 -68v-277
q0 -12 0.5 -24.5t1.5 -28t4 -35.5h-43v82zM342 254h-42q-35 0 -72.5 -3t-67.5 -15.5t-50 -37t-20 -69.5q0 -22 6.5 -42t20 -36t33.5 -24.5t47 -8.5q31 0 57 11t46 29.5t31 44t11 51.5v100zM191 692l98 -138h-41l-134 138h77z" />
    <glyph glyph-name="aacute" unicode="&#xe1;" 
d="M346 82q-25 -49 -71 -71t-92 -22q-69 0 -103.5 38t-34.5 100q0 52 23 82.5t59 45t79 19t81 5.5l55 3v50q0 60 -24.5 94.5t-94.5 34.5q-46 0 -78.5 -22.5t-37.5 -64.5h-44q3 31 17.5 52t37 34t51 19.5t60.5 6.5q19 0 45 -2.5t50.5 -14t41.5 -36.5t17 -68v-277
q0 -12 0.5 -24.5t1.5 -28t4 -35.5h-43v82zM342 254h-42q-35 0 -72.5 -3t-67.5 -15.5t-50 -37t-20 -69.5q0 -22 6.5 -42t20 -36t33.5 -24.5t47 -8.5q31 0 57 11t46 29.5t31 44t11 51.5v100zM239 575l66 118h92l-108 -118h-50z" />
    <glyph glyph-name="acircumflex" unicode="&#xe2;" 
d="M346 82q-73 -93 -163 -93q-69 0 -103.5 38t-34.5 100q0 52 23 82.5t59 45t79 19t81 5.5l55 3v50q0 60 -24.5 94.5t-94.5 34.5q-46 0 -78.5 -22.5t-37.5 -64.5h-44q3 31 17.5 52t37 34t51 19.5t60.5 6.5q19 0 45 -2.5t50.5 -14t41.5 -36.5t17 -68v-277q0 -12 0.5 -24.5
t1.5 -28t4 -35.5h-43v82zM342 254h-42q-35 0 -72.5 -3t-67.5 -15.5t-50 -37t-20 -69.5q0 -22 6.5 -42t20 -36t33.5 -24.5t47 -8.5q31 0 57 11t46 29.5t31 44t11 51.5v100zM137 550h-39l102 115h58l103 -115h-38l-93 107z" />
    <glyph glyph-name="atilde" unicode="&#xe3;" 
d="M346 82q-25 -49 -71 -71t-92 -22q-69 0 -103.5 38t-34.5 100q0 52 23 82.5t59 45t79 19t81 5.5l55 3v50q0 60 -24.5 94.5t-94.5 34.5q-46 0 -78.5 -22.5t-37.5 -64.5h-44q3 31 17.5 52t37 34t51 19.5t60.5 6.5q19 0 45 -2.5t50.5 -14t41.5 -36.5t17 -68v-277
q0 -12 0.5 -24.5t1.5 -28t4 -35.5h-43v82zM342 254h-42q-35 0 -72.5 -3t-67.5 -15.5t-50 -37t-20 -69.5q0 -22 6.5 -42t20 -36t33.5 -24.5t47 -8.5q31 0 57 11t46 29.5t31 44t11 51.5v100zM43 603q14 49 39.5 69.5t65.5 20.5q10 0 30.5 -6.5t45 -15t48 -15.5t38.5 -7
q25 0 40 9t23 36h37q-6 -46 -32.5 -68.5t-64.5 -22.5q-13 0 -35 8t-46 16.5t-46 16t-33 7.5q-25 0 -43.5 -11.5t-24.5 -36.5h-42z" />
    <glyph glyph-name="adieresis" unicode="&#xe4;" 
d="M346 82q-73 -93 -163 -93q-69 0 -103.5 38t-34.5 100q0 52 23 82.5t59 45t79 19t81 5.5l55 3v50q0 60 -24.5 94.5t-94.5 34.5q-46 0 -78.5 -22.5t-37.5 -64.5h-44q3 31 17.5 52t37 34t51 19.5t60.5 6.5q19 0 45 -2.5t50.5 -14t41.5 -36.5t17 -68v-277q0 -12 0.5 -24.5
t1.5 -28t4 -35.5h-43v82zM342 254h-42q-35 0 -72.5 -3t-67.5 -15.5t-50 -37t-20 -69.5q0 -22 6.5 -42t20 -36t33.5 -24.5t47 -8.5q31 0 57 11t46 29.5t31 44t11 51.5v100zM123 640h45v-78h-45v78zM290 640h45v-78h-45v78z" />
    <glyph glyph-name="aring" unicode="&#xe5;" 
d="M346 82q-25 -49 -71 -71t-92 -22q-69 0 -103.5 38t-34.5 100q0 52 23 82.5t59 45t79 19t81 5.5l55 3v50q0 60 -24.5 94.5t-94.5 34.5q-46 0 -78.5 -22.5t-37.5 -64.5h-44q3 31 17.5 52t37 34t51 19.5t60.5 6.5q19 0 45 -2.5t50.5 -14t41.5 -36.5t17 -68v-277
q0 -12 0.5 -24.5t1.5 -28t4 -35.5h-43v82zM342 254h-42q-35 0 -72.5 -3t-67.5 -15.5t-50 -37t-20 -69.5q0 -22 6.5 -42t20 -36t33.5 -24.5t47 -8.5q31 0 57 11t46 29.5t31 44t11 51.5v100zM186 616q0 19 8 35.5t23 29t34.5 20t41.5 7.5q20 0 40 -7.5t34.5 -20t23 -29.5
t8.5 -36q0 -21 -8.5 -39t-23 -31t-33.5 -21t-40 -8q-48 0 -78 29t-30 71zM226 616q0 -11 3.5 -21.5t12 -20t22 -15t33.5 -5.5q34 0 48.5 19.5t14.5 41.5q0 20 -15.5 38.5t-50.5 18.5q-36 0 -52 -17.5t-16 -38.5z" />
    <glyph glyph-name="ae" unicode="&#xe6;" horiz-adv-x="794" 
d="M87 124q0 -57 34 -81.5t92 -24.5q45 0 71 21.5t39.5 52.5t17 68t3.5 68v8.5t-2 11.5q-42 -4 -86.5 -4.5t-82.5 -9t-62 -33t-24 -77.5zM643 273q0 43 -4.5 77.5t-19.5 59.5t-41 38t-68 13q-61 0 -95.5 -50.5t-34.5 -137.5h263zM380 246v-59q0 -28 4.5 -58t19 -54
t40.5 -40.5t66 -16.5q64 0 95.5 30.5t33.5 81.5h44q-9 -78 -54.5 -109.5t-118.5 -31.5q-47 0 -88.5 27.5t-59.5 81.5q-28 -55 -64.5 -82t-88.5 -27q-34 0 -64.5 8t-53.5 23.5t-36.5 40.5t-13.5 59q0 56 24 86.5t62 45t86 18t96 3.5h34q0 32 -2 65.5t-13.5 61t-37 44.5
t-71.5 17t-78.5 -22.5t-38.5 -64.5h-44q5 31 19.5 52t36.5 34t50.5 19.5t59.5 6.5q21 0 43 -5.5t41.5 -16.5t35.5 -27.5t26 -40.5q25 42 63.5 66t76.5 24q63 0 98 -20t51.5 -53t20.5 -76.5t4 -90.5h-304z" />
    <glyph glyph-name="ccedilla" unicode="&#xe7;" horiz-adv-x="428" 
d="M308 354q0 50 -22.5 78.5t-83.5 28.5q-29 0 -50.5 -9.5t-35 -34.5t-19.5 -69t-6 -113q0 -36 2 -74t12.5 -70t32 -52.5t62.5 -20.5q34 0 54.5 8t32 23.5t16 35.5t6.5 42h42q-1 -42 -16 -68.5t-36 -41.5t-44 -21.5t-40 -6.5l-52 -64q3 0 10 0.5t15 0.5h30q27 0 49.5 -14.5
t22.5 -44.5q0 -22 -9 -35.5t-24 -22t-35.5 -11.5t-41.5 -3q-22 0 -41 4t-39 11l8 12q34 -11 62 -11q13 0 26.5 3t25 8.5t19 16.5t7.5 27q0 25 -19 37t-43 12q-11 0 -22 -2.5t-20 -6.5l-5 5l61 78q-58 7 -89 31t-45.5 58t-17 75t-2.5 82q0 72 8.5 120t27 77t50.5 41.5
t80 12.5q63 0 100.5 -30t37.5 -102h-42z" />
    <glyph glyph-name="egrave" unicode="&#xe8;" 
d="M97 235v-48q0 -28 5.5 -58t19.5 -54t40 -40.5t68 -16.5q63 0 93.5 30.5t32.5 81.5h44q-3 -39 -16 -66.5t-35.5 -44t-52.5 -23.5t-66 -7q-33 0 -64.5 7.5t-55.5 27.5t-39 54.5t-15 87.5v120q0 106 44 153t130 47q63 0 97.5 -19.5t51 -53t20 -80t3.5 -98.5h-305zM360 264
q0 45 -5 82t-19.5 62t-39.5 39t-66 14q-42 0 -68 -14t-40 -39t-19.5 -62t-5.5 -82h263zM191 692l98 -138h-41l-134 138h77z" />
    <glyph glyph-name="eacute" unicode="&#xe9;" 
d="M97 235v-48q0 -28 5.5 -58t19.5 -54t40 -40.5t68 -16.5q63 0 93.5 30.5t32.5 81.5h44q-3 -39 -16 -66.5t-35.5 -44t-52.5 -23.5t-66 -7q-33 0 -64.5 7.5t-55.5 27.5t-39 54.5t-15 87.5v120q0 106 44 153t130 47q63 0 97.5 -19.5t51 -53t20 -80t3.5 -98.5h-305zM360 264
q0 45 -5 82t-19.5 62t-39.5 39t-66 14q-42 0 -68 -14t-40 -39t-19.5 -62t-5.5 -82h263zM239 574l66 118h92l-108 -118h-50z" />
    <glyph glyph-name="ecircumflex" unicode="&#xea;" 
d="M97 235v-48q0 -28 5.5 -58t19.5 -54t40 -40.5t68 -16.5q63 0 93.5 30.5t32.5 81.5h44q-3 -39 -16 -66.5t-35.5 -44t-52.5 -23.5t-66 -7q-33 0 -64.5 7.5t-55.5 27.5t-39 54.5t-15 87.5v120q0 106 44 153t130 47q63 0 97.5 -19.5t51 -53t20 -80t3.5 -98.5h-305zM360 264
q0 45 -5 82t-19.5 62t-39.5 39t-66 14q-42 0 -68 -14t-40 -39t-19.5 -62t-5.5 -82h263zM136 566h-39l102 116h59l103 -116h-39l-92 107z" />
    <glyph glyph-name="edieresis" unicode="&#xeb;" 
d="M97 235v-48q0 -28 5.5 -58t19.5 -54t40 -40.5t68 -16.5q63 0 93.5 30.5t32.5 81.5h44q-3 -39 -16 -66.5t-35.5 -44t-52.5 -23.5t-66 -7q-33 0 -64.5 7.5t-55.5 27.5t-39 54.5t-15 87.5v120q0 106 44 153t130 47q63 0 97.5 -19.5t51 -53t20 -80t3.5 -98.5h-305zM360 264
q0 45 -5 82t-19.5 62t-39.5 39t-66 14q-42 0 -68 -14t-40 -39t-19.5 -62t-5.5 -82h263zM123 640h45v-78h-45v78zM290 640h45v-78h-45v78z" />
    <glyph glyph-name="igrave" unicode="&#xec;" horiz-adv-x="244" 
d="M95 0v477h40v-477h-40zM134 552l-127 113h88l64 -113h-25z" />
    <glyph glyph-name="iacute" unicode="&#xed;" horiz-adv-x="244" 
d="M92 0v477h42v-477h-42zM172 665h50l-130 -113h-22z" />
    <glyph glyph-name="icircumflex" unicode="&#xee;" horiz-adv-x="244" 
d="M94 0v477h41v-477h-41zM23 550h-42l103 115h60l102 -115h-39l-93 107z" />
    <glyph glyph-name="idieresis" unicode="&#xef;" horiz-adv-x="244" 
d="M94 0v477h41v-477h-41zM9 640h45v-78h-45v78zM176 640h45v-78h-45v78z" />
    <glyph glyph-name="eth" unicode="&#xf0;" 
d="M233 648q-21 10 -33 16.5t-21.5 10.5t-18.5 7t-25 9l-3 1q9 8 13.5 11t12.5 11q18 -7 32 -12t26 -10.5t23.5 -12t23.5 -15.5l93 49l17 -16l-89 -46q26 -23 47.5 -51t37 -70t24.5 -101t9 -146v-99q0 -92 -41.5 -143.5t-130.5 -51.5q-90 0 -132 51.5t-42 143.5v107
q0 94 42 144.5t132 50.5q46 0 67 -11t54 -45q-3 46 -14 75.5t-27 55t-34 44.5t-32 27l-97 -51l-15 14zM230 461q-43 0 -69.5 -16t-40.5 -45t-18.5 -70.5t-4.5 -91.5q0 -52 4.5 -92.5t18.5 -69t40.5 -43.5t69.5 -15t68.5 15t39 43.5t18 69t4.5 92.5q0 50 -4.5 91.5t-18 70.5
t-39 45t-68.5 16z" />
    <glyph glyph-name="ntilde" unicode="&#xf1;" 
d="M111 0h-41v477h41v-84q19 44 60 68.5t82 24.5q46 0 73 -14.5t41 -36t17.5 -47t3.5 -48.5v-340h-42v337q0 24 -5.5 46.5t-18.5 39.5t-33.5 27.5t-49.5 10.5q-24 0 -47 -8.5t-41 -27t-29 -49t-11 -74.5v-302zM98 616q14 49 39.5 69.5t66.5 20.5q9 0 29.5 -6.5t44.5 -15
t48 -15.5t39 -7q26 0 40.5 9t22.5 36h37q-6 -46 -32.5 -68.5t-63.5 -22.5q-14 0 -36 8t-46 16.5t-46 16t-33 7.5q-25 0 -43.5 -11.5t-24.5 -36.5h-42z" />
    <glyph glyph-name="ograve" unicode="&#xf2;" 
d="M230 -11q-90 0 -132 51.5t-42 143.5v107q0 94 42 144.5t132 50.5q89 0 130.5 -50.5t41.5 -144.5v-107q0 -92 -41.5 -143.5t-130.5 -51.5zM230 461q-43 0 -69.5 -16t-40.5 -45t-18.5 -70.5t-4.5 -91.5q0 -52 4.5 -92.5t18.5 -69t40.5 -43.5t69.5 -15t68.5 15t39 43.5
t18 69t4.5 92.5q0 50 -4.5 91.5t-18 70.5t-39 45t-68.5 16zM191 692l98 -138h-41l-134 138h77z" />
    <glyph glyph-name="oacute" unicode="&#xf3;" 
d="M230 -11q-90 0 -132 51.5t-42 143.5v107q0 94 42 144.5t132 50.5q89 0 130.5 -50.5t41.5 -144.5v-107q0 -92 -41.5 -143.5t-130.5 -51.5zM230 461q-43 0 -69.5 -16t-40.5 -45t-18.5 -70.5t-4.5 -91.5q0 -52 4.5 -92.5t18.5 -69t40.5 -43.5t69.5 -15t68.5 15t39 43.5
t18 69t4.5 92.5q0 50 -4.5 91.5t-18 70.5t-39 45t-68.5 16zM239 590l66 117h92l-108 -117h-50z" />
    <glyph glyph-name="ocircumflex" unicode="&#xf4;" 
d="M230 -11q-90 0 -132 51.5t-42 143.5v107q0 94 42 144.5t132 50.5q89 0 130.5 -50.5t41.5 -144.5v-107q0 -92 -41.5 -143.5t-130.5 -51.5zM230 461q-43 0 -69.5 -16t-40.5 -45t-18.5 -70.5t-4.5 -91.5q0 -52 4.5 -92.5t18.5 -69t40.5 -43.5t69.5 -15t68.5 15t39 43.5
t18 69t4.5 92.5q0 50 -4.5 91.5t-18 70.5t-39 45t-68.5 16zM136 550h-39l102 115h59l103 -115h-39l-92 107z" />
    <glyph glyph-name="otilde" unicode="&#xf5;" 
d="M230 -11q-90 0 -132 51.5t-42 143.5v107q0 94 42 144.5t132 50.5q89 0 130.5 -50.5t41.5 -144.5v-107q0 -92 -41.5 -143.5t-130.5 -51.5zM230 461q-43 0 -69.5 -16t-40.5 -45t-18.5 -70.5t-4.5 -91.5q0 -52 4.5 -92.5t18.5 -69t40.5 -43.5t69.5 -15t68.5 15t39 43.5
t18 69t4.5 92.5q0 50 -4.5 91.5t-18 70.5t-39 45t-68.5 16zM98 616q14 49 39.5 69.5t66.5 20.5q9 0 29.5 -6.5t44.5 -15t48 -15.5t39 -7q26 0 40.5 9t22.5 36h37q-6 -46 -32.5 -68.5t-63.5 -22.5q-14 0 -36 8t-46 16.5t-46 16t-33 7.5q-25 0 -43.5 -11.5t-24.5 -36.5h-42z
" />
    <glyph glyph-name="odieresis" unicode="&#xf6;" 
d="M230 -11q-90 0 -132 51.5t-42 143.5v107q0 94 42 144.5t132 50.5q89 0 130.5 -50.5t41.5 -144.5v-107q0 -92 -41.5 -143.5t-130.5 -51.5zM230 461q-43 0 -69.5 -16t-40.5 -45t-18.5 -70.5t-4.5 -91.5q0 -52 4.5 -92.5t18.5 -69t40.5 -43.5t69.5 -15t68.5 15t39 43.5
t18 69t4.5 92.5q0 50 -4.5 91.5t-18 70.5t-39 45t-68.5 16zM123 640h45v-78h-45v78zM290 640h45v-78h-45v78z" />
    <glyph glyph-name="divide" unicode="&#xf7;" 
d="M431 260v-31h-403v31h403zM200 487h56v-56h-56v56zM200 56h56v-55h-56v55z" />
    <glyph glyph-name="oslash" unicode="&#xf8;" 
d="M125 67q17 -25 40 -37t61 -12q34 0 56.5 8t35.5 19.5t19 23.5t9 20l2 2q3 12 5 32.5t4 42.5t2.5 42t0.5 30q0 36 -2.5 73.5t-13.5 83.5zM334 409q-15 27 -40.5 39.5t-63.5 12.5q-43 0 -69.5 -13t-40.5 -40t-18.5 -69.5t-4.5 -100.5q0 -40 2.5 -77t14.5 -83zM54 -39l-14 8
l49 73q-12 17 -18.5 40.5t-10 44t-4 36.5t-0.5 21v118q0 24 3 54.5t19.5 60t51.5 49.5t100 20q42 0 74.5 -11.5t54.5 -32.5q10 16 23.5 34.5t22.5 37.5q2 -1 5.5 -3.5t6.5 -4.5l-46 -75q11 -20 17.5 -35t9 -30t3.5 -29.5t1 -34.5v-118q0 -47 -9 -82t-29.5 -61t-53.5 -39
t-80 -13q-42 0 -73.5 11t-54.5 31z" />
    <glyph glyph-name="ugrave" unicode="&#xf9;" 
d="M384 477v-477h-33v74q-35 -48 -71.5 -66.5t-77.5 -18.5q-38 0 -62 12t-39 32.5t-20.5 47.5t-5.5 54v342h41v-332q0 -5 1 -26t9.5 -43.5t29 -40t60.5 -17.5q34 0 58.5 13t39.5 31t22 39t7 35v341h41zM191 692l98 -138h-41l-134 138h77z" />
    <glyph glyph-name="uacute" unicode="&#xfa;" 
d="M384 477v-477h-33v74q-35 -48 -71.5 -66.5t-77.5 -18.5q-38 0 -62 12t-39 32.5t-20.5 47.5t-5.5 54v342h41v-332q0 -5 1 -26t9.5 -43.5t29 -40t60.5 -17.5q34 0 58.5 13t39.5 31t22 39t7 35v341h41zM239 574l66 118h79l-95 -118h-50z" />
    <glyph glyph-name="ucircumflex" unicode="&#xfb;" 
d="M384 477v-477h-33v74q-39 -42 -73.5 -63.5t-75.5 -21.5q-38 0 -62 12t-39 32.5t-20.5 47.5t-5.5 54v342h41v-332q0 -5 1 -26t9.5 -43.5t29 -40t60.5 -17.5q34 0 58.5 13t39.5 31t22 39t7 35v341h41zM136 550h-39l102 115h59l103 -115h-39l-92 107z" />
    <glyph glyph-name="udieresis" unicode="&#xfc;" 
d="M384 477v-477h-33v74q-39 -42 -73.5 -63.5t-75.5 -21.5q-38 0 -62 12t-39 32.5t-20.5 47.5t-5.5 54v342h41v-332q0 -5 1 -26t9.5 -43.5t29 -40t60.5 -17.5q34 0 58.5 13t39.5 31t22 39t7 35v341h41zM123 640h45v-78h-45v78zM290 640h45v-78h-45v78z" />
    <glyph glyph-name="yacute" unicode="&#xfd;" horiz-adv-x="428" 
d="M186 -12l-165 489h44l139 -437l138 437h39l-216 -664h-38zM210 590l68 117h92l-109 -117h-51z" />
    <glyph glyph-name="thorn" unicode="&#xfe;" 
d="M113 195q0 -45 10.5 -79t28 -56t40.5 -32t47 -10q47 0 73 17t38.5 46.5t15.5 69t3 84.5q0 47 -3 88t-15.5 72t-38.5 48.5t-73 17.5q-19 0 -41 -9.5t-40.5 -30.5t-31.5 -55t-13 -84v-87zM73 691h40v-299q34 51 73.5 72.5t74.5 21.5q51 0 81 -20t45 -50.5t18.5 -68
t3.5 -70.5v-39q0 -40 -3 -83.5t-18.5 -81t-46.5 -61t-85 -23.5q-80 0 -140 91q0 -28 -1 -62.5t-1 -69.5t-0.5 -70t-0.5 -65h-40v878z" />
    <glyph glyph-name="ydieresis" unicode="&#xff;" horiz-adv-x="428" 
d="M186 -12l-165 489h44l139 -437l138 437h39l-216 -664h-38zM95 640h45v-78h-45v78zM262 640h45v-78h-45v78z" />
    <glyph glyph-name="ring" unicode="&#x2da;" horiz-adv-x="414" 
d="M102 597q0 19 8.5 36t22.5 30t34 21t42 8q21 0 40.5 -8t34 -21t23.5 -30.5t9 -36.5q0 -21 -9 -39t-23.5 -31.5t-33.5 -21.5t-40 -8q-48 0 -78 29.5t-30 71.5zM141 597q0 -11 3.5 -22t12.5 -20t23.5 -14.5t34.5 -5.5q31 0 46.5 19.5t15.5 41.5q0 20 -16.5 39t-50.5 19
q-35 0 -52 -18t-17 -39z" />
    <glyph glyph-name="tilde" unicode="&#x2dc;" horiz-adv-x="396" 
d="M15 598q13 51 39 72t67 21q9 0 29 -6.5t44.5 -15.5t48 -15.5t40.5 -6.5q25 0 40 8.5t21 36.5h39q-8 -46 -34 -69.5t-63 -23.5q-13 0 -36 8t-47 16.5t-45.5 17t-32.5 8.5q-27 0 -44 -11.5t-24 -39.5h-42z" />
    <glyph glyph-name="afii10023" unicode="&#x401;" horiz-adv-x="446" 
d="M290 667h-40v55h40v-55zM174 667h-41v55h41v-55zM353 597h-242v-248h233v-38h-233v-276h248v-38h-294v640h288v-40z" />
    <glyph glyph-name="afii10017" unicode="&#x410;" horiz-adv-x="520" 
d="M464 0h-54l-51 183h-241l-56 -183h-42l199 672h57zM351 222l-105 419l-117 -419h222z" />
    <glyph glyph-name="afii10018" unicode="&#x411;" horiz-adv-x="460" 
d="M382 188q0 -188 -162 -188h-156v672h288v-40h-242v-260q31 9 59 12t53 3q79 0 119.5 -52.5t40.5 -146.5zM332 190q0 159 -111 159q-54 0 -111 -16v-295h98q67 0 95.5 35.5t28.5 116.5z" />
    <glyph glyph-name="afii10019" unicode="&#x412;" horiz-adv-x="483" 
d="M403 182q0 -88 -42 -135t-121 -47h-175v672h163q70 0 113 -41t43 -118q0 -55 -22.5 -96.5t-84.5 -61.5q126 -44 126 -173zM334 499q0 137 -113 137h-110v-260q28 -5 52 -8t43 -3q128 0 128 134zM351 180q0 155 -145 155q-44 0 -95 -7v-293h121q119 0 119 145z" />
    <glyph glyph-name="afii10020" unicode="&#x413;" horiz-adv-x="366" 
d="M324 631h-214v-631h-46v672h260v-41z" />
    <glyph glyph-name="afii10021" unicode="&#x414;" horiz-adv-x="529" 
d="M464 -168h-40q2 27 3 69t1 99h-384q0 -53 1.5 -94t4.5 -74h-42v208q47 0 73 62.5t26 168.5v401h296v-632h61v-208zM353 40v591h-203v-369q0 -146 -75 -222h278z" />
    <glyph glyph-name="afii10022" unicode="&#x415;" horiz-adv-x="446" 
d="M358 0h-294v672h289v-41h-243v-260h234v-39h-234v-292h248v-40z" />
    <glyph glyph-name="afii10024" unicode="&#x416;" horiz-adv-x="744" 
d="M593 0q-8 30 -12 63.5t-4 72.5q0 112 -30 160.5t-104 48.5q-35 0 -78 -10v-335h-42v335q-40 10 -79 10q-72 0 -103 -48.5t-31 -160.5q0 -84 -14 -136h-44q5 23 8 56.5t3 79.5q0 57 3.5 91.5t15.5 57.5t34.5 40.5t58.5 39.5q-17 20 -30 37t-22.5 33.5t-13.5 34.5t-4 40v43
q0 87 -38 87q-4 0 -8.5 -0.5t-10.5 -1.5v38q9 3 19 3.5t21 0.5q57 0 57 -112v-70q0 -52 27 -84v1q13 -21 31 -30.5t40 -9.5q17 0 37 1.5t43 7.5v288h42v-288q24 -6 44 -7.5t38 -1.5q46 0 70 40v-1q26 32 26 84v70q0 112 56 112q13 0 22.5 -0.5t18.5 -3.5v-38q-5 1 -9.5 1.5
t-9.5 0.5q-37 0 -37 -87v-43q0 -22 -4.5 -40t-13 -34.5t-22 -33.5t-30.5 -37q36 -24 58 -42.5t34 -42.5t16 -58t4 -86q0 -96 11 -136h-44z" />
    <glyph glyph-name="afii10025" unicode="&#x417;" horiz-adv-x="485" 
d="M405 186q0 -94 -46.5 -146t-142.5 -52q-80 0 -128 43.5t-52 116.5h49q4 -122 123 -122q146 0 146 153q0 38 -8.5 67.5t-30.5 48.5h1q-36 38 -96 38h-29.5t-26.5 -1v32q24 -3 56 -3q57 0 90.5 39.5t33.5 105.5q0 137 -124 137q-115 0 -120 -115h-52q2 33 15 61.5t36 49
t55.5 32.5t72.5 12q80 0 120.5 -50t40.5 -131q0 -110 -114 -158q131 -39 131 -158z" />
    <glyph glyph-name="afii10026" unicode="&#x418;" horiz-adv-x="539" 
d="M436 0h-43v615l-276 -615h-54v672h43v-614l277 614h53v-672z" />
    <glyph glyph-name="afii10027" unicode="&#x419;" horiz-adv-x="539" 
d="M354 759q-2 -41 -28.5 -71t-76.5 -30t-76.5 29t-29.5 72h42q2 -33 20.5 -54.5t43.5 -21.5q26 0 44.5 20t21.5 56h39zM436 0h-43v615l-280 -615h-50v672h43v-616l281 616h49v-672z" />
    <glyph glyph-name="afii10028" unicode="&#x41a;" horiz-adv-x="487" 
d="M403 638q-7 2 -14 2q-22 0 -33 -18.5t-11 -68.5v-43q0 -22 -2.5 -40t-9.5 -34.5t-19 -33.5t-29 -37q33 -20 53 -38t31 -42t14.5 -60t3.5 -89q0 -47 2.5 -80t7.5 -56h-45q-6 30 -8.5 63.5t-2.5 72.5q0 112 -31 160.5t-104 48.5q-24 0 -48.5 -2t-46.5 -8v-335h-46v672h46
v-288q24 -6 48.5 -7.5t48.5 -1.5q21 0 38.5 9t30.5 26t20.5 39.5t7.5 48.5v70q0 112 55 112q10 0 20.5 -0.5t22.5 -3.5v-38z" />
    <glyph glyph-name="afii10029" unicode="&#x41b;" horiz-adv-x="496" 
d="M397 0h-47v631h-200v-454q0 -185 -88 -185q-19 0 -30.5 1t-22.5 6v45q26 -7 45 -7q54 0 54 161v474h289v-672z" />
    <glyph glyph-name="afii10030" unicode="&#x41c;" horiz-adv-x="680" 
d="M565 0h-38v649l-24 -47l-163 -602h-50l-162 598l-25 48v-646h-40v672h72l175 -631h9l173 631h73v-672z" />
    <glyph glyph-name="afii10031" unicode="&#x41d;" horiz-adv-x="526" 
d="M424 0h-46v329h-269v-329h-45v672h45v-305h269v305h46v-672z" />
    <glyph glyph-name="afii10032" unicode="&#x41e;" horiz-adv-x="566" 
d="M476 310q0 -320 -215 -320t-215 320v53q0 156 53.5 236.5t161.5 80.5q109 0 162 -80.5t53 -236.5v-53zM429 353q0 289 -168 289q-79 0 -122.5 -72t-43.5 -217v-33q0 -146 43.5 -219t122.5 -73q168 0 168 292v33z" />
    <glyph glyph-name="afii10033" unicode="&#x41f;" horiz-adv-x="518" 
d="M415 0h-45v630h-260v-630h-45v672h350v-672z" />
    <glyph glyph-name="afii10034" unicode="&#x420;" horiz-adv-x="453" 
d="M380 492q0 -98 -43.5 -149.5t-126.5 -51.5q-27 0 -53.5 4.5t-48.5 13.5v-309h-45v672h127q87 0 138.5 -49t51.5 -131zM330 488q0 144 -144 144h-78v-281q28 -10 55.5 -15.5t49.5 -5.5q117 0 117 158z" />
    <glyph glyph-name="afii10035" unicode="&#x421;" horiz-adv-x="486" 
d="M411 148q-3 -74 -51 -117t-125 -43q-46 0 -81 22t-59.5 64t-36.5 101t-12 133v57q0 318 189 318q80 0 126.5 -42.5t49.5 -112.5h-47q-2 55 -36.5 85t-85.5 30q-33 0 -60.5 -21t-46.5 -59t-29.5 -92t-10.5 -118v-32q0 -68 9.5 -122.5t29 -92.5t46.5 -59t62 -21
q51 0 84.5 33t37.5 89h47z" />
    <glyph glyph-name="afii10036" unicode="&#x422;" horiz-adv-x="442" 
d="M394 630h-168v-630h-42v630h-166v42h376v-42z" />
    <glyph glyph-name="afii10037" unicode="&#x423;" horiz-adv-x="438" 
d="M392 675l-168 -653v1q-17 -67 -43.5 -94t-74.5 -27q-10 0 -22.5 4t-24.5 10v38q15 -9 23 -12.5t17 -3.5q62 0 87 98l-162 639h47l135 -583l138 583h48z" />
    <glyph glyph-name="afii10038" unicode="&#x424;" horiz-adv-x="657" 
d="M572 341q0 -59 -14.5 -107t-40 -81t-61.5 -50.5t-79 -17.5h-51v-97h-42v97h-52q-44 0 -80 18t-62 51t-40.5 80.5t-14.5 106.5q0 58 14.5 104.5t39.5 79.5t61.5 51t81.5 18h52v89h42v-89h51q43 0 79.5 -17.5t61.5 -50.5t39.5 -80t14.5 -105zM525 341q0 223 -152 223h-50
v-444h50q152 0 152 221zM286 120v444h-51q-154 0 -154 -223q0 -221 154 -221h51z" />
    <glyph glyph-name="afii10039" unicode="&#x425;" horiz-adv-x="512" 
d="M448 0h-52l-156 312l-156 -312h-56l188 353l-164 319h54l134 -283l136 283h53l-163 -319z" />
    <glyph glyph-name="afii10040" unicode="&#x426;" horiz-adv-x="547" 
d="M479 -168h-41q3 35 4 75.5t1 92.5h-379v672h45v-632h260v632h46v-632h64v-208z" />
    <glyph glyph-name="afii10041" unicode="&#x427;" horiz-adv-x="457" 
d="M358 0h-46v330q-40 -9 -75 -14.5t-63 -5.5q-68 0 -102 47.5t-34 134.5v180h48v-186q0 -142 109 -142q65 0 117 16v312h46v-672z" />
    <glyph glyph-name="afii10042" unicode="&#x428;" horiz-adv-x="743" 
d="M623 0h-560v672h45v-631h214v631h42v-631h215v631h44v-672z" />
    <glyph glyph-name="afii10043" unicode="&#x429;" horiz-adv-x="769" 
d="M689 -168h-41q3 28 4 70t1 98h-590v672h44v-632h213v632h44v-632h212v632h44v-632h69v-208z" />
    <glyph glyph-name="afii10044" unicode="&#x42a;" horiz-adv-x="531" 
d="M450 188q0 -188 -162 -188h-157v630h-103v42h149v-296q57 11 106 11q167 0 167 -199zM400 190q0 159 -111 159q-66 0 -112 -14v-297h97q69 0 97.5 35t28.5 117z" />
    <glyph glyph-name="afii10045" unicode="&#x42b;" horiz-adv-x="614" 
d="M505 0h-46v672h46v-672zM380 188q0 -188 -162 -188h-154v672h44v-296q53 11 104 11q168 0 168 -199zM330 190q0 159 -111 159q-31 0 -59 -3t-52 -11v-297h98q67 0 95.5 35t28.5 117z" />
    <glyph glyph-name="afii10046" unicode="&#x42c;" horiz-adv-x="459" 
d="M381 188q0 -188 -162 -188h-155v672h45v-297q31 9 56.5 10.5t47.5 1.5q168 0 168 -199zM331 190q0 159 -111 159q-32 0 -60.5 -3t-50.5 -11v-297h98q67 0 95.5 35t28.5 117z" />
    <glyph glyph-name="afii10047" unicode="&#x42d;" horiz-adv-x="487" 
d="M405 326q0 -338 -189 -338q-80 0 -128 43.5t-52 116.5h49q4 -56 37.5 -89t85.5 -33q146 0 146 306h-190v37h190q0 274 -146 274q-49 0 -83 -30t-40 -77h-49q4 68 52 107.5t128 39.5q93 0 141 -79t48 -233v-45z" />
    <glyph glyph-name="afii10048" unicode="&#x42e;" horiz-adv-x="718" 
d="M619 311q0 -156 -52.5 -238.5t-156.5 -82.5q-105 0 -160.5 86.5t-55.5 255.5h-87v-332h-45v672h45v-303h87q0 70 15 127.5t44 99t69 63t88 21.5q47 0 85 -21.5t65.5 -61t43 -92.5t15.5 -116v-78zM571 371q0 126 -43.5 198.5t-117.5 72.5q-76 0 -121.5 -70t-45.5 -201v-44
q0 -299 167 -299q161 0 161 299v44z" />
    <glyph glyph-name="afii10049" unicode="&#x42f;" horiz-adv-x="482" 
d="M382 0h-45v301q-25 5 -50.5 8t-54.5 3q-62 0 -92 -43h1q-31 -50 -31 -163q0 -69 -7 -106h-46q2 18 3.5 44.5t1.5 68.5q0 51 3 84.5t13.5 57t29.5 39t50 32.5q-30 15 -49.5 31t-30 36t-13.5 45t-3 58q0 80 44.5 128t126.5 48h149v-672zM337 634h-106q-66 0 -93.5 -32
t-27.5 -108q0 -154 122 -154q31 0 56 2t49 7v285z" />
    <glyph glyph-name="afii10065" unicode="&#x430;" horiz-adv-x="429" 
d="M296 0q-2 10 -4 25.5t-2 44.5q-18 -45 -52 -63t-76 -18q-52 0 -79.5 34.5t-27.5 93.5q0 70 39.5 110t115.5 40h74v77q0 92 -83 92q-35 0 -57 -21.5t-25 -56.5h-40q1 52 31 76.5t87 24.5q76 0 103.5 -31t27.5 -100v-274q0 -17 0.5 -29.5t2.5 -24.5h-35zM284 241h-67
q-59 0 -88.5 -31.5t-29.5 -85.5q0 -40 22.5 -69.5t57.5 -29.5q105 0 105 149v67z" />
    <glyph glyph-name="afii10066" unicode="&#x431;" horiz-adv-x="461" 
d="M377 208q0 -50 -11 -90t-32 -68t-50.5 -44.5t-65.5 -16.5q-161 0 -161 279v59q0 289 151 289h34q64 0 103 27v-34q-8 -6 -15.5 -10t-16.5 -9h2q-16 -5 -38.5 -6t-50.5 -1q-127 0 -128 -234q20 46 55.5 72t76.5 26q147 0 147 -206v-33zM333 241q0 173 -110 173
q-124 0 -124 -191q0 -198 119 -198q27 0 48.5 13.5t36.5 37t22.5 57.5t7.5 75v33z" />
    <glyph glyph-name="afii10067" unicode="&#x432;" horiz-adv-x="443" 
d="M358 117q0 -65 -27 -91t-93 -26h-163v455h148q122 0 122 -111q0 -39 -18 -61t-63 -42q94 -36 94 -124zM301 344q0 86 -81 86h-102v-178h100q38 0 60.5 26t22.5 66zM313 118q0 108 -93 108h-102v-201h115q41 0 60.5 21t19.5 72z" />
    <glyph glyph-name="afii10068" unicode="&#x433;" horiz-adv-x="318" 
d="M268 414h-150v-414h-42v450h192v-36z" />
    <glyph glyph-name="afii10069" unicode="&#x434;" horiz-adv-x="453" 
d="M389 -120h-37q3 20 4.5 48.5t1.5 71.5h-306q0 -40 1 -70t4 -50h-34v152q68 0 68 133v285h250v-418h48v-152zM296 32v385h-163v-258q0 -74 -52 -127h215z" />
    <glyph glyph-name="afii10070" unicode="&#x435;" horiz-adv-x="435" 
d="M351 268q0 -39 -25 -39h-227v-49q0 -155 111 -155q41 0 66 26.5t31 68.5h39q-3 -58 -38.5 -93t-94.5 -35q-157 0 -157 224q0 241 153 241q69 0 105.5 -47.5t36.5 -141.5zM307 257v27q0 67 -26 105.5t-71 38.5q-48 0 -79.5 -43t-31.5 -128h208z" />
    <glyph glyph-name="afii10072" unicode="&#x436;" horiz-adv-x="648" 
d="M504 0q-3 22 -5.5 45.5t-2.5 50.5q0 127 -99 127q-14 0 -32.5 -2t-40.5 -5v-216h-40v216q-45 7 -72 7q-100 0 -100 -127q0 -62 -10 -96h-43q6 19 8.5 43.5t2.5 51.5q0 53 24.5 88.5t62.5 56.5q-25 22 -34.5 49t-9.5 45v31q0 59 -42 59h-8v29q13 4 25 4q17 0 28 -4.5
t17.5 -16t9.5 -31.5t3 -53q0 -58 15 -79.5t56 -21.5q18 0 34.5 2t32.5 4v193h40v-193q16 -2 32.5 -4t35.5 -2q38 0 53 21.5t15 79.5q0 34 4 54.5t10.5 31.5t16.5 15t22 4q23 0 35 -4v-29h-6q-23 0 -34.5 -13.5t-11.5 -45.5v-31q0 -18 -10.5 -45t-35.5 -49q22 -11 44.5 -26.5
t31.5 -33.5q6 -15 9 -39t4.5 -49.5t3 -50.5t6.5 -41h-45z" />
    <glyph glyph-name="afii10073" unicode="&#x437;" horiz-adv-x="410" 
d="M328 116q0 -64 -37 -95.5t-106 -31.5q-65 0 -96 36t-34 104h41q4 -106 89 -106q25 0 42.5 4.5t36.5 23t19 71.5q0 58 -31 79.5t-80 21.5q-9 0 -14 -2v28h39q35 0 57 24t22 70q0 88 -87 88q-84 0 -88 -93h-34q3 53 34.5 87t87.5 34q59 0 91.5 -26t32.5 -83q0 -33 -18 -64
t-57 -51q46 -16 68 -47.5t22 -71.5z" />
    <glyph glyph-name="afii10074" unicode="&#x438;" horiz-adv-x="476" 
d="M371 0h-41v418l-205 -418h-49v450h41v-415l205 415h49v-450z" />
    <glyph glyph-name="afii10075" unicode="&#x439;" horiz-adv-x="476" 
d="M322 612q-3 -43 -28 -67t-70 -24t-70.5 24t-28.5 67h29q5 -69 70 -69q64 0 71 69h27zM371 0h-43v403l-203 -403h-49v450h43v-404l203 404h49v-450z" />
    <glyph glyph-name="afii10076" unicode="&#x43a;" horiz-adv-x="443" 
d="M308 0q-9 42 -9 96q0 65 -22 94.5t-77 29.5q-21 0 -40.5 -1t-37.5 -3v-216h-43v450h43v-193q37 -8 67 -8q76 0 76 103q0 33 4 53.5t11 32t17 15.5t22 4q21 0 31 -4v-29h-6q-22 0 -33.5 -14.5t-11.5 -44.5v-31q0 -19 -7.5 -43t-27.5 -51q40 -19 55.5 -44.5t20 -56
t4.5 -66.5t8 -73h-44z" />
    <glyph glyph-name="afii10077" unicode="&#x43b;" horiz-adv-x="453" 
d="M351 0h-44v417h-170v-250q0 -175 -81 -175q-5 0 -33 6v31q6 -1 11.5 -1h9.5q53 0 53 120v302h254v-450z" />
    <glyph glyph-name="afii10078" unicode="&#x43c;" horiz-adv-x="594" 
d="M486 0h-37v439l-20 -3l-141 -436h-47l-142 436l-19 2v-438h-38v450h82l134 -425h10l137 425h81v-450z" />
    <glyph glyph-name="afii10079" unicode="&#x43d;" horiz-adv-x="468" 
d="M363 0h-43v221h-201v-221h-43v450h43v-193h201v193h43v-450z" />
    <glyph glyph-name="afii10080" unicode="&#x43e;" horiz-adv-x="462" 
d="M378 211q0 -219 -161 -219q-162 0 -162 219v29q0 217 162 217q161 0 161 -217v-29zM335 240q0 87 -30.5 135.5t-87.5 48.5q-59 0 -89 -50t-30 -134v-29q0 -89 31.5 -137.5t87.5 -48.5q57 0 87.5 47.5t30.5 138.5v29z" />
    <glyph glyph-name="afii10081" unicode="&#x43f;" horiz-adv-x="460" 
d="M356 0h-43v413h-195v-413h-43v450h281v-450z" />
    <glyph glyph-name="afii10082" unicode="&#x440;" horiz-adv-x="472" 
d="M391 227q0 -234 -143 -234q-18 0 -38 6t-37 16t-30.5 23.5t-19.5 30.5l-5 -12v-225h-43v539q0 26 -0.5 48t-1.5 34h38q2 -25 2.5 -36.5t0.5 -18.5l5 -14q18 36 54 57.5t71 21.5q147 0 147 -236zM345 220q0 220 -113 220q-55 0 -86.5 -58t-31.5 -162q0 -42 9 -78t25.5 -64
t39 -44t50.5 -16q47 0 77 53t30 149z" />
    <glyph glyph-name="afii10083" unicode="&#x441;" horiz-adv-x="408" 
d="M328 129q-4 -61 -37 -99t-91 -38q-69 0 -106.5 62t-37.5 173q0 230 144 230q58 0 91 -35.5t37 -89.5h-40q-4 46 -29 70t-59 24q-46 0 -73 -51.5t-27 -147.5q0 -202 100 -202q35 0 59.5 30.5t28.5 73.5h40z" />
    <glyph glyph-name="afii10084" unicode="&#x442;" horiz-adv-x="364" 
d="M313 413h-120v-413h-45v413h-119v37h284v-37z" />
    <glyph glyph-name="afii10085" unicode="&#x443;" horiz-adv-x="421" 
d="M360 453l-190 -621h-38l46 155l-142 466h43l120 -412l120 412h41z" />
    <glyph glyph-name="afii10086" unicode="&#x444;" horiz-adv-x="682" 
d="M587 223q0 -221 -123 -221q-37 0 -70.5 16.5t-51.5 57.5v-244h-43v244q-6 -20 -19.5 -33.5t-30.5 -23t-36 -13.5t-37 -4q-124 0 -124 221q0 108 31 167t93 59q45 0 76.5 -19t46.5 -52v251h43v-251q21 36 49 53.5t73 17.5q123 0 123 -226zM542 223q0 202 -99 202
q-37 0 -58 -24t-31.5 -56t-13 -66t-2.5 -56q0 -21 3.5 -54.5t15.5 -65.5t32 -55t54 -23q33 0 53 24t30.5 55.5t13 66t2.5 52.5zM304 223q0 25 -3.5 59.5t-14 66t-32 54t-57.5 22.5q-101 0 -101 -202q0 -45 7 -80.5t20 -62.5t32 -41t42 -14q34 0 55.5 24t32.5 55.5t15 65.5
t4 53z" />
    <glyph glyph-name="afii10087" unicode="&#x445;" horiz-adv-x="414" 
d="M345 0h-45l-107 205l-106 -205h-46l133 235l-120 215h42l97 -186l101 186h41l-119 -215z" />
    <glyph glyph-name="afii10088" unicode="&#x446;" horiz-adv-x="468" 
d="M405 -120h-36q2 19 2.5 48t0.5 72h-297v450h42v-418h194v418h44v-418h50v-152z" />
    <glyph glyph-name="afii10089" unicode="&#x447;" horiz-adv-x="410" 
d="M309 0h-44v223q-42 -24 -93 -24q-70 0 -96 32q-21 31 -21 87v132h40v-123q0 -55 20.5 -79.5t69.5 -24.5q41 0 80 18v209h44v-450z" />
    <glyph glyph-name="afii10090" unicode="&#x448;" horiz-adv-x="628" 
d="M516 0h-442v450h40v-418h161v418h40v-418h160v418h41v-450z" />
    <glyph glyph-name="afii10091" unicode="&#x449;" horiz-adv-x="636" 
d="M564 -120h-35q3 19 4.5 48t1.5 72h-461v450h40v-418h160v418h41v-418h159v418h42v-418h48v-152z" />
    <glyph glyph-name="afii10092" unicode="&#x44a;" horiz-adv-x="462" 
d="M381 127q0 -127 -136 -127h-134v415h-78v35h120v-200q51 13 98 13q62 0 96 -36t34 -100zM337 129q0 101 -87 101q-22 0 -46 -4t-51 -10v-184h95q89 0 89 97z" />
    <glyph glyph-name="afii10093" unicode="&#x44b;" horiz-adv-x="557" 
d="M450 0h-45v450h45v-450zM337 130q0 -60 -31.5 -95t-88.5 -35h-143v450h44v-198q21 6 45 8.5t50 2.5q124 0 124 -133zM293 128q0 57 -18 79.5t-66 22.5q-22 0 -44.5 -4t-46.5 -9v-186h98q77 0 77 97z" />
    <glyph glyph-name="afii10094" unicode="&#x44c;" horiz-adv-x="426" 
d="M345 127q0 -127 -135 -127h-135v450h44v-199q44 12 96 12q62 0 96 -36t34 -100zM299 129q0 102 -86 102q-37 0 -94 -16v-183h92q88 0 88 97z" />
    <glyph glyph-name="afii10095" unicode="&#x44d;" horiz-adv-x="408" 
d="M328 221q0 -119 -32.5 -174t-106.5 -55q-131 0 -134 137h41q5 -104 93 -104q50 0 72 45.5t22 149.5h-120v31h120q0 175 -94 175q-41 0 -66 -23t-27 -63h-41q2 53 38 85t96 32q139 0 139 -207v-29z" />
    <glyph glyph-name="afii10096" unicode="&#x44e;" horiz-adv-x="602" 
d="M508 224q0 -232 -156 -232q-157 0 -157 229h-79v-221h-43v450h43v-199h79q0 105 42 155.5t115 50.5q80 0 118 -54.5t38 -178.5zM465 224q0 107 -25.5 154.5t-87.5 47.5q-113 0 -113 -202q0 -199 113 -199t113 199z" />
    <glyph glyph-name="afii10097" unicode="&#x44f;" horiz-adv-x="437" 
d="M335 0h-44v196q-16 2 -36 2.5t-42 0.5q-100 0 -100 -130q0 -23 -1.5 -40t-3.5 -29h-39q2 4 2 9v66q0 100 69 133q-69 40 -69 119q0 59 32.5 91t85.5 32h146v-450zM291 425h-95q-83 0 -83 -98q0 -107 99 -107q44 0 79 12v193z" />
    <glyph glyph-name="afii10071" unicode="&#x451;" horiz-adv-x="435" 
d="M294 501h-44v59h44v-59zM156 501h-42v59h42v-59zM351 255q0 -39 -14 -39h-238v-46q0 -72 29 -110t81 -38q39 0 65.5 25.5t32.5 68.5h39q-3 -58 -39 -92.5t-95 -34.5q-156 0 -156 216q0 231 152 231q67 0 105 -47t38 -134zM307 241v27q0 65 -26.5 102t-71.5 37
q-48 0 -77 -42q-33 -43 -33 -124h208z" />
    <glyph glyph-name="uni10A0" unicode="&#x10a0;" horiz-adv-x="712" 
d="M661 301q0 -135 -88 -223.5t-217 -88.5q-133 0 -220 90t-87 228q0 101 48 178.5t142 134.5h-156v54l531 -4v-53l-306 3q-211 -81 -211 -313q0 -116 70.5 -201t190.5 -83q55 -1 102 20.5t82.5 63t54 90t18.5 101.5q0 35 -8.5 73.5t-25.5 79.5l37 20q43 -84 43 -170z" />
    <glyph glyph-name="uni10A1" unicode="&#x10a1;" horiz-adv-x="594" 
d="M400 0v300q-45 -18 -82.5 -28t-68.5 -10q-87 0 -128.5 44t-56 81t-14.5 82q0 52 26 104.5t71 100.5h58q-55 -50 -81 -99.5t-26 -103.5q1 -83 47 -128t101 -45q34 0 72.5 11t81.5 34v331h49v-638h126v-36h-175z" />
    <glyph glyph-name="uni10A2" unicode="&#x10a2;" horiz-adv-x="571" 
d="M480 -127v127h-149v517q1 129 -108 129q-63 0 -93 -29t-30 -83q0 -21 8 -42t27 -43l-35 -28q-48 63 -48 110q0 65 47 107t119 42q36 0 64.5 -11.5t62 -44.5t33.5 -100v-490h152v-161h-50z" />
    <glyph glyph-name="uni10A3" unicode="&#x10a3;" horiz-adv-x="673" 
d="M575 290q-1 116 -75 189t-165 73q-92 0 -164.5 -74t-72.5 -188t69.5 -191t169.5 -77q107 0 172 80t66 188zM621 290q0 -132 -81 -216.5t-203 -84.5q-118 0 -202.5 85.5t-83.5 216.5q-1 227 266 293v51h-232v39h503v-39h-232v-50q265 -67 265 -295z" />
    <glyph glyph-name="uni10A4" unicode="&#x10a4;" horiz-adv-x="513" 
d="M403 0v447q0 113 -45.5 156t-105.5 43q-69 0 -109.5 -40t-40.5 -107q0 -42 14 -79t39 -66l-33 -34q-38 35 -53.5 78t-15.5 97q0 32 14.5 65t39.5 60.5t63 43.5t82 16t80.5 -14.5t63 -43.5t41.5 -73t15 -102v-447h-49z" />
    <glyph glyph-name="uni10A5" unicode="&#x10a5;" horiz-adv-x="643" 
d="M546 216v208h-169v-424h-49v531q0 33 -9 55t-24.5 35.5t-36 19t-43.5 5.5q-25 0 -46.5 -5.5t-37 -19t-24.5 -36t-9 -56.5q0 -35 32 -79l-31 -36q-25 30 -37 58.5t-12 51.5q0 63 49 110q48 46 116 46q73 0 115 -43q47 -42 47 -107v-71h216v-243h-47z" />
    <glyph glyph-name="uni10A6" unicode="&#x10a6;" horiz-adv-x="609" 
d="M208 424v-211q0 -109 35 -150.5t117 -39.5q58 -1 103.5 49t45.5 166q0 54 -17 100.5t-61.5 66.5t-102.5 20zM558 232q0 -57 -14.5 -102t-41 -76.5t-62.5 -48t-80 -16.5q-45 0 -82 13t-63 36t-39.5 66.5t-13.5 103.5v427h-139v39h185v-214l120 -1q105 0 167 -56.5
t63 -170.5z" />
    <glyph glyph-name="uni10A7" unicode="&#x10a7;" horiz-adv-x="770" 
d="M456 23v623h-66q-151 0 -223 -87q-72 -83 -72 -223q0 -123 69 -216q71 -97 226 -97h66zM672 205v219h-167v-435h-109q-162 -2 -255 93v-1q-94 97 -94 255q0 155 92 250q90 94 257 94h109v-221h215v-254h-48z" />
    <glyph glyph-name="uni10A8" unicode="&#x10a8;" horiz-adv-x="367" 
d="M253 0v630l-228 -4v106h48v-67l229 4v-669h-49z" />
    <glyph glyph-name="uni10A9" unicode="&#x10a9;" horiz-adv-x="505" 
d="M403 372q-1 28 -11 54.5t-27 52.5q-20 26 -48 40t-65 14q-67 0 -151 -27v-170q0 -35 8.5 -65t28.5 -57q42 -53 114 -53q24 1 62 11t89 27v173zM403 0v169q-96 -43 -152 -43q-47 1 -83.5 16t-61.5 45q-26 32 -39.5 73.5t-13.5 90.5v323h49l-1 -145q55 20 92.5 29.5
t57.5 9.5q96 0 146 -63q54 -62 54 -155v-350h-48z" />
    <glyph glyph-name="uni10AA" unicode="&#x10aa;" horiz-adv-x="711" 
d="M613 220q0 117 -54 162q-53 42 -110 42q-32 0 -66.5 -7t-70.5 -22v-172q0 -116 42 -158q41 -41 108 -43q55 2 101 39q23 20 36 59.5t14 99.5zM465 -11q-90 -1 -145.5 57.5t-55.5 177.5v413h-167v-219h-48v256h263v-247q87 32 140 32q103 0 155 -62.5t52 -182.5t-61 -172
q-57 -53 -133 -53z" />
    <glyph glyph-name="uni10AB" unicode="&#x10ab;" horiz-adv-x="727" 
d="M267 424q-61 0 -114 -43q-56 -45 -56 -159q0 -48 12 -85.5t32 -63t47.5 -38.5t58.5 -13q83 0 117.5 50.5t34.5 149.5v202h-132zM612 0l8 424h-173v-202q0 -108 -47.5 -170.5t-152.5 -62.5q-78 0 -139 57q-59 56 -59 176q0 59 15.5 102.5t44.5 74.5q60 61 158 61h132v174
l-284 -4v41q287 3 332 4v-215h222l-10 -460h-47z" />
    <glyph glyph-name="uni10AC" unicode="&#x10ac;" horiz-adv-x="513" 
d="M404 0l6 248q0 48 -12 83.5t-32 55.5q-45 37 -113 37q-40 0 -75.5 -12t-67.5 -35v-377h-48v520q0 78 43 116t137 38h170v-40h-189q-30 0 -52.5 -5.5t-34.5 -16.5q-26 -24 -26 -99v-97q82 43 151 43q99 0 148.5 -57.5t49.5 -158.5l-9 -243h-46z" />
    <glyph glyph-name="uni10AD" unicode="&#x10ad;" horiz-adv-x="712" 
d="M615 335q0 61 -19 114.5t-55 101.5q-75 95 -188 95q-107 0 -182 -94q-36 -48 -55 -101.5t-19 -115.5q0 -133 76 -223q79 -90 180 -90q59 0 106.5 25t83.5 73q34 48 53 102t19 113zM661 -31q-3 -57 -31.5 -84t-85.5 -27q-110 0 -120 135l-69 -4q-127 0 -216 102
q-90 103 -90 244q0 144 92 245q92 100 212 100q124 0 216 -100q92 -101 92 -245q0 -55 -14 -105t-40 -93q-27 -41 -62 -73t-77 -51q0 -126 77 -126q33 1 51.5 22.5t22.5 59.5h42z" />
    <glyph glyph-name="uni10AE" unicode="&#x10ae;" horiz-adv-x="636" 
d="M576 198q0 -82 -55 -148q-53 -61 -140 -61q-88 0 -144 60q-56 62 -56 152v441h-162v38h209v-481q0 -78 43 -127q44 -49 109 -49q32 0 59.5 12.5t47 35.5t30.5 56t11 72v481h48v-482z" />
    <glyph glyph-name="uni10AF" unicode="&#x10af;" horiz-adv-x="532" 
d="M422 0v304q-81 -42 -134 -42q-48 0 -87.5 14t-67.5 40t-43.5 64.5t-15.5 86.5q0 80 87 170h-108v37h166v-38q-98 -53 -98 -174q0 -79 41.5 -122t122.5 -43q53 0 137 44v334h49v-675h-49z" />
    <glyph glyph-name="uni10B0" unicode="&#x10b0;" horiz-adv-x="758" 
d="M651 55l3 369h-208v-206q0 -118 -58 -173q-55 -56 -140 -56q-88 0 -145 57q-55 58 -55 139q0 101 62 157l28 -29q-24 -25 -33 -55.5t-9 -72.5q0 -70 47 -116v1q45 -47 105 -47q81 0 116 49.5t35 145.5v457h47v-216h256q-1 -54 -1.5 -102.5t-1.5 -99.5t-1.5 -100
t-0.5 -102h-46z" />
    <glyph glyph-name="uni10B1" unicode="&#x10b1;" horiz-adv-x="513" 
d="M460 214q-1 -52 -15.5 -93t-45.5 -72q-57 -60 -131 -60q-106 0 -154 69q-52 71 -52 162v454h48v-456q0 -44 11 -80.5t31.5 -62t50 -39t65.5 -13.5q28 0 54 12t45.5 37t31 62t11.5 86q0 87 -56 150l23 36v-1q42 -37 62 -84t21 -107z" />
    <glyph glyph-name="uni10B2" unicode="&#x10b2;" horiz-adv-x="513" 
d="M410 468q0 43 -13 76t-36 55.5t-54 34.5t-67 12h-130v-349h130q36 0 67 10.5t54 31.5t36 53t13 76zM459 468q0 -85 -59 -146q-57 -61 -160 -61h-130v-227h288v-34h-336v681h178q100 -1 159 -62q60 -60 60 -151z" />
    <glyph glyph-name="uni10B3" unicode="&#x10b3;" horiz-adv-x="712" 
d="M615 335q0 121 -73 215q-76 96 -187 96q-54 0 -101.5 -25t-84.5 -73q-34 -47 -53 -101t-19 -112q0 -130 76 -220q79 -93 182 -93q54 0 101 24t85 70q36 46 55 100.5t19 118.5zM661 -27q0 -55 -28 -84t-90 -31v33q37 5 57.5 25.5t21.5 57.5q-1 29 -19 51.5t-51 37.5
q-13 -12 -32.5 -25t-44.5 -24t-55.5 -18t-64.5 -7q-64 0 -118.5 26t-98.5 76q-42 52 -65.5 115t-23.5 130q0 141 90 243q44 51 99 76t119 25q124 0 213 -101q91 -101 91 -244q0 -63 -22 -125t-67 -122q45 -28 67 -57.5t22 -57.5z" />
    <glyph glyph-name="uni10B4" unicode="&#x10b4;" horiz-adv-x="726" 
d="M389 647v-434h56q82 0 132 66q49 65 49 152q0 48 -12.5 87.5t-36 68t-57 44.5t-75.5 16h-56zM344 647h-58q-80 0 -135 -61q-54 -60 -54 -155q0 -90 57 -153q59 -65 132 -65h58v434zM674 431q0 -120 -65 -185t-164 -65h-56v-181h-45v181h-58q-101 0 -171 65
q-66 64 -66 185q0 122 68 184t169 62h159q101 0 166 -60q63 -62 63 -186z" />
    <glyph glyph-name="uni10B5" unicode="&#x10b5;" horiz-adv-x="619" 
d="M520 255v140h-186v-395h-50v404h-233v160h47v-127h186v237h50v-244h233v-175h-47z" />
    <glyph glyph-name="uni10B6" unicode="&#x10b6;" horiz-adv-x="522" 
d="M459 -11h-49v480q0 77 -41 127q-22 23 -49 36.5t-58 12.5q-64 0 -110 -49q-42 -50 -42 -127v-480h-47l-1 479q0 91 57 153q57 60 144 60q44 0 79 -16.5t61 -45.5q27 -33 41.5 -69.5t14.5 -78.5v-482z" />
    <glyph glyph-name="uni10B7" unicode="&#x10b7;" horiz-adv-x="522" 
d="M410 0v300q-100 -38 -157 -38q-97 0 -144 52.5t-47 136.5l12 223h47l-11 -223q0 -81 32.5 -117t107.5 -36q39 0 78.5 10t81.5 33v333h50v-674h-50z" />
    <glyph glyph-name="uni10B8" unicode="&#x10b8;" horiz-adv-x="522" 
d="M459 177q0 -73 -48 -131q-21 -29 -60 -43t-94 -14q-37 0 -74.5 12.5t-64.5 32.5q-26 23 -40.5 55.5t-15.5 74.5l48 1q1 -34 13 -60.5t31.5 -45t45.5 -28t56 -9.5q67 0 110.5 39t43.5 116v127q-45 -20 -83.5 -31t-72.5 -11q-47 0 -83 15t-59 43q-22 29 -36 64.5t-14 67.5
l12 222h47l-11 -222q0 -69 37 -111.5t113 -42.5q35 0 72.5 11t77.5 34v331h49v-497z" />
    <glyph glyph-name="uni10B9" unicode="&#x10b9;" horiz-adv-x="521" 
d="M403 0l7 269q0 67 -32 110q-17 23 -49.5 34t-77.5 11q-30 0 -65 -5.5t-76 -17.5l-1 -401h-47v674h47l1 -241q47 13 83 19.5t65 6.5q83 0 143 -49q58 -48 58 -164l-9 -246h-47z" />
    <glyph glyph-name="uni10BA" unicode="&#x10ba;" horiz-adv-x="671" 
d="M569 0v51q-114 -62 -178 -62q-160 0 -250 102q-45 52 -68 113.5t-23 135.5q0 152 94 246q93 95 242 95q49 -1 98.5 -16t96.5 -42l-29 -46q-42 33 -85 51t-83 18q-116 0 -201 -82q-84 -81 -84 -224q0 -66 20 -121.5t63 -103.5q86 -93 208 -92q67 -1 179 72v203h50v-298
h-50z" />
    <glyph glyph-name="uni10BB" unicode="&#x10bb;" horiz-adv-x="719" 
d="M279 424q-44 0 -79 -16.5t-58 -46.5q-45 -57 -45 -130q0 -49 12 -87.5t34 -65.5t52 -41.5t65 -14.5q63 0 101.5 44.5t38.5 144.5v213h-121zM616 10v414h-169v-213q0 -57 -14 -99t-39 -69t-59 -40.5t-74 -13.5q-103 0 -157.5 64.5t-54.5 177.5q0 106 63 166q64 62 167 62
h121v215h47v-215h214v-449h-45z" />
    <glyph glyph-name="uni10BC" unicode="&#x10bc;" horiz-adv-x="513" 
d="M410 523q0 63 -26 88.5t-74 25.5h-200v-233h200q19 0 37 7.5t32 22t22.5 37t8.5 52.5zM459 524q0 -31 -10.5 -59t-29.5 -52q-19 -20 -47 -33t-62 -13h-200v-137h219v-131h-48v98h-171v-197h-48v674h248q36 0 63.5 -11.5t46.5 -31.5t29 -47.5t10 -59.5z" />
    <glyph glyph-name="uni10BD" unicode="&#x10bd;" horiz-adv-x="523" 
d="M470 178q0 -40 -13 -74.5t-41 -60.5q-53 -54 -141 -54q-53 0 -93 16.5t-69 51.5q-28 31 -43 69.5t-17 83.5h51q2 -35 13 -67.5t30 -58.5q50 -62 126 -62q77 0 112 39.5t35 110.5q0 93 -182 169q-164 64 -164 175q0 30 13 59t36 54v-1q26 25 58.5 38.5t71.5 13.5
q86 0 131 -54q20 -25 32 -54.5t14 -65.5h-46q-1 38 -11 64.5t-30 43.5q-38 32 -95 32q-60 0 -93.5 -35.5t-32.5 -90.5q0 -95 183 -173q165 -70 165 -169z" />
    <glyph glyph-name="uni10BE" unicode="&#x10be;" horiz-adv-x="522" 
d="M459 497q0 -120 -55.5 -178t-149.5 -57q-32 0 -67 3t-77 10v-239h293v-36h-341v674h48v-367q35 -5 71.5 -7t77.5 -2q59 0 104 34q47 38 47 156v186h49v-177z" />
    <glyph glyph-name="uni10BF" unicode="&#x10bf;" horiz-adv-x="578" 
d="M487 639h-307l137 -268zM472 76h-52l-106 229l-178 -305h-57l215 345l-170 294h-101v36h523l-209 -345z" />
    <glyph glyph-name="uni10C0" unicode="&#x10c0;" horiz-adv-x="719" 
d="M660 202q1 -48 -13.5 -86.5t-42.5 -68.5q-55 -58 -137 -58q-48 0 -86.5 17.5t-64.5 47.5q-23 32 -37.5 70.5t-14.5 77.5v435h-168v-154h-47v191h263v-477q0 -61 38 -119q41 -56 118 -56q59 0 103 49q23 25 33 56.5t10 69.5v262h46v-257z" />
    <glyph glyph-name="uni10C1" unicode="&#x10c1;" horiz-adv-x="485" 
d="M333 236v49q0 74 -21.5 106.5t-84.5 32.5h-117v-424h-48v674h47l1 -215h118q71 0 111 -34.5t40 -97.5v-57h80v-35z" />
    <glyph glyph-name="uni10C2" unicode="&#x10c2;" horiz-adv-x="570" 
d="M517 219q0 -109 -70 -169q-70 -61 -167 -61q-96 0 -162 60t-66 174q0 42 16.5 81t32.5 63l39 -24q-16 -26 -28 -56.5t-12 -64.5q0 -51 14 -88.5t38.5 -62.5t58 -37t71.5 -12q96 0 141 52.5t45 144.5q0 63 -45.5 113.5t-125.5 87.5q-68 32 -109 72t-41 85q0 20 10 40
t24 34q18 13 40 21t43 8q48 0 82 -25.5t42 -69.5h-49q-3 35 -21.5 48t-53.5 13q-67 0 -67 -68q0 -87 168 -156q152 -61 152 -203z" />
    <glyph glyph-name="uni10C3" unicode="&#x10c3;" horiz-adv-x="485" 
d="M373 0v261h-107q-42 1 -71.5 12.5t-48.5 36.5q-41 50 -41 119v24h-79v34h125v-26q-3 -22 0.5 -49t12.5 -53q25 -61 100 -61h109v376h50v-674h-50z" />
    <glyph glyph-name="uni10C4" unicode="&#x10c4;" horiz-adv-x="507" 
d="M446 466q0 -113 -61 -157q-31 -22 -56 -33t-48 -11v-265h-47v265q-48 0 -111 45q-61 46 -61 156v208h48v-208q-2 -93 35 -130v1q20 -20 40 -30t45 -10h54q30 0 69 39q43 38 43 130v208h50v-208z" />
    <glyph glyph-name="uni10C5" unicode="&#x10c5;" horiz-adv-x="621" 
d="M428 646q-24 0 -42 -8.5t-30.5 -23.5t-18.5 -35t-6 -42v-90h90q51 0 79.5 28.5t28.5 76.5q0 49 -28 71.5t-73 22.5zM192 236q-17 0 -35 -5t-32.5 -17t-24 -32.5t-9.5 -51.5q1 -49 25 -78.5t75 -28.5q19 0 36 6.5t30.5 19t21.5 31t8 42.5v114h-95zM577 554q0 -30 -11 -55
t-31 -43t-49 -28.5t-65 -10.5h-90v-149h143v-32h-143v-114q0 -59 -43 -96q-41 -37 -96 -37q-68 0 -108 36t-40 105q0 55 40 97v-1q40 42 108 42h95v149h-158v30h158v90q1 71 36 107t98 36q71 0 113.5 -33.5t42.5 -92.5z" />
    <glyph glyph-name="uni10D0" unicode="&#x10d0;" horiz-adv-x="513" 
d="M458 226v-48q-7 -93 -66 -146.5t-134 -53.5q-89 0 -145.5 58t-56.5 166q0 69 37 135l48 -18q-35 -57 -35 -117q0 -102 46.5 -143.5t105.5 -41.5q52 0 98.5 36.5t51.5 123.5v47q0 104 -106.5 197.5t-106.5 257.5h46q0 -154 108.5 -242t108.5 -211z" />
    <glyph glyph-name="uni10D1" unicode="&#x10d1;" horiz-adv-x="524" 
d="M106 209q0 -93 46.5 -142.5t108.5 -49.5q78 0 118 45t40 136v26q0 88 -45.5 137.5t-116.5 55.5q-69 -2 -110 -50.5t-41 -131.5v-26zM188 682q1 -50 79.5 -81t26.5 -153q73 -17 124 -74.5t51 -149.5v-26q0 -97 -57.5 -158.5t-149.5 -61.5q-90 0 -148 64.5t-58 166.5v26
q0 84 45.5 143t148.5 71q58 104 -33 139t-94 94h65z" />
    <glyph glyph-name="uni10D2" unicode="&#x10d2;" horiz-adv-x="537" 
d="M265 443h25q65 53 65 117q0 35 -30 59t-77 24q-53 0 -82.5 -19t-29.5 -44q0 -28 5 -40l-46 -12q-8 26 -8 48q0 40 43.5 73t117.5 33q75 0 116 -39.5t41 -82.5q0 -63 -72 -127q63 -20 111 -80t48 -134v-19q0 -83 -62.5 -152.5t-161.5 -69.5t-161 69.5t-62 158.5v18
q0 82 62 147t158 72zM266 405q-75 -7 -123 -52.5t-48 -129.5v-17q0 -86 51 -137.5t122 -51.5q72 0 123 51.5t51 131.5v18q0 76 -46 130.5t-130 56.5z" />
    <glyph glyph-name="uni10D3" unicode="&#x10d3;" horiz-adv-x="811" 
d="M704 424v38q0 92 -38.5 137.5t-104.5 45.5t-111 -46t-45 -133v-31q0 -104 45 -150.5t109 -46.5q48 0 96.5 46t48.5 140zM355 432v28q0 50 21 104q-49 77 -131 78q-66 -1 -103.5 -48t-37.5 -109v-37q0 -117 71.5 -206.5t233 -134t213.5 -121.5h-83q-12 40 -81 62.5
t-132.5 15t-165.5 -58.5v59q46 21 171 27q-154 62 -214.5 160.5t-60.5 195.5v36q0 76 47.5 136t142.5 61q90 -1 149 -83q65 85 160 85q86 0 143 -56t57 -166v-36q0 -87 -58 -156t-142 -69q-85 0 -142.5 67t-57.5 166z" />
    <glyph glyph-name="uni10D4" unicode="&#x10d4;" horiz-adv-x="524" 
d="M458 166q0 -99 -59.5 -143.5t-139.5 -44.5q-79 0 -141 54t-62 150q0 86 46 150l41 -22q-37 -46 -37 -128q0 -99 52.5 -132t100.5 -33q58 0 105.5 29t47.5 120v349q0 80 -43.5 104t-87.5 24q-59 0 -95.5 -29.5t-36.5 -77.5q0 -42 20 -67l-43 -21q-24 36 -24 88
q0 58 48.5 102t127.5 44q77 0 128.5 -42.5t51.5 -124.5v-349z" />
    <glyph glyph-name="uni10D5" unicode="&#x10d5;" horiz-adv-x="524" 
d="M469 158q0 -83 -49 -132t-155 -49q-90 0 -149.5 55t-59.5 141q0 50 34 120l45 -18q-29 -59 -29 -102q0 -78 47.5 -118.5t111.5 -40.5q75 0 114.5 36t39.5 97v55q0 77 -46 111t-89 34h-37v38h38q37 0 85.5 37.5t48.5 99.5q0 53 -44.5 87t-107.5 34q-54 0 -94 -32t-40 -81
q0 -29 20 -69l-45 -18q-24 44 -24 86q0 63 52 108t130 45q97 0 150 -47.5t53 -113.5q0 -96 -127 -158q127 -43 127 -166v-39z" />
    <glyph glyph-name="uni10D6" unicode="&#x10d6;" horiz-adv-x="544" 
d="M488 206q0 -114 -64.5 -171t-147.5 -57q-79 0 -145 58t-66 170v12q0 46 23 91.5t88 83.5q-51 6 -96.5 44t-45.5 102q0 55 43.5 99t124.5 44q83 0 127.5 -47t44.5 -93q0 -48 -21 -76t-53 -47q67 -8 127.5 -61.5t60.5 -139.5v-12zM114 209q0 -108 56.5 -150t105.5 -42
q48 0 105.5 42t57.5 150v4q0 81 -50 128t-113 47q-67 0 -114.5 -53t-47.5 -123v-3zM324 539q0 51 -35.5 77.5t-85.5 26.5q-47 0 -83 -26t-36 -80q0 -52 39 -85.5t80 -33.5q59 0 90 34t31 87z" />
    <glyph glyph-name="uni10D7" unicode="&#x10d7;" horiz-adv-x="827" 
d="M419 416q0 144 -44.5 185.5t-109.5 41.5q-73 0 -116 -51.5t-43 -175.5v-139q0 -135 42 -197.5t113 -62.5q68 0 114.5 63t43.5 196v140zM469 402v-125q0 -144 -56.5 -221.5t-151.5 -77.5q-94 0 -149.5 77.5t-55.5 219.5v143q0 134 58.5 199t149.5 65q55 0 99 -23t68 -77
q66 100 154 100q84 0 135 -67t51 -198v-91q0 -200 -118 -349l-54 17q123 142 123 335v87q0 130 -41 178.5t-86 48.5q-73 0 -148 -93q22 -69 22 -148z" />
    <glyph glyph-name="uni10D8" unicode="&#x10d8;" horiz-adv-x="501" 
d="M56 404q0 139 55 208.5t140 69.5q84 0 139 -69.5t55 -208.5v-81q0 -185 -64 -330l-59 11q74 97 74 319v81q0 127 -37 183t-108 56q-72 0 -108.5 -56t-36.5 -183v-81q0 -220 67 -325l-59 -11q-58 153 -58 336v81z" />
    <glyph glyph-name="uni10D9" unicode="&#x10d9;" horiz-adv-x="513" 
d="M458 173q0 -98 -58.5 -146.5t-147.5 -48.5q-83 0 -145 55.5t-62 154.5q0 58 36 114l42 -19q-28 -43 -28 -95q0 -91 53.5 -131t103.5 -40q55 0 105.5 30t50.5 126v81q0 125 -140 140h-77v40h78q121 6 121 107q0 44 -39 115l35 27q53 -95 53 -142q0 -93 -112 -127
q131 -57 131 -159v-82z" />
    <glyph glyph-name="uni10DA" unicode="&#x10da;" horiz-adv-x="1005" 
d="M949 488v-28q0 -107 -82 -210l-55 11q88 103 88 203v24q0 150 -121 150q-60 0 -93.5 -48.5t-33.5 -102.5v-127h-43v126q0 76 -30 116.5t-76 40.5q-47 0 -77 -46t-30 -111v-126h-43v126q0 55 -33.5 103.5t-94.5 48.5q-45 0 -82 -42t-37 -119v-41q0 -116 105 -208.5
t300.5 -115.5t263.5 -129h-79q-11 63 -116.5 79t-191.5 4.5t-181 -49.5v50q65 22 171 32q-161 41 -241.5 135.5t-80.5 202.5v40q0 72 41 135.5t130 63.5q49 0 85.5 -28t61.5 -89q15 67 50.5 95t78.5 28q45 0 77.5 -28t51.5 -96q15 62 54 90t93 28q170 0 170 -188z" />
    <glyph glyph-name="uni10DB" unicode="&#x10db;" horiz-adv-x="535" 
d="M259 428q-60 0 -106.5 -48.5t-46.5 -134.5v-46q0 -81 45.5 -131.5t107.5 -50.5q69 0 116.5 36.5t47.5 140.5v51q0 79 -44 131t-120 52zM56 245q0 81 56 150.5t147 69.5q105 0 164 -94v145q0 66 -37 96.5t-116 30.5q-64 0 -96 -17.5t-32 -37.5q0 -14 5 -30l-44 -11
q-7 19 -7 44q0 32 44 61.5t130 29.5q105 0 152 -44.5t47 -135.5v-308q0 -111 -53 -163.5t-154 -52.5q-88 0 -147 65t-59 156v46z" />
    <glyph glyph-name="uni10DC" unicode="&#x10dc;" horiz-adv-x="535" 
d="M430 199v46q1 90 -42 136.5t-118 46.5q-67 0 -112.5 -48t-45.5 -135v-51q0 -86 40 -131.5t118 -45.5q79 0 119.5 49.5t40.5 132.5zM480 199q0 -90 -56 -155.5t-154 -65.5q-97 0 -150 55.5t-53 160.5v374q0 104 121 104h164q42 0 42 18h59q0 -56 -101 -56h-166
q-74 0 -74 -58v-202q57 91 158 91q111 0 160.5 -63.5t49.5 -156.5v-46z" />
    <glyph glyph-name="uni10DD" unicode="&#x10dd;" horiz-adv-x="783" 
d="M368 224v248q0 91 -36 131t-82 40q-55 0 -99.5 -46t-44.5 -183v-67q0 -216 142 -350l-62 -11q-130 141 -130 361v67q0 150 61 209t131 59q44 0 81 -28.5t63 -89.5q25 61 62 89.5t80 28.5q71 0 132 -59t61 -209v-67q0 -220 -133 -361l-63 11q146 134 146 350v67
q0 137 -44.5 183t-99.5 46q-46 0 -82 -40t-36 -131v-248h-47z" />
    <glyph glyph-name="uni10DE" unicode="&#x10de;" horiz-adv-x="524" 
d="M429 502q0 -96 -122 -129q162 -54 162 -190v-10q0 -73 -56 -134t-148 -61q-90 0 -149.5 55t-59.5 147q0 66 33 122l44 -17q-27 -52 -27 -105q0 -84 49.5 -123.5t109.5 -39.5q58 0 106 45.5t48 110.5v9q0 135 -154 171h-41v42h31q131 16 131 107q0 70 -113 74t-113 103h54
q0 -72 107.5 -78t107.5 -99z" />
    <glyph glyph-name="uni10DF" unicode="&#x10df;" horiz-adv-x="535" 
d="M469 188q0 -108 -63 -159t-147 -51q-81 0 -142 49t-61 136q0 54 21 98l44 -18q-15 -37 -15 -79q0 -72 47 -109.5t106 -37.5q60 0 112 40.5t52 129.5v454q-122 -24 -268 -26q157 -33 157 -138q0 -50 -39.5 -84.5t-110.5 -34.5h-70v50l70 -5q51 -5 77 14t26 66
q0 53 -51.5 83t-118.5 30v45q196 4 335 41h39v-494z" />
    <glyph glyph-name="uni10E0" unicode="&#x10e0;" horiz-adv-x="802" 
d="M696 286q0 84 -41 130t-99 46q-52 0 -90.5 -44t-38.5 -97v-131h-44v131q0 53 -37 97t-96 44q-55 0 -99.5 -44.5t-44.5 -131.5v-34q0 -126 146 -255l-68 -11q-128 123 -128 278v30q0 53 20.5 117.5t99 142.5t320.5 127l13 -49q-312 -41 -373 -177q84 43 117 43
q63 0 94.5 -27.5t57.5 -85.5q25 58 60 85.5t91 27.5q94 0 142 -61.5t48 -143.5v-30q0 -155 -136 -277l-68 11q154 127 154 255v34z" />
    <glyph glyph-name="uni10E1" unicode="&#x10e1;" horiz-adv-x="535" 
d="M480 178q0 -76 -56 -138t-159 -62q-99 0 -148.5 64t-49.5 163v473h45v-473q-2 -96 41.5 -142t111.5 -46t116.5 40.5t48.5 120.5q0 93 -69 139t-69 115q0 62 13 119l49 -15q-16 -45 -16 -97q0 -63 71 -111.5t71 -149.5z" />
    <glyph glyph-name="uni10E2" unicode="&#x10e2;" horiz-adv-x="595" 
d="M286 625q-91 -10 -141 -86.5t-50 -189.5v-54q0 -134 60.5 -206t146.5 -72q92 0 145 72t53 206v54q0 111 -48 188.5t-136 87.5l12 -373h-54zM45 349q0 132 69 218t172 86l-24 29h76l-22 -29q94 0 164 -86t70 -218v-54q0 -138 -60 -227.5t-192 -89.5q-119 0 -186 89.5
t-67 227.5v54z" />
    <glyph glyph-name="uni10E3" unicode="&#x10e3;" horiz-adv-x="524" 
d="M458 173q0 -100 -54 -147.5t-157 -47.5q-87 0 -144.5 54t-57.5 148q0 83 41 143l41 -22q-32 -48 -32 -117q0 -88 44.5 -127.5t107.5 -39.5q72 0 118.5 30t46.5 133v373q0 90 -81 90q-45 0 -61.5 -34.5t-16.5 -72.5v-110h-42v110q0 39 -18 73t-44 34q-24 0 -38.5 -11.5
t-44.5 -11.5h-43v59l47 -20q19 0 35.5 11.5t43.5 11.5q50 0 82 -100q25 100 108 100q119 0 119 -142v-367z" />
    <glyph glyph-name="uni10E4" unicode="&#x10e4;" horiz-adv-x="765" 
d="M376 495q0 62 -35 105t-94 43t-100 -33t-41 -114v-55q0 -82 38.5 -119.5t97.5 -37.5q58 0 96 37t38 120v54zM426 494v-54q-7 -82 -53 -139.5t-131 -57.5q-78 0 -132 58.5t-54 139.5v55q0 79 49.5 132.5t141.5 53.5q93 0 146 -88q51 85 150 85q77 0 121.5 -52.5
t44.5 -136.5q0 -107 -110 -164q97 -33 99 -133v-42q0 -62 -63.5 -117.5t-182.5 -55.5q-112 0 -180.5 42t-68.5 92v38h51v-38q-2 -37 51.5 -66t145.5 -29q93 0 146 38.5t53 95.5v39q-1 117 -107 117h-45v40h47q115 7 115 143q0 74 -34.5 112t-85.5 38q-82 0 -132 -76
q18 -45 18 -70z" />
    <glyph glyph-name="uni10E5" unicode="&#x10e5;" horiz-adv-x="535" 
d="M469 168q0 -97 -57.5 -143.5t-152.5 -46.5q-83 0 -143 49.5t-60 129.5q0 69 24 108l44 -24q-18 -25 -18 -84q0 -62 44.5 -101t108.5 -39t114 33.5t50 117.5v183q0 32 -68 101.5t-135 68.5q-32 1 -49 -18t-17 -56q0 -36 16 -65l-47 -17q-19 42 -19 82q-1 54 32 83t84 29
q91 0 203 -129v213h-114v36h160v-511z" />
    <glyph glyph-name="uni10E6" unicode="&#x10e6;" horiz-adv-x="770" 
d="M714 486v-28q0 -91 -89 -208l-54 11q93 102 93 194v28q0 82 -39 121t-93 39q-57 0 -91 -42t-34 -88v-105h-43v105q0 46 -34 88t-96 42q-57 0 -92.5 -42.5t-35.5 -115.5v-22q0 -217 228.5 -307.5t247.5 -172.5h-75q-26 72 -79 95.5t-125 11t-140 -72.5v58q55 43 161 48
q-268 97 -268 343v18q0 79 48 138.5t130 59.5q99 0 153 -110q44 110 145 110q94 0 138 -56.5t44 -139.5z" />
    <glyph glyph-name="uni10E7" unicode="&#x10e7;" horiz-adv-x="535" 
d="M469 159q0 -90 -53.5 -135.5t-150.5 -45.5q-80 0 -144.5 48t-64.5 138q0 15 7 43l48 -13q-5 -17 -5 -30q0 -68 47 -107.5t112 -39.5q71 0 116 32t45 110v189q-56 -86 -157 -86q-90 0 -140.5 51t-50.5 157q0 115 112 212l33 -29q-96 -89 -96 -184q0 -102 43.5 -137.5
t98.5 -35.5q61 0 109 49.5t48 113.5v212h43v-512z" />
    <glyph glyph-name="uni10E8" unicode="&#x10e8;" horiz-adv-x="528" 
d="M416 358v205q0 51 -17.5 65.5t-53.5 14.5q-31 0 -55 -27.5t-24 -47.5v-27h-48v27q0 20 -19 47.5t-65 27.5q-50 0 -50 -56v-59h-50v64q0 48 29 69t70 21q65 0 111 -79q44 79 104 79q64 0 88.5 -34t24.5 -86v-368q0 -111 -53.5 -163.5t-154.5 -52.5q-88 0 -147 65t-59 156
v24q0 81 56 150.5t148 69.5q104 0 165 -85zM251 406q-61 0 -107.5 -48.5t-46.5 -134.5v-24q0 -81 45.5 -131.5t108.5 -50.5q68 0 116 36.5t49 140.5v29q0 79 -44.5 131t-120.5 52z" />
    <glyph glyph-name="uni10E9" unicode="&#x10e9;" horiz-adv-x="535" 
d="M362 555h-45v26q0 28 -23.5 45t-70.5 17q-54 0 -82.5 -35.5t-28.5 -100.5v-134q77 92 171 92q93 0 145 -55.5t52 -134.5v-24q0 -146 -115 -256l-59 11q124 111 124 243v25q0 74 -42.5 114t-104.5 40q-63 0 -117 -53.5t-54 -108.5v-265h-45v509q0 67 39 119.5t121 52.5
q73 0 104.5 -33.5t31.5 -67.5q0 -15 -1 -26z" />
    <glyph glyph-name="uni10EA" unicode="&#x10ea;" horiz-adv-x="573" 
d="M492 490q0 -76 -103 -126q128 -60 128 -141v-28q0 -106 -63.5 -161.5t-157.5 -55.5q-107 0 -173.5 75t-66.5 176v188q0 135 86 263l44 -23q-80 -102 -80 -236v-193q0 -93 56 -152t138 -59q65 0 117 43t52 138v23q0 40 -48.5 81.5t-96.5 41.5h-59v37h59q46 0 82 31.5
t36 78.5q0 35 -70 79t-70 103l50 6q0 -50 70 -93t70 -96z" />
    <glyph glyph-name="uni10EB" unicode="&#x10eb;" horiz-adv-x="535" 
d="M259 428q-60 0 -106.5 -48.5t-46.5 -134.5v-46q0 -81 45.5 -131.5t107.5 -50.5q69 0 116.5 39.5t47.5 142.5v46q0 79 -44 131t-120 52zM469 199q0 -111 -53 -166t-154 -55q-88 0 -147 65t-59 156v46q0 81 56 150.5t147 69.5q105 0 164 -94v308h46v-480z" />
    <glyph glyph-name="uni10EC" unicode="&#x10ec;" horiz-adv-x="527" 
d="M276 406q-76 0 -120 -52t-44 -131v-29q0 -104 48 -140.5t116 -36.5q63 0 108.5 50.5t45.5 131.5v24q0 86 -47 134.5t-107 48.5zM112 358q60 85 164 85q91 0 147.5 -69.5t56.5 -150.5v-24q0 -91 -59 -156t-147 -65q-101 0 -154 52.5t-53 163.5v368q0 52 23.5 86t88.5 34
q60 0 104 -79q46 79 111 79q40 0 69.5 -21t29.5 -69v-64h-50v59q0 56 -50 56q-47 0 -65 -27.5t-18 -50.5v-26h-51v26q0 23 -23.5 50.5t-54.5 27.5q-35 0 -52 -14.5t-17 -65.5v-205z" />
    <glyph glyph-name="uni10ED" unicode="&#x10ed;" horiz-adv-x="502" 
d="M427 549v-38h-106q0 -87 68.5 -168t68.5 -165v-9q0 -70 -57.5 -130.5t-149.5 -60.5q-93 0 -149.5 61.5t-56.5 134.5q0 37 23 78l44 -19q-17 -27 -17 -59q0 -77 47.5 -117t108.5 -40q67 0 112 44.5t45 109.5v5q0 87 -65 164t-65 171h-80q-57 0 -72.5 -25.5t-15.5 -48.5
q0 -21 17 -44t72 -23h23v-38h-23q-66 0 -99 32.5t-33 73.5q0 39 31.5 75t99.5 36h82v91h-105v39h147v-130h105z" />
    <glyph glyph-name="uni10EE" unicode="&#x10ee;" horiz-adv-x="535" 
d="M67 679h45v-308q60 94 164 94q91 0 147.5 -69.5t56.5 -150.5v-46q0 -91 -59 -156t-147 -65q-101 0 -154 54.5t-53 165.5v481zM276 428q-76 0 -120 -52t-44 -131v-47q0 -103 48 -142t116 -39q63 0 108.5 50.5t45.5 131.5v46q0 86 -47 134.5t-107 48.5z" />
    <glyph glyph-name="uni10EF" unicode="&#x10ef;" horiz-adv-x="423" 
d="M325 132q0 -141 -302 -149v47q252 -4 253 102q4 105 -173 118l-28 26l113 150l-158 80l22 36l159 -83l46 60q38 58 23 91t-52 33q-40 0 -83 -25l-19 35q32 29 103 29q62 0 87.5 -51.5t-13.5 -120.5l-55 -69l152 -78l-19 -35l-152 78l-91 -119q183 -24 187 -155z" />
    <glyph glyph-name="uni10F0" unicode="&#x10f0;" horiz-adv-x="515" 
d="M459 135q0 -58 -54 -107.5t-155 -49.5q-105 0 -155 55.5t-49 116.5q0 58 11 94l47 -13q-8 -33 -8 -83q0 -60 47.5 -95.5t107.5 -35.5q66 0 112 35t46 81q0 131 -233 171v39q83 -13 136 -39q24 -11 50 4.5t26 47.5q0 73 -212 105v38q71 -6 119 -26q25 -7 48.5 8.5
t23.5 44.5q0 50 -108 71t-108 85h51q0 -37 107.5 -62t107.5 -95q0 -46 -72 -73q93 -43 93 -102q0 -46 -79 -73q100 -62 100 -142z" />
    <glyph glyph-name="uni10F1" unicode="&#x10f1;" horiz-adv-x="524" 
d="M122 684l45 -22q-61 -76 -61 -230v-217q0 -123 44 -160.5t128 -37.5q78 0 109.5 27t31.5 64q0 87 -106 87h-55v32h55q98 0 98 56q0 59 -105 59h-48v31h48q100 0 100 60q0 55 -107 55h-41v32h41q100 0 100 54q0 39 -45.5 53t-45.5 54h48q0 -24 47 -46.5t47 -57.5
q0 -48 -76 -71q81 -23 81 -73q0 -51 -81 -77q87 -23 87 -72q0 -50 -82 -74q90 -25 90 -103q0 -67 -56.5 -98t-134.5 -31q-53 0 -96.5 13.5t-70.5 40.5t-41 62t-14 122v219q0 152 66 249z" />
    <glyph glyph-name="uni10F2" unicode="&#x10f2;" horiz-adv-x="524" 
d="M106 428v-100q0 -161 156 -266q157 101 157 265v101q0 89 -45.5 153t-111.5 64q-64 0 -110 -64t-46 -153zM56 9q51 0 167 33q-167 126 -167 286v100q0 125 60.5 189.5t145.5 64.5q84 0 145.5 -64.5t61.5 -189.5v-101q0 -159 -166 -285q115 -33 166 -33v-54q-14 0 -205 69
q-195 -67 -207 -67h-1v52z" />
    <glyph glyph-name="uni10F3" unicode="&#x10f3;" horiz-adv-x="524" 
d="M469 169q0 -79 -60.5 -135t-147.5 -56q-83 0 -143.5 54.5t-60.5 146.5q-1 71 22 147l50 -13q-23 -76 -23 -134q0 -72 44 -117t111 -45q72 0 115 46.5t43 105.5v40q0 79 -53.5 120t-104.5 41h-72v39h69q45 0 103 58t58 168h-294v-106h-49v144h393q0 -227 -169 -284
q169 -47 169 -180v-40z" />
    <glyph glyph-name="uni10F4" unicode="&#x10f4;" horiz-adv-x="524" 
d="M469 189q0 -114 -63.5 -162.5t-143.5 -48.5q-84 0 -145 59.5t-61 137.5q0 94 31 154l43 -20q-24 -55 -24 -134q0 -70 47 -114t109 -44q67 0 112 36.5t45 135.5v6q0 76 -48 112.5t-85 36.5h-62v39h62q36 0 85 48.5t48 203.5q-74 -103 -200 -103q-75 0 -119 43.5t-44 106.5
h50q0 -48 30.5 -81t82.5 -33q115 0 202 114h48v-70q0 -199 -141 -250q141 -40 141 -167v-6z" />
    <glyph glyph-name="uni10F5" unicode="&#x10f5;" horiz-adv-x="587" 
d="M106 542q0 -63 41 -86.5t156 -23.5h116v98q0 44 -42.5 78.5t-118.5 34.5q-66 0 -109 -26.5t-43 -74.5zM419 250h-123q-117 0 -153.5 -36t-36.5 -93q0 -42 42.5 -73t109.5 -31q76 0 118.5 36.5t42.5 76.5v120zM469 250v-118q0 -65 -64.5 -109.5t-145.5 -44.5
q-101 0 -152 48.5t-51 93.5q0 77 50.5 122t192.5 45h120v107h-116q-145 0 -196 36t-51 112q0 55 53.5 97.5t149.5 42.5q94 0 152 -43.5t58 -109.5v-100h62v-35h-62v-107h62v-37h-62z" />
    <glyph glyph-name="uni10FB" unicode="&#x10fb;" horiz-adv-x="452" 
d="M55 50q0 18 14.5 32.5t36.5 14.5q21 0 35 -14t14 -33q0 -22 -15 -36t-34 -14q-21 0 -36 15t-15 35zM55 365q0 18 14.5 33t36.5 15q21 0 35 -14t14 -34q0 -22 -15 -35.5t-34 -13.5q-21 0 -36 14t-15 35zM297 207q0 19 14.5 33.5t36.5 14.5q21 0 35 -13.5t14 -34.5
q0 -22 -15 -36t-34 -14q-21 0 -36 15t-15 35z" />
    <glyph glyph-name="uni10FC" unicode="&#x10fc;" horiz-adv-x="334" 
d="M248 404q0 47 -25 78.5t-59 31.5q-31 0 -54 -32.5t-23 -82.5q0 -26 6.5 -48.5t17.5 -39t25.5 -25.5t30.5 -9q32 0 56.5 35.5t24.5 91.5zM169 541q55 0 82.5 -39.5t27.5 -97.5q0 -80 -29 -117t-83 -37q-112 0 -112 153v177q0 95 97 95h126v-26h-138q-30 0 -41.5 -19.5
t-11.5 -39.5v-89q15 19 40 29.5t42 10.5z" />
    <glyph glyph-name="figuredash" unicode="&#x2012;" horiz-adv-x="663" 
d="M695 190h-695v39h695v-39z" />
    <glyph glyph-name="endash" unicode="&#x2013;" horiz-adv-x="484" 
d="M-11 187v42h506v-42h-506z" />
    <glyph glyph-name="emdash" unicode="&#x2014;" horiz-adv-x="682" 
d="M-11 187v42h704v-42h-704z" />
    <glyph glyph-name="quoteleft" unicode="&#x2018;" horiz-adv-x="269" 
d="M193 673q-41 -44 -57 -76t-16 -59q0 -6 1 -12l2 -12q1 1 9 1h5q19 0 33 -10.5t14 -29.5q0 -26 -16 -37t-34 -11q-26 0 -41.5 16.5t-15.5 55.5q0 49 26 100t72 91z" />
    <glyph glyph-name="quoteright" unicode="&#x2019;" horiz-adv-x="269" 
d="M77 443q39 44 55 75t16 58q0 7 -0.5 13t-1.5 13q-1 -1 -9 -1h-5q-19 0 -33 10t-14 29q0 25 16.5 37.5t33.5 12.5q26 0 42 -17t16 -57q0 -50 -26 -99t-72 -90z" />
    <glyph glyph-name="quotesinglbase" unicode="&#x201a;" horiz-adv-x="269" 
d="M77 -158q39 42 55 73.5t16 59.5q0 6 -0.5 12t-1.5 13q-1 -1 -9 -1h-5q-19 0 -33 10.5t-14 28.5q0 26 16.5 37.5t33.5 11.5q26 0 42 -17t16 -56q0 -49 -26 -99t-72 -91z" />
    <glyph glyph-name="quotedblleft" unicode="&#x201c;" horiz-adv-x="333" 
d="M313 673q-39 -44 -56.5 -76.5t-17.5 -59.5v-24l19 2q19 0 33.5 -10.5t14.5 -29.5q0 -26 -16.5 -37t-34.5 -11q-25 0 -41 16.5t-16 55.5q0 49 26 99.5t72 91.5zM148 673q-41 -44 -57.5 -77t-17.5 -60l-2 -24l23 3q18 0 30 -10.5t12 -29.5q0 -26 -14 -37t-32 -11
q-26 0 -41.5 16.5t-15.5 55.5q0 49 26 100t72 91z" />
    <glyph glyph-name="quotedblright" unicode="&#x201d;" horiz-adv-x="430" 
d="M77 443q39 44 55 75t16 58q0 7 -0.5 13t-1.5 13l-9 -1h-5q-19 0 -33 10t-14 29q0 25 16.5 37.5t33.5 12.5q26 0 42 -17t16 -57q0 -50 -26 -99t-72 -90zM238 443q39 44 55 75t16 58q0 7 -0.5 13t-1.5 13l-9 -1h-4q-19 0 -33.5 10t-14.5 29q0 25 16 37.5t35 12.5
q25 0 40.5 -17t15.5 -57q0 -50 -26 -100t-72 -89z" />
    <glyph glyph-name="quotedblbase" unicode="&#x201e;" horiz-adv-x="430" 
d="M77 -158q39 42 55 73.5t16 59.5q0 6 -0.5 12t-1.5 13l-14 -1q-19 0 -33 10.5t-14 28.5q0 26 16.5 37.5t33.5 11.5q26 0 42 -17t16 -56q0 -49 -26 -99t-72 -91zM238 -158q39 42 55 73.5t16 59.5q0 6 -0.5 12t-1.5 13l-13 -1q-19 0 -33.5 10.5t-14.5 28.5q0 26 16 37.5
t35 11.5q25 0 40.5 -17t15.5 -56q0 -49 -26 -99.5t-72 -90.5z" />
    <glyph glyph-name="dagger" unicode="&#x2020;" horiz-adv-x="583" 
d="M318 690v-215l204 -50v-42l-209 50v-462h-48v467l-204 -52v42l208 52v210h49z" />
    <glyph glyph-name="bullet" unicode="&#x2022;" horiz-adv-x="550" 
d="M187 289q0 17 7 32.5t19.5 27t28 18t33.5 6.5t33.5 -6.5t28 -18t19.5 -27t7 -32.5t-7 -32.5t-19.5 -26.5t-28 -17.5t-33.5 -6.5t-33.5 6.5t-28 17.5t-19.5 26.5t-7 32.5z" />
    <glyph glyph-name="ellipsis" unicode="&#x2026;" horiz-adv-x="551" 
d="M33 50q0 17 14.5 31.5t36.5 14.5q21 0 35 -13.5t14 -32.5q0 -22 -15 -36t-34 -14q-21 0 -36 15t-15 35zM231 50q0 17 14.5 31.5t36.5 14.5q20 0 34.5 -13.5t14.5 -32.5q0 -22 -15 -36t-34 -14q-21 0 -36 15t-15 35zM429 50q0 17 14.5 31.5t36.5 14.5q21 0 35 -13.5
t14 -32.5q0 -22 -15 -36t-34 -14q-21 0 -36 15t-15 35z" />
    <glyph glyph-name="guilsinglleft" unicode="&#x2039;" horiz-adv-x="396" 
d="M152 235l160 -234h-51l-187 234l187 237h52z" />
    <glyph glyph-name="guilsinglright" unicode="&#x203a;" horiz-adv-x="396" 
d="M244 239l-162 233h52l182 -231l-182 -240h-52z" />
    <glyph glyph-name="Euro" unicode="&#x20ac;" horiz-adv-x="583" 
d="M547 48q-28 -17 -68.5 -32.5t-100.5 -15.5q-65 0 -116 21t-88.5 57t-60.5 85.5t-31 105.5h-68v37h65v13q0 29 3 56h-68v36h75q9 53 33.5 100t64 82.5t91 56t115.5 20.5q54 0 89 -12t55 -22l-16 -39q-24 15 -58.5 24t-74.5 9q-53 0 -94.5 -17t-72.5 -46.5t-51 -69.5
t-30 -86h353v-36h-359q-3 -26 -3 -52v-17h362v-37h-359q7 -56 29 -97.5t54.5 -71t75 -44t90.5 -14.5q54 0 91.5 14t58.5 26z" />
    <glyph glyph-name="afii61352" unicode="&#x2116;" horiz-adv-x="970" 
d="M904 70v-39h-211v39h211zM796 382q-33 0 -53 -23.5t-20 -51.5q0 -31 22 -52.5t51 -21.5q41 0 60 21.5t19 56.5q0 26 -21.5 48.5t-57.5 22.5zM796 422q29 0 51 -9.5t37 -25t22.5 -35.5t7.5 -42q0 -47 -30 -80.5t-88 -33.5q-25 0 -46 9.5t-35.5 25t-22.5 36.5t-8 44
q0 21 8 41.5t21.5 35.5t34.5 24.5t48 9.5zM744 581q-9 22 -26.5 39.5t-41.5 17.5q-26 0 -43.5 -21.5t-17.5 -46.5v-570h-46l-275 513l-30 71v-476q0 -20 -7.5 -39t-21 -34t-32.5 -25t-42 -10q-19 0 -36 9t-31.5 22t-24.5 31.5t-14 39.5h39q8 -24 26.5 -45.5t35.5 -21.5
q28 0 47 21.5t19 51.5v500h-101v40h148l273 -505l30 -63v490q0 21 9 40.5t23.5 34.5t33.5 24t38 9q41 0 72 -27.5t42 -69.5h-46z" />
    <glyph glyph-name="trademark" unicode="&#x2122;" horiz-adv-x="700" 
d="M639 397l-13 254h-2l-102 -249h-47l-100 249h-2l-18 -254h-46l31 285h60l99 -244h3l97 244h61l29 -285h-50zM299 682v-34h-110v-251h-41v251h-110v34h261z" />
    <glyph glyph-name="uni2D00" unicode="&#x2d00;" horiz-adv-x="459" 
d="M110 36q170 50 172 48q88 28 68 -71l-16 -74h-43l15 74q11 48 -25 38l-172 -51q-90 -25 -70 73l70 334h44l-15 -68q209 61 211 59q89 28 68 -71l-15 -74h-43l14 74q11 48 -25 38l-217 -62l-49 -230q-10 -48 28 -37z" />
    <glyph glyph-name="uni2D01" unicode="&#x2d01;" horiz-adv-x="469" 
d="M329 123l59 284h43l-60 -282q-19 -75 7 -107.5t12 -97.5q-24 -113 -207 -113q-175 0 -181 108h43q10 -77 146 -76q138 -1 157 85q12 61 -10 96q-11 17 -14 43q-218 -63 -220 -61q-89 -28 -68 71l73 334h41l-71 -335q-10 -47 24 -38l222 64q1 12 4 25z" />
    <glyph glyph-name="uni2D02" unicode="&#x2d02;" horiz-adv-x="423" 
d="M127 407l-9 -41q183 34 185 32q89 28 68 -71l-45 -162q-21 -86 23 -127t38 -103q-4 -67 -62.5 -97.5t-149.5 -30.5q-159 0 -165 123l14 56h35l-12 -53q1 -95 137 -95q69 0 107.5 22t51.5 72q6 63 -36.5 98t-23.5 135l44 162q11 48 -25 38l-192 -35l-38 -176h-42l53 253
h44z" />
    <glyph glyph-name="uni2D03" unicode="&#x2d03;" horiz-adv-x="475" 
d="M383 308q16 77 -49 64q-134 -22 -167.5 -43t-43.5 -58l-37 -174q-17 -78 42 -75q192 8 212 98zM385 127q-28 -134 -247 -134q-118 -7 -94 107l37 174q9 40 53.5 69t122.5 46v175l-105 -21q-50 -9 -32 98h39q-14 -67 39 -58l199 44q86 21 70 -60h-17q-3 38 -70 21l-85 -19
v-172l60 9q94 8 72 -90z" />
    <glyph glyph-name="uni2D04" unicode="&#x2d04;" horiz-adv-x="458" 
d="M152 407l-15 -68q199 60 201 58q100 37 76 -71l-73 -342l31 -177h-43l-31 177l73 342q14 57 -33 39l-208 -61l-66 -311l-44 -1l90 415h42z" />
    <glyph glyph-name="uni2D05" unicode="&#x2d05;" horiz-adv-x="734" 
d="M151 407l-15 -68q209 61 211 59q83 26 70 -58q207 60 209 58q88 27 68 -71l-70 -334h-44l71 334q10 48 -28 37l-214 -61l-69 -320l30 -176h-43l-30 176l74 344q11 48 -25 38l-218 -62l-66 -310h-42l87 414h44z" />
    <glyph glyph-name="uni2D06" unicode="&#x2d06;" horiz-adv-x="461" 
d="M114 -5q-90 -16 -70 82l55 263l51 137q-140 0 -134 89l13 82h42l-9 -71q-12 -72 99 -72l23 62h48l-89 -227v-1q208 61 210 59q88 27 68 -71l-40 -192q-23 -109 -267 -140zM115 30q208 31 222 105l41 192q10 48 -28 37l-215 -62l-48 -225q-10 -48 28 -47z" />
    <glyph glyph-name="uni2D07" unicode="&#x2d07;" horiz-adv-x="736" 
d="M628 398q88 27 68 -71l-70 -334h-44l71 334q10 48 -28 37l-213 -61l-67 -310h-43l14 67q-206 -60 -208 -58q-88 -27 -68 71l70 334h44l-15 -68q208 61 210 59q83 26 70 -58q207 60 209 58zM373 327q11 48 -25 38l-216 -62l-49 -230q-10 -48 28 -37l213 61z" />
    <glyph glyph-name="uni2D08" unicode="&#x2d08;" horiz-adv-x="420" 
d="M115 407l-14 -67q207 60 209 58q88 27 68 -71l-70 -334h-44l71 334q10 48 -28 37l-214 -62l-20 -95l-43 -2l43 201z" />
    <glyph glyph-name="uni2D09" unicode="&#x2d09;" horiz-adv-x="458" 
d="M108 2q-88 -28 -68 71l63 288l-31 287h44l30 -287l-4 -19q199 59 201 57q95 27 75 -71l-60 -284l18 -237h-42l-18 237l3 17q-209 -61 -211 -59zM109 35l218 62l49 231q12 49 -33 38l-209 -60l-51 -233q-10 -49 26 -38z" />
    <glyph glyph-name="uni2D0A" unicode="&#x2d0a;" horiz-adv-x="733" 
d="M130 309l-67 -316h-43l88 414h43l-14 -64q207 57 209 55q83 26 70 -58q207 60 209 58q88 27 68 -71l-70 -334h-44l14 67q-208 -60 -210 -58q-88 -27 -68 71l55 254q11 48 -25 38zM650 327q10 48 -28 37l-214 -61l-50 -230q-10 -48 28 -37l215 62z" />
    <glyph glyph-name="uni2D0B" unicode="&#x2d0b;" horiz-adv-x="467" 
d="M383 374q-240 -16 -253 -84l-43 -209q-14 -61 35 -58q188 10 208 104zM427 374l-56 -263q-25 -118 -231 -118q-120 -17 -100 79l49 228q22 107 302 107v146q0 41 -20 41q-23 0 -75.5 -26.5t-83.5 -27.5q-58 0 -57 70l8 38h44l-7 -33q-9 -39 27 -39q26 0 71.5 25.5
t82.5 25.5q54 0 55 -69l-1 -151h33v-33h-41z" />
    <glyph glyph-name="uni2D0C" unicode="&#x2d0c;" horiz-adv-x="456" 
d="M104 385q-4 141 -5 143q1 120 158 120q139 0 134 -54l-3 -39h-47l3 29q3 35 -75 35q-129 1 -130 -86l9 -148l-10 -46q207 61 209 59q89 28 68 -71l-72 -334h-43l71 334q11 48 -25 38l-216 -62l-68 -310h-42z" />
    <glyph glyph-name="uni2D0D" unicode="&#x2d0d;" horiz-adv-x="734" 
d="M583 -7l14 68q-208 -61 -210 -59q-83 -26 -71 58q-206 -60 -208 -58q-88 -27 -68 71l70 334h44l-71 -334q-10 -48 28 -37l213 61l67 310h43l-71 -334q-11 -48 25 -38l217 62l67 310h42l-87 -414h-44z" />
    <glyph glyph-name="uni2D0E" unicode="&#x2d0e;" horiz-adv-x="454" 
d="M303 -7l14 67q-207 -60 -209 -58q-88 -27 -68 71l70 334h44l-71 -334q-10 -48 28 -37l214 61l67 310h42l-87 -414h-44z" />
    <glyph glyph-name="uni2D0F" unicode="&#x2d0f;" horiz-adv-x="568" 
d="M425 31l2 10q-148 -43 -150 -41q-89 -28 -68 71l28 125q-133 -38 -134 -36q-88 -27 -68 71l37 175h44l-38 -175q-10 -48 28 -37l139 39l13 55h43l-48 -217q-11 -48 25 -38l157 44l72 328l-30 241h43l30 -241l-81 -374l30 -224h-44z" />
    <glyph glyph-name="uni2D10" unicode="&#x2d10;" horiz-adv-x="736" 
d="M434 407l-15 -67q207 60 209 58q88 27 68 -71l-70 -334h-44l71 334q10 48 -28 37l-214 -61l-66 -310h-42l14 67q-207 -60 -209 -58q-88 -27 -68 71l70 334h44l-71 -334q-10 -48 28 -37l214 61l65 310l-30 241h44z" />
    <glyph glyph-name="uni2D11" unicode="&#x2d11;" horiz-adv-x="456" 
d="M305 -7l14 68q-208 -61 -210 -59q-89 -28 -68 71l72 334l-20 241h45l20 -241l-73 -334q-11 -48 25 -38l217 62l67 310h42l-87 -414h-44z" />
    <glyph glyph-name="uni2D12" unicode="&#x2d12;" horiz-adv-x="466" 
d="M385 321q11 64 -38 49q-80 -15 -204 -65l-60 -281q250 59 259 101zM382 111q-10 -51 -307 -123q-31 -149 104 -149q66 0 142 61l18 -30q-74 -63 -176 -63q-88 0 -115.5 59t-7.5 155l82 386h42l-12 -60q161 60 249 60q45 0 30 -69z" />
    <glyph glyph-name="uni2D13" unicode="&#x2d13;" horiz-adv-x="735" 
d="M592 37l5 23q-208 -60 -210 -58q-83 -26 -71 58q-206 -60 -208 -58q-88 -27 -68 71l70 334h44l-71 -334q-10 -48 28 -37l213 61l67 310h43l-71 -334q-11 -48 25 -38l217 62l67 310l-30 241h43l30 -241l-79 -370l30 -230h-44z" />
    <glyph glyph-name="uni2D14" unicode="&#x2d14;" horiz-adv-x="736" 
d="M302 -7l13 63v4q-205 -60 -207 -58q-88 -27 -68 71l70 334h44l-15 -68q208 61 210 59q83 26 70 -58q207 60 209 58q88 27 68 -71l-70 -334h-44l14 67q-208 -60 -210 -58q-23 -7 -39 -6l30 -189h-45zM361 73q-10 -48 28 -37l215 62l49 229q10 48 -28 37l-214 -61zM373 327
q11 48 -25 38l-216 -62l-49 -230q-10 -48 28 -37l212 61z" />
    <glyph glyph-name="uni2D15" unicode="&#x2d15;" horiz-adv-x="633" 
d="M299 35l30 -228h-44l-30 228l36 169l-207 -54l-20 -92l-44 -1l71 328h42l-43 -207l209 60l35 154l-29 256h40l30 -256l-29 -139l207 57l17 75h43l-70 -326l-42 2l45 215l-209 -63z" />
    <glyph glyph-name="uni2D16" unicode="&#x2d16;" horiz-adv-x="465" 
d="M151 407l-15 -68q209 61 211 59q89 28 68 -71l-72 -334h-43l71 334q11 48 -25 38l-218 -62l-66 -310h-42l87 414h44z" />
    <glyph glyph-name="uni2D17" unicode="&#x2d17;" horiz-adv-x="456" 
d="M317 52l2 8q-208 -60 -210 -58q-89 -28 -68 71l72 334h43l-71 -334q-11 -48 25 -38l217 62l67 310h42l-77 -364l30 -236h-42z" />
    <glyph glyph-name="uni2D18" unicode="&#x2d18;" horiz-adv-x="456" 
d="M394 407h42l-62 -294q-40 -186 -145.5 -246t-188.5 -60h-14l3 31h9q81 0 157.5 44.5t119.5 176.5q-204 -59 -206 -57q-89 -28 -68 71l72 334h43l-71 -334q-11 -48 25 -38l216 62z" />
    <glyph glyph-name="uni2D19" unicode="&#x2d19;" horiz-adv-x="456" 
d="M20 -7l89 414l-30 241h43l30 -241l-15 -68q208 61 210 59q89 28 68 -71l-72 -334h-43l71 334q11 48 -25 38l-216 -62l-66 -310l49 -186h-52z" />
    <glyph glyph-name="uni2D1A" unicode="&#x2d1a;" horiz-adv-x="477" 
d="M41 -7l87 414h44l-15 -68q209 61 211 59q89 28 68 -71l-61 -274h-43l60 274q11 48 -25 38l-218 -62l-66 -310q-18 -86 21 -120.5t117 -34.5q57 0 130 57l16 -26q-64 -62 -155 -62q-100 0 -146 44t-25 142z" />
    <glyph glyph-name="uni2D1B" unicode="&#x2d1b;" horiz-adv-x="470" 
d="M384 377q-237 -2 -257 -95l-42 -195q-20 -89 76 -71q154 34 166 92zM476 378l-48 -1l-55 -262q-22 -102 -230 -123q-123 -16 -100 93l42 198q25 115 305 123l-29 242h44l30 -242h42z" />
    <glyph glyph-name="uni2D1C" unicode="&#x2d1c;" horiz-adv-x="724" 
d="M141 407l-14 -68q208 61 210 59q83 26 70 -58q207 60 209 58q88 27 68 -71l-70 -334h-44l71 334q10 48 -28 37l-213 -61l-67 -310h-43l71 334q11 48 -25 38l-217 -62l-57 -280l30 -216h-42l-30 216l77 384h44z" />
    <glyph glyph-name="uni2D1D" unicode="&#x2d1d;" horiz-adv-x="469" 
d="M90 49q123 53 160 53q168 0 156 -138q-27 -157 -223 -157q-92 0 -163 27l10 41v7q78 -43 161 -43q167 0 178 128q5 99 -132 99q-49 1 -157 -44h-38l82 385h41l-14 -68q208 61 210 59q88 27 68 -71l-23 -107h-44l24 107q10 48 -28 37l-215 -62zM29 -123v1l1 -1h-1z" />
    <glyph glyph-name="uni2D1E" unicode="&#x2d1e;" horiz-adv-x="492" 
d="M261 -193q-241 0 -196 213l83 387h43l-81 -380q250 71 274 180l43 200h45l-43 -200q-32 -147 -325 -212q-35 -155 159 -156z" />
    <glyph glyph-name="uni2D1F" unicode="&#x2d1f;" horiz-adv-x="461" 
d="M114 218q6 -69 56 -136q161 88 228 282q-108 -50 -188 -49q-149 0 -149 109h49q-2 -75 82 -75q72 0 126 15.5t88 42.5h35q-25 -229 -250 -354q59 -60 149 -108l-24 -35q-91 48 -153 122q-94 -76 -106 -225h-37q2 154 123 250q-62 73 -69 156z" />
    <glyph glyph-name="uni2D20" unicode="&#x2d20;" horiz-adv-x="731" 
d="M668 407h43l-88 -414h-43l14 67q-208 -60 -210 -58q-88 -27 -68 71l55 254q11 48 -25 38l-217 -62l-66 -310h-43l88 414h43l-15 -68q209 61 211 59q89 28 68 -71l-56 -254q-10 -48 28 -37l215 62z" />
    <glyph glyph-name="uni2D21" unicode="&#x2d21;" horiz-adv-x="447" 
d="M106 449q27 143 76 171t113 28h51v-42h-76q-35 0 -66.5 -20.5t-52.5 -137.5l-23 -109q208 61 210 59q89 28 68 -71l-33 -149h-43l32 149q11 48 -25 38l-217 -62l-56 -270l90 -226h-48l-86 226z" />
    <glyph glyph-name="uni2D22" unicode="&#x2d22;" horiz-adv-x="455" 
d="M369 104q-24 -110 -241 -110q-102 -1 -87 83l26 125h45l-21 -98q-17 -82 29 -82q189 5 206 85l45 210q12 55 -25 53q-35 -2 -72.5 -14.5t-90.5 -12.5q-50 -1 -38 55l16 73h45l-12 -55q-9 -41 11 -41q32 0 85 16t77 16q68 4 48 -88z" />
    <glyph glyph-name="uni2D23" unicode="&#x2d23;" horiz-adv-x="456" 
d="M389 -193h-45l-30 238l3 15q-206 -60 -208 -58q-89 -28 -68 71l72 334h44l-72 -337q-10 -43 27 -31l213 58l69 310l-30 241h41l31 -241l-77 -354z" />
    <glyph glyph-name="uni2D24" unicode="&#x2d24;" horiz-adv-x="514" 
d="M224 146h43v-65l122 35l63 291h42l-74 -354h-44l5 25l-114 -33v-238h-43v226q-115 -32 -116 -31q-88 -27 -68 71l70 334h44l-71 -334q-10 -48 28 -37l113 32v78z" />
    <glyph glyph-name="uni2D25" unicode="&#x2d25;" horiz-adv-x="650" 
d="M379 365q-245 -30 -259 -112l-30 -143q-11 -81 27 -84q190 1 207 79zM586 130h-43l49 200q9 55 -64 55l-105 -19l-56 -261q-23 -112 -246 -112q-101 0 -76 114l34 163q18 87 304 120l13 168q2 90 131 90q97 0 92 -65l-3 -23h-40l1 17q4 46 -63 46q-72 -10 -78 -70
l-11 -162l108 16q119 13 102 -77z" />
    <glyph glyph-name="uniF400" unicode="&#xf400;" horiz-adv-x="513" 
d="M458 226v-48q-7 -93 -66 -146.5t-134 -53.5q-89 0 -145.5 58t-56.5 166q0 69 37 135l48 -18q-35 -57 -35 -117q0 -102 46.5 -143.5t105.5 -41.5q52 0 98.5 36.5t51.5 123.5v47q0 104 -106.5 197.5t-106.5 257.5h46q0 -154 108.5 -242t108.5 -211z" />
    <glyph glyph-name="uniF401" unicode="&#xf401;" horiz-adv-x="524" 
d="M106 209q0 -93 46.5 -142.5t108.5 -49.5q78 0 118 45t40 136v26q0 88 -45.5 137.5t-116.5 55.5q-69 -2 -110 -50.5t-41 -131.5v-26zM188 682q1 -50 79.5 -81t26.5 -153q73 -17 124 -74.5t51 -149.5v-26q0 -97 -57.5 -158.5t-149.5 -61.5q-90 0 -148 64.5t-58 166.5v26
q0 84 45.5 143t148.5 71q58 104 -33 139t-94 94h65z" />
    <glyph glyph-name="uniF402" unicode="&#xf402;" horiz-adv-x="537" 
d="M265 443h25q65 53 65 117q0 35 -30 59t-77 24q-53 0 -82.5 -19t-29.5 -44q0 -28 5 -40l-46 -12q-8 26 -8 48q0 40 43.5 73t117.5 33q75 0 116 -39.5t41 -82.5q0 -63 -72 -127q63 -20 111 -80t48 -134v-19q0 -83 -62.5 -152.5t-161.5 -69.5t-161 69.5t-62 158.5v18
q0 82 62 147t158 72zM266 405q-75 -7 -123 -52.5t-48 -129.5v-17q0 -86 51 -137.5t122 -51.5q72 0 123 51.5t51 131.5v18q0 76 -46 130.5t-130 56.5z" />
    <glyph glyph-name="uniF403" unicode="&#xf403;" horiz-adv-x="811" 
d="M704 424v38q0 92 -38.5 137.5t-104.5 45.5t-111 -46t-45 -133v-31q0 -104 45 -150.5t109 -46.5q48 0 96.5 46t48.5 140zM355 432v28q0 50 21 104q-49 77 -131 78q-66 -1 -103.5 -48t-37.5 -109v-37q0 -117 71.5 -206.5t233 -134t213.5 -121.5h-83q-12 40 -81 62.5
t-132.5 15t-165.5 -58.5v59q46 21 171 27q-154 62 -214.5 160.5t-60.5 195.5v36q0 76 47.5 136t142.5 61q90 -1 149 -83q65 85 160 85q86 0 143 -56t57 -166v-36q0 -87 -58 -156t-142 -69q-85 0 -142.5 67t-57.5 166z" />
    <glyph glyph-name="uniF404" unicode="&#xf404;" horiz-adv-x="524" 
d="M458 166q0 -99 -59.5 -143.5t-139.5 -44.5q-79 0 -141 54t-62 150q0 86 46 150l41 -22q-37 -46 -37 -128q0 -99 52.5 -132t100.5 -33q58 0 105.5 29t47.5 120v349q0 80 -43.5 104t-87.5 24q-59 0 -95.5 -29.5t-36.5 -77.5q0 -42 20 -67l-43 -21q-24 36 -24 88
q0 58 48.5 102t127.5 44q77 0 128.5 -42.5t51.5 -124.5v-349z" />
    <glyph glyph-name="uniF405" unicode="&#xf405;" horiz-adv-x="524" 
d="M469 158q0 -83 -49 -132t-155 -49q-90 0 -149.5 55t-59.5 141q0 50 34 120l45 -18q-29 -59 -29 -102q0 -78 47.5 -118.5t111.5 -40.5q75 0 114.5 36t39.5 97v55q0 77 -46 111t-89 34h-37v38h38q37 0 85.5 37.5t48.5 99.5q0 53 -44.5 87t-107.5 34q-54 0 -94 -32t-40 -81
q0 -29 20 -69l-45 -18q-24 44 -24 86q0 63 52 108t130 45q97 0 150 -47.5t53 -113.5q0 -96 -127 -158q127 -43 127 -166v-39z" />
    <glyph glyph-name="uniF406" unicode="&#xf406;" horiz-adv-x="544" 
d="M488 206q0 -114 -64.5 -171t-147.5 -57q-79 0 -145 58t-66 170v12q0 46 23 91.5t88 83.5q-51 6 -96.5 44t-45.5 102q0 55 43.5 99t124.5 44q83 0 127.5 -47t44.5 -93q0 -48 -21 -76t-53 -47q67 -8 127.5 -61.5t60.5 -139.5v-12zM114 209q0 -108 56.5 -150t105.5 -42
q48 0 105.5 42t57.5 150v4q0 81 -50 128t-113 47q-67 0 -114.5 -53t-47.5 -123v-3zM324 539q0 51 -35.5 77.5t-85.5 26.5q-47 0 -83 -26t-36 -80q0 -52 39 -85.5t80 -33.5q59 0 90 34t31 87z" />
    <glyph glyph-name="uniF407" unicode="&#xf407;" horiz-adv-x="827" 
d="M419 416q0 144 -44.5 185.5t-109.5 41.5q-73 0 -116 -51.5t-43 -175.5v-139q0 -135 42 -197.5t113 -62.5q68 0 114.5 63t43.5 196v140zM469 402v-125q0 -144 -56.5 -221.5t-151.5 -77.5q-94 0 -149.5 77.5t-55.5 219.5v143q0 134 58.5 199t149.5 65q55 0 99 -23t68 -77
q66 100 154 100q84 0 135 -67t51 -198v-91q0 -200 -118 -349l-54 17q123 142 123 335v87q0 130 -41 178.5t-86 48.5q-73 0 -148 -93q22 -69 22 -148z" />
    <glyph glyph-name="uniF408" unicode="&#xf408;" horiz-adv-x="501" 
d="M56 404q0 139 55 208.5t140 69.5q84 0 139 -69.5t55 -208.5v-81q0 -185 -64 -330l-59 11q74 97 74 319v81q0 127 -37 183t-108 56q-72 0 -108.5 -56t-36.5 -183v-81q0 -220 67 -325l-59 -11q-58 153 -58 336v81z" />
    <glyph glyph-name="uniF409" unicode="&#xf409;" horiz-adv-x="513" 
d="M458 173q0 -98 -58.5 -146.5t-147.5 -48.5q-83 0 -145 55.5t-62 154.5q0 58 36 114l42 -19q-28 -43 -28 -95q0 -91 53.5 -131t103.5 -40q55 0 105.5 30t50.5 126v81q0 125 -140 140h-77v40h78q121 6 121 107q0 44 -39 115l35 27q53 -95 53 -142q0 -93 -112 -127
q131 -57 131 -159v-82z" />
    <glyph glyph-name="uniF40A" unicode="&#xf40a;" horiz-adv-x="1005" 
d="M949 488v-28q0 -107 -82 -210l-55 11q88 103 88 203v24q0 150 -121 150q-60 0 -93.5 -48.5t-33.5 -102.5v-127h-43v126q0 76 -30 116.5t-76 40.5q-47 0 -77 -46t-30 -111v-126h-43v126q0 55 -33.5 103.5t-94.5 48.5q-45 0 -82 -42t-37 -119v-41q0 -116 105 -208.5
t300.5 -115.5t263.5 -129h-79q-11 63 -116.5 79t-191.5 4.5t-181 -49.5v50q65 22 171 32q-161 41 -241.5 135.5t-80.5 202.5v40q0 72 41 135.5t130 63.5q49 0 85.5 -28t61.5 -89q15 67 50.5 95t78.5 28q45 0 77.5 -28t51.5 -96q15 62 54 90t93 28q170 0 170 -188z" />
    <glyph glyph-name="uniF40B" unicode="&#xf40b;" horiz-adv-x="535" 
d="M259 428q-60 0 -106.5 -48.5t-46.5 -134.5v-46q0 -81 45.5 -131.5t107.5 -50.5q69 0 116.5 36.5t47.5 140.5v51q0 79 -44 131t-120 52zM56 245q0 81 56 150.5t147 69.5q105 0 164 -94v145q0 66 -37 96.5t-116 30.5q-64 0 -96 -17.5t-32 -37.5q0 -14 5 -30l-44 -11
q-7 19 -7 44q0 32 44 61.5t130 29.5q105 0 152 -44.5t47 -135.5v-308q0 -111 -53 -163.5t-154 -52.5q-88 0 -147 65t-59 156v46z" />
    <glyph glyph-name="uniF40C" unicode="&#xf40c;" horiz-adv-x="535" 
d="M430 199v46q1 90 -42 136.5t-118 46.5q-67 0 -112.5 -48t-45.5 -135v-51q0 -86 40 -131.5t118 -45.5q79 0 119.5 49.5t40.5 132.5zM480 199q0 -90 -56 -155.5t-154 -65.5q-97 0 -150 55.5t-53 160.5v374q0 104 121 104h164q42 0 42 18h59q0 -56 -101 -56h-166
q-74 0 -74 -58v-202q57 91 158 91q111 0 160.5 -63.5t49.5 -156.5v-46z" />
    <glyph glyph-name="uniF40D" unicode="&#xf40d;" horiz-adv-x="783" 
d="M368 224v248q0 91 -36 131t-82 40q-55 0 -99.5 -46t-44.5 -183v-67q0 -216 142 -350l-62 -11q-130 141 -130 361v67q0 150 61 209t131 59q44 0 81 -28.5t63 -89.5q25 61 62 89.5t80 28.5q71 0 132 -59t61 -209v-67q0 -220 -133 -361l-63 11q146 134 146 350v67
q0 137 -44.5 183t-99.5 46q-46 0 -82 -40t-36 -131v-248h-47z" />
    <glyph glyph-name="uniF40E" unicode="&#xf40e;" horiz-adv-x="524" 
d="M429 502q0 -96 -122 -129q162 -54 162 -190v-10q0 -73 -56 -134t-148 -61q-90 0 -149.5 55t-59.5 147q0 66 33 122l44 -17q-27 -52 -27 -105q0 -84 49.5 -123.5t109.5 -39.5q58 0 106 45.5t48 110.5v9q0 135 -154 171h-41v42h31q131 16 131 107q0 70 -113 74t-113 103h54
q0 -72 107.5 -78t107.5 -99z" />
    <glyph glyph-name="uniF40F" unicode="&#xf40f;" horiz-adv-x="535" 
d="M469 188q0 -108 -63 -159t-147 -51q-81 0 -142 49t-61 136q0 54 21 98l44 -18q-15 -37 -15 -79q0 -72 47 -109.5t106 -37.5q60 0 112 40.5t52 129.5v454q-122 -24 -268 -26q157 -33 157 -138q0 -50 -39.5 -84.5t-110.5 -34.5h-70v50l70 -5q51 -5 77 14t26 66
q0 53 -51.5 83t-118.5 30v45q196 4 335 41h39v-494z" />
    <glyph glyph-name="uniF410" unicode="&#xf410;" horiz-adv-x="802" 
d="M696 286q0 84 -41 130t-99 46q-52 0 -90.5 -44t-38.5 -97v-131h-44v131q0 53 -37 97t-96 44q-55 0 -99.5 -44.5t-44.5 -131.5v-34q0 -126 146 -255l-68 -11q-128 123 -128 278v30q0 53 20.5 117.5t99 142.5t320.5 127l13 -49q-312 -41 -373 -177q84 43 117 43
q63 0 94.5 -27.5t57.5 -85.5q25 58 60 85.5t91 27.5q94 0 142 -61.5t48 -143.5v-30q0 -155 -136 -277l-68 11q154 127 154 255v34z" />
    <glyph glyph-name="uniF411" unicode="&#xf411;" horiz-adv-x="535" 
d="M480 178q0 -76 -56 -138t-159 -62q-99 0 -148.5 64t-49.5 163v473h45v-473q-2 -96 41.5 -142t111.5 -46t116.5 40.5t48.5 120.5q0 93 -69 139t-69 115q0 62 13 119l49 -15q-16 -45 -16 -97q0 -63 71 -111.5t71 -149.5z" />
    <glyph glyph-name="uniF412" unicode="&#xf412;" horiz-adv-x="595" 
d="M286 625q-91 -10 -141 -86.5t-50 -189.5v-54q0 -134 60.5 -206t146.5 -72q92 0 145 72t53 206v54q0 111 -48 188.5t-136 87.5l12 -373h-54zM45 349q0 132 69 218t172 86l-24 29h76l-22 -29q94 0 164 -86t70 -218v-54q0 -138 -60 -227.5t-192 -89.5q-119 0 -186 89.5
t-67 227.5v54z" />
    <glyph glyph-name="uniF413" unicode="&#xf413;" horiz-adv-x="524" 
d="M458 173q0 -100 -54 -147.5t-157 -47.5q-87 0 -144.5 54t-57.5 148q0 83 41 143l41 -22q-32 -48 -32 -117q0 -88 44.5 -127.5t107.5 -39.5q72 0 118.5 30t46.5 133v373q0 90 -81 90q-45 0 -61.5 -34.5t-16.5 -72.5v-110h-42v110q0 39 -18 73t-44 34q-24 0 -38.5 -11.5
t-44.5 -11.5h-43v59l47 -20q19 0 35.5 11.5t43.5 11.5q50 0 82 -100q25 100 108 100q119 0 119 -142v-367z" />
    <glyph glyph-name="uniF414" unicode="&#xf414;" horiz-adv-x="765" 
d="M376 495q0 62 -35 105t-94 43t-100 -33t-41 -114v-55q0 -82 38.5 -119.5t97.5 -37.5q58 0 96 37t38 120v54zM426 494v-54q-7 -82 -53 -139.5t-131 -57.5q-78 0 -132 58.5t-54 139.5v55q0 79 49.5 132.5t141.5 53.5q93 0 146 -88q51 85 150 85q77 0 121.5 -52.5
t44.5 -136.5q0 -107 -110 -164q97 -33 99 -133v-42q0 -62 -63.5 -117.5t-182.5 -55.5q-112 0 -180.5 42t-68.5 92v38h51v-38q-2 -37 51.5 -66t145.5 -29q93 0 146 38.5t53 95.5v39q-1 117 -107 117h-45v40h47q115 7 115 143q0 74 -34.5 112t-85.5 38q-82 0 -132 -76
q18 -45 18 -70z" />
    <glyph glyph-name="uniF415" unicode="&#xf415;" horiz-adv-x="535" 
d="M469 168q0 -97 -57.5 -143.5t-152.5 -46.5q-83 0 -143 49.5t-60 129.5q0 69 24 108l44 -24q-18 -25 -18 -84q0 -62 44.5 -101t108.5 -39t114 33.5t50 117.5v183q0 32 -68 101.5t-135 68.5q-32 1 -49 -18t-17 -56q0 -36 16 -65l-47 -17q-19 42 -19 82q-1 54 32 83t84 29
q91 0 203 -129v213h-114v36h160v-511z" />
    <glyph glyph-name="uniF416" unicode="&#xf416;" horiz-adv-x="770" 
d="M714 486v-28q0 -91 -89 -208l-54 11q93 102 93 194v28q0 82 -39 121t-93 39q-57 0 -91 -42t-34 -88v-105h-43v105q0 46 -34 88t-96 42q-57 0 -92.5 -42.5t-35.5 -115.5v-22q0 -217 228.5 -307.5t247.5 -172.5h-75q-26 72 -79 95.5t-125 11t-140 -72.5v58q55 43 161 48
q-268 97 -268 343v18q0 79 48 138.5t130 59.5q99 0 153 -110q44 110 145 110q94 0 138 -56.5t44 -139.5z" />
    <glyph glyph-name="uniF417" unicode="&#xf417;" horiz-adv-x="535" 
d="M469 159q0 -90 -53.5 -135.5t-150.5 -45.5q-80 0 -144.5 48t-64.5 138q0 15 7 43l48 -13q-5 -17 -5 -30q0 -68 47 -107.5t112 -39.5q71 0 116 32t45 110v189q-56 -86 -157 -86q-90 0 -140.5 51t-50.5 157q0 115 112 212l33 -29q-96 -89 -96 -184q0 -102 43.5 -137.5
t98.5 -35.5q61 0 109 49.5t48 113.5v212h43v-512z" />
    <glyph glyph-name="uniF418" unicode="&#xf418;" horiz-adv-x="528" 
d="M416 358v205q0 51 -17.5 65.5t-53.5 14.5q-31 0 -55 -27.5t-24 -47.5v-27h-48v27q0 20 -19 47.5t-65 27.5q-50 0 -50 -56v-59h-50v64q0 48 29 69t70 21q65 0 111 -79q44 79 104 79q64 0 88.5 -34t24.5 -86v-368q0 -111 -53.5 -163.5t-154.5 -52.5q-88 0 -147 65t-59 156
v24q0 81 56 150.5t148 69.5q104 0 165 -85zM251 406q-61 0 -107.5 -48.5t-46.5 -134.5v-24q0 -81 45.5 -131.5t108.5 -50.5q68 0 116 36.5t49 140.5v29q0 79 -44.5 131t-120.5 52z" />
    <glyph glyph-name="uniF419" unicode="&#xf419;" horiz-adv-x="535" 
d="M362 555h-45v26q0 28 -23.5 45t-70.5 17q-54 0 -82.5 -35.5t-28.5 -100.5v-134q77 92 171 92q93 0 145 -55.5t52 -134.5v-24q0 -146 -115 -256l-59 11q124 111 124 243v25q0 74 -42.5 114t-104.5 40q-63 0 -117 -53.5t-54 -108.5v-265h-45v509q0 67 39 119.5t121 52.5
q73 0 104.5 -33.5t31.5 -67.5q0 -15 -1 -26z" />
    <glyph glyph-name="uniF41A" unicode="&#xf41a;" horiz-adv-x="573" 
d="M492 490q0 -76 -103 -126q128 -60 128 -141v-28q0 -106 -63.5 -161.5t-157.5 -55.5q-107 0 -173.5 75t-66.5 176v188q0 135 86 263l44 -23q-80 -102 -80 -236v-193q0 -93 56 -152t138 -59q65 0 117 43t52 138v23q0 40 -48.5 81.5t-96.5 41.5h-59v37h59q46 0 82 31.5
t36 78.5q0 35 -70 79t-70 103l50 6q0 -50 70 -93t70 -96z" />
    <glyph glyph-name="uniF41B" unicode="&#xf41b;" horiz-adv-x="535" 
d="M259 428q-60 0 -106.5 -48.5t-46.5 -134.5v-46q0 -81 45.5 -131.5t107.5 -50.5q69 0 116.5 39.5t47.5 142.5v46q0 79 -44 131t-120 52zM469 199q0 -111 -53 -166t-154 -55q-88 0 -147 65t-59 156v46q0 81 56 150.5t147 69.5q105 0 164 -94v308h46v-480z" />
    <glyph glyph-name="uniF41C" unicode="&#xf41c;" horiz-adv-x="527" 
d="M276 406q-76 0 -120 -52t-44 -131v-29q0 -104 48 -140.5t116 -36.5q63 0 108.5 50.5t45.5 131.5v24q0 86 -47 134.5t-107 48.5zM112 358q60 85 164 85q91 0 147.5 -69.5t56.5 -150.5v-24q0 -91 -59 -156t-147 -65q-101 0 -154 52.5t-53 163.5v368q0 52 23.5 86t88.5 34
q60 0 104 -79q46 79 111 79q40 0 69.5 -21t29.5 -69v-64h-50v59q0 56 -50 56q-47 0 -65 -27.5t-18 -50.5v-26h-51v26q0 23 -23.5 50.5t-54.5 27.5q-35 0 -52 -14.5t-17 -65.5v-205z" />
    <glyph glyph-name="uniF41D" unicode="&#xf41d;" horiz-adv-x="502" 
d="M427 549v-38h-106q0 -87 68.5 -168t68.5 -165v-9q0 -70 -57.5 -130.5t-149.5 -60.5q-93 0 -149.5 61.5t-56.5 134.5q0 37 23 78l44 -19q-17 -27 -17 -59q0 -77 47.5 -117t108.5 -40q67 0 112 44.5t45 109.5v5q0 87 -65 164t-65 171h-80q-57 0 -72.5 -25.5t-15.5 -48.5
q0 -21 17 -44t72 -23h23v-38h-23q-66 0 -99 32.5t-33 73.5q0 39 31.5 75t99.5 36h82v91h-105v39h147v-130h105z" />
    <glyph glyph-name="uniF41E" unicode="&#xf41e;" horiz-adv-x="535" 
d="M67 679h45v-308q60 94 164 94q91 0 147.5 -69.5t56.5 -150.5v-46q0 -91 -59 -156t-147 -65q-101 0 -154 54.5t-53 165.5v481zM276 428q-76 0 -120 -52t-44 -131v-47q0 -103 48 -142t116 -39q63 0 108.5 50.5t45.5 131.5v46q0 86 -47 134.5t-107 48.5z" />
    <glyph glyph-name="uniF41F" unicode="&#xf41f;" horiz-adv-x="423" 
d="M325 132q0 -141 -302 -149v47q252 -4 253 102q4 105 -173 118l-28 26l113 150l-158 80l22 36l159 -83l46 60q38 58 23 91t-52 33q-40 0 -83 -25l-19 35q32 29 103 29q62 0 87.5 -51.5t-13.5 -120.5l-55 -69l152 -78l-19 -35l-152 78l-91 -119q183 -24 187 -155z" />
    <glyph glyph-name="uniF420" unicode="&#xf420;" horiz-adv-x="515" 
d="M459 135q0 -58 -54 -107.5t-155 -49.5q-105 0 -155 55.5t-49 116.5q0 58 11 94l47 -13q-8 -33 -8 -83q0 -60 47.5 -95.5t107.5 -35.5q66 0 112 35t46 81q0 131 -233 171v39q83 -13 136 -39q24 -11 50 4.5t26 47.5q0 73 -212 105v38q71 -6 119 -26q25 -7 48.5 8.5
t23.5 44.5q0 50 -108 71t-108 85h51q0 -37 107.5 -62t107.5 -95q0 -46 -72 -73q93 -43 93 -102q0 -46 -79 -73q100 -62 100 -142z" />
    <glyph glyph-name="uniF421" unicode="&#xf421;" horiz-adv-x="524" 
d="M122 684l45 -22q-61 -76 -61 -230v-217q0 -123 44 -160.5t128 -37.5q78 0 109.5 27t31.5 64q0 87 -106 87h-55v32h55q98 0 98 56q0 59 -105 59h-48v31h48q100 0 100 60q0 55 -107 55h-41v32h41q100 0 100 54q0 39 -45.5 53t-45.5 54h48q0 -24 47 -46.5t47 -57.5
q0 -48 -76 -71q81 -23 81 -73q0 -51 -81 -77q87 -23 87 -72q0 -50 -82 -74q90 -25 90 -103q0 -67 -56.5 -98t-134.5 -31q-53 0 -96.5 13.5t-70.5 40.5t-41 62t-14 122v219q0 152 66 249z" />
    <glyph glyph-name="uniF422" unicode="&#xf422;" horiz-adv-x="524" 
d="M106 428v-100q0 -161 156 -266q157 101 157 265v101q0 89 -45.5 153t-111.5 64q-64 0 -110 -64t-46 -153zM56 9q51 0 167 33q-167 126 -167 286v100q0 125 60.5 189.5t145.5 64.5q84 0 145.5 -64.5t61.5 -189.5v-101q0 -159 -166 -285q115 -33 166 -33v-54q-14 0 -205 69
q-195 -67 -207 -67h-1v52z" />
    <glyph glyph-name="uniF423" unicode="&#xf423;" horiz-adv-x="524" 
d="M469 169q0 -79 -60.5 -135t-147.5 -56q-83 0 -143.5 54.5t-60.5 146.5q-1 71 22 147l50 -13q-23 -76 -23 -134q0 -72 44 -117t111 -45q72 0 115 46.5t43 105.5v40q0 79 -53.5 120t-104.5 41h-72v39h69q45 0 103 58t58 168h-294v-106h-49v144h393q0 -227 -169 -284
q169 -47 169 -180v-40z" />
    <glyph glyph-name="uniF424" unicode="&#xf424;" horiz-adv-x="524" 
d="M469 189q0 -114 -63.5 -162.5t-143.5 -48.5q-84 0 -145 59.5t-61 137.5q0 94 31 154l43 -20q-24 -55 -24 -134q0 -70 47 -114t109 -44q67 0 112 36.5t45 135.5v6q0 76 -48 112.5t-85 36.5h-62v39h62q36 0 85 48.5t48 203.5q-74 -103 -200 -103q-75 0 -119 43.5t-44 106.5
h50q0 -48 30.5 -81t82.5 -33q115 0 202 114h48v-70q0 -199 -141 -250q141 -40 141 -167v-6z" />
    <glyph glyph-name="uniF425" unicode="&#xf425;" horiz-adv-x="587" 
d="M106 542q0 -63 41 -86.5t156 -23.5h116v98q0 44 -42.5 78.5t-118.5 34.5q-66 0 -109 -26.5t-43 -74.5zM419 250h-123q-117 0 -153.5 -36t-36.5 -93q0 -42 42.5 -73t109.5 -31q76 0 118.5 36.5t42.5 76.5v120zM469 250v-118q0 -65 -64.5 -109.5t-145.5 -44.5
q-101 0 -152 48.5t-51 93.5q0 77 50.5 122t192.5 45h120v107h-116q-145 0 -196 36t-51 112q0 55 53.5 97.5t149.5 42.5q94 0 152 -43.5t58 -109.5v-100h62v-35h-62v-107h62v-37h-62z" />
    <glyph glyph-name="uniF440" unicode="&#xf450;" horiz-adv-x="500" 
d="M102 187q0 -77 36.5 -115.5t95.5 -38.5q50 0 89.5 49.5t39.5 121.5q0 71 -39.5 120.5t-89.5 49.5q-48 0 -90 -49.5t-42 -137.5zM61 579q0 37 29 70t69 33q59 0 98 -84q34 84 98 84q48 0 72.5 -31.5t24.5 -85.5v-56h-45v53q0 46 -9.5 67.5t-51.5 21.5q-32 0 -51.5 -32
t-19.5 -76v-44h-37v44q0 50 -26 79t-48 29q-29 0 -45.5 -17.5t-16.5 -53.5v-252q60 79 132 79t122.5 -59.5t50.5 -143.5q0 -85 -50.5 -144.5t-122.5 -59.5q-81 0 -127 48.5t-46 138.5v392z" />
  </font>
</defs>
</svg>
